<?xml version="1.0" encoding="utf-8" standalone="no"?>
<!DOCTYPE svg PUBLIC "-//W3C//DTD SVG 1.1//EN"
  "http://www.w3.org/Graphics/SVG/1.1/DTD/svg11.dtd">
<svg xmlns:xlink="http://www.w3.org/1999/xlink" width="956.10679pt" height="725.651963pt" viewBox="0 0 956.10679 725.651963" xmlns="http://www.w3.org/2000/svg" version="1.1">
 <metadata>
  <rdf:RDF xmlns:dc="http://purl.org/dc/elements/1.1/" xmlns:cc="http://creativecommons.org/ns#" xmlns:rdf="http://www.w3.org/1999/02/22-rdf-syntax-ns#">
   <cc:Work>
    <dc:type rdf:resource="http://purl.org/dc/dcmitype/StillImage"/>
    <dc:date>2024-11-28T19:57:52.298638</dc:date>
    <dc:format>image/svg+xml</dc:format>
    <dc:creator>
     <cc:Agent>
      <dc:title>Matplotlib v3.9.2, https://matplotlib.org/</dc:title>
     </cc:Agent>
    </dc:creator>
   </cc:Work>
  </rdf:RDF>
 </metadata>
 <defs>
  <style type="text/css">*{stroke-linejoin: round; stroke-linecap: butt}</style>
 </defs>
 <g id="figure_1">
  <g id="patch_1">
   <path d="M 0 725.651963 
L 956.10679 725.651963 
L 956.10679 -0 
L 0 -0 
z
" style="fill: #ffffff"/>
  </g>
  <g id="axes_1">
   <g id="patch_2">
    <path d="M 134.873069 604.8 
L 916.073069 604.8 
L 916.073069 7.2 
L 134.873069 7.2 
z
" style="fill: #ffffff"/>
   </g>
   <g id="matplotlib.axis_1">
    <g id="xtick_1">
     <g id="line2d_1">
      <path d="M 134.873069 604.8 
L 134.873069 7.2 
" clip-path="url(#p5bfaad42a5)" style="fill: none; stroke: #b0b0b0; stroke-width: 0.8; stroke-linecap: square"/>
     </g>
     <g id="line2d_2">
      <defs>
       <path id="m1b3e9b8859" d="M 0 0 
L 0 3.5 
" style="stroke: #000000; stroke-width: 0.8"/>
      </defs>
      <g>
       <use xlink:href="#m1b3e9b8859" x="134.873069" y="604.8" style="stroke: #000000; stroke-width: 0.8"/>
      </g>
     </g>
     <g id="text_1">
      <!-- $\mathdefault{0.00}$ -->
      <g transform="translate(102.039347 640.974009) scale(0.4 -0.4)">
       <defs>
        <path id="CMR17-30" d="M 2688 2025 
C 2688 2416 2682 3080 2413 3591 
C 2176 4039 1798 4198 1466 4198 
C 1158 4198 768 4058 525 3597 
C 269 3118 243 2524 243 2025 
C 243 1661 250 1106 448 619 
C 723 -39 1216 -128 1466 -128 
C 1760 -128 2208 -7 2470 600 
C 2662 1042 2688 1559 2688 2025 
z
M 1466 -26 
C 1056 -26 813 325 723 812 
C 653 1188 653 1738 653 2096 
C 653 2588 653 2997 736 3387 
C 858 3929 1216 4096 1466 4096 
C 1728 4096 2067 3923 2189 3400 
C 2272 3036 2278 2607 2278 2096 
C 2278 1680 2278 1169 2202 792 
C 2067 95 1690 -26 1466 -26 
z
" transform="scale(0.015625)"/>
        <path id="CMMI12-3a" d="M 1178 307 
C 1178 492 1024 619 870 619 
C 685 619 557 466 557 313 
C 557 128 710 0 864 0 
C 1050 0 1178 153 1178 307 
z
" transform="scale(0.015625)"/>
       </defs>
       <use xlink:href="#CMR17-30" transform="scale(0.996264)"/>
       <use xlink:href="#CMMI12-3a" transform="translate(45.690477 0) scale(0.996264)"/>
       <use xlink:href="#CMR17-30" transform="translate(72.787654 0) scale(0.996264)"/>
       <use xlink:href="#CMR17-30" transform="translate(118.478131 0) scale(0.996264)"/>
      </g>
     </g>
    </g>
    <g id="xtick_2">
     <g id="line2d_3">
      <path d="M 265.073069 604.8 
L 265.073069 7.2 
" clip-path="url(#p5bfaad42a5)" style="fill: none; stroke: #b0b0b0; stroke-width: 0.8; stroke-linecap: square"/>
     </g>
     <g id="line2d_4">
      <g>
       <use xlink:href="#m1b3e9b8859" x="265.073069" y="604.8" style="stroke: #000000; stroke-width: 0.8"/>
      </g>
     </g>
     <g id="text_2">
      <!-- $\mathdefault{0.25}$ -->
      <g transform="translate(232.239347 640.974009) scale(0.4 -0.4)">
       <defs>
        <path id="CMR17-32" d="M 2669 989 
L 2554 989 
C 2490 536 2438 459 2413 420 
C 2381 369 1920 369 1830 369 
L 602 369 
C 832 619 1280 1072 1824 1597 
C 2214 1967 2669 2402 2669 3035 
C 2669 3790 2067 4224 1395 4224 
C 691 4224 262 3604 262 3030 
C 262 2780 448 2748 525 2748 
C 589 2748 781 2787 781 3010 
C 781 3207 614 3264 525 3264 
C 486 3264 448 3258 422 3245 
C 544 3790 915 4058 1306 4058 
C 1862 4058 2227 3617 2227 3035 
C 2227 2479 1901 2000 1536 1584 
L 262 146 
L 262 0 
L 2515 0 
L 2669 989 
z
" transform="scale(0.015625)"/>
        <path id="CMR17-35" d="M 730 3692 
C 794 3666 1056 3584 1325 3584 
C 1920 3584 2246 3911 2432 4100 
C 2432 4157 2432 4192 2394 4192 
C 2387 4192 2374 4192 2323 4163 
C 2099 4058 1837 3973 1517 3973 
C 1325 3973 1037 3999 723 4139 
C 653 4171 640 4171 634 4171 
C 602 4171 595 4164 595 4037 
L 595 2203 
C 595 2089 595 2057 659 2057 
C 691 2057 704 2070 736 2114 
C 941 2401 1222 2522 1542 2522 
C 1766 2522 2246 2382 2246 1289 
C 2246 1085 2246 715 2054 421 
C 1894 159 1645 25 1370 25 
C 947 25 518 320 403 814 
C 429 807 480 795 506 795 
C 589 795 749 840 749 1038 
C 749 1210 627 1280 506 1280 
C 358 1280 262 1190 262 1011 
C 262 454 704 -128 1382 -128 
C 2042 -128 2669 440 2669 1264 
C 2669 2030 2170 2624 1549 2624 
C 1222 2624 947 2503 730 2274 
L 730 3692 
z
" transform="scale(0.015625)"/>
       </defs>
       <use xlink:href="#CMR17-30" transform="scale(0.996264)"/>
       <use xlink:href="#CMMI12-3a" transform="translate(45.690477 0) scale(0.996264)"/>
       <use xlink:href="#CMR17-32" transform="translate(72.787654 0) scale(0.996264)"/>
       <use xlink:href="#CMR17-35" transform="translate(118.478131 0) scale(0.996264)"/>
      </g>
     </g>
    </g>
    <g id="xtick_3">
     <g id="line2d_5">
      <path d="M 395.273069 604.8 
L 395.273069 7.2 
" clip-path="url(#p5bfaad42a5)" style="fill: none; stroke: #b0b0b0; stroke-width: 0.8; stroke-linecap: square"/>
     </g>
     <g id="line2d_6">
      <g>
       <use xlink:href="#m1b3e9b8859" x="395.273069" y="604.8" style="stroke: #000000; stroke-width: 0.8"/>
      </g>
     </g>
     <g id="text_3">
      <!-- $\mathdefault{0.50}$ -->
      <g transform="translate(362.439347 640.974009) scale(0.4 -0.4)">
       <use xlink:href="#CMR17-30" transform="scale(0.996264)"/>
       <use xlink:href="#CMMI12-3a" transform="translate(45.690477 0) scale(0.996264)"/>
       <use xlink:href="#CMR17-35" transform="translate(72.787654 0) scale(0.996264)"/>
       <use xlink:href="#CMR17-30" transform="translate(118.478131 0) scale(0.996264)"/>
      </g>
     </g>
    </g>
    <g id="xtick_4">
     <g id="line2d_7">
      <path d="M 525.473069 604.8 
L 525.473069 7.2 
" clip-path="url(#p5bfaad42a5)" style="fill: none; stroke: #b0b0b0; stroke-width: 0.8; stroke-linecap: square"/>
     </g>
     <g id="line2d_8">
      <g>
       <use xlink:href="#m1b3e9b8859" x="525.473069" y="604.8" style="stroke: #000000; stroke-width: 0.8"/>
      </g>
     </g>
     <g id="text_4">
      <!-- $\mathdefault{0.75}$ -->
      <g transform="translate(492.639347 640.974009) scale(0.4 -0.4)">
       <defs>
        <path id="CMR17-37" d="M 2886 3941 
L 2886 4081 
L 1382 4081 
C 634 4081 621 4165 595 4288 
L 480 4288 
L 294 3094 
L 410 3094 
C 429 3215 474 3540 550 3661 
C 589 3712 1062 3712 1171 3712 
L 2579 3712 
L 1869 2661 
C 1395 1954 1069 999 1069 165 
C 1069 89 1069 -128 1299 -128 
C 1530 -128 1530 89 1530 171 
L 1530 465 
C 1530 1508 1709 2196 2003 2636 
L 2886 3941 
z
" transform="scale(0.015625)"/>
       </defs>
       <use xlink:href="#CMR17-30" transform="scale(0.996264)"/>
       <use xlink:href="#CMMI12-3a" transform="translate(45.690477 0) scale(0.996264)"/>
       <use xlink:href="#CMR17-37" transform="translate(72.787654 0) scale(0.996264)"/>
       <use xlink:href="#CMR17-35" transform="translate(118.478131 0) scale(0.996264)"/>
      </g>
     </g>
    </g>
    <g id="xtick_5">
     <g id="line2d_9">
      <path d="M 655.673069 604.8 
L 655.673069 7.2 
" clip-path="url(#p5bfaad42a5)" style="fill: none; stroke: #b0b0b0; stroke-width: 0.8; stroke-linecap: square"/>
     </g>
     <g id="line2d_10">
      <g>
       <use xlink:href="#m1b3e9b8859" x="655.673069" y="604.8" style="stroke: #000000; stroke-width: 0.8"/>
      </g>
     </g>
     <g id="text_5">
      <!-- $\mathdefault{1.00}$ -->
      <g transform="translate(622.839347 640.974009) scale(0.4 -0.4)">
       <defs>
        <path id="CMR17-31" d="M 1702 4058 
C 1702 4192 1696 4192 1606 4192 
C 1357 3916 979 3827 621 3827 
C 602 3827 570 3827 563 3808 
C 557 3795 557 3782 557 3648 
C 755 3648 1088 3686 1344 3839 
L 1344 461 
C 1344 236 1331 160 781 160 
L 589 160 
L 589 0 
C 896 0 1216 0 1523 0 
C 1830 0 2150 0 2458 0 
L 2458 160 
L 2266 160 
C 1715 160 1702 230 1702 458 
L 1702 4058 
z
" transform="scale(0.015625)"/>
       </defs>
       <use xlink:href="#CMR17-31" transform="scale(0.996264)"/>
       <use xlink:href="#CMMI12-3a" transform="translate(45.690477 0) scale(0.996264)"/>
       <use xlink:href="#CMR17-30" transform="translate(72.787654 0) scale(0.996264)"/>
       <use xlink:href="#CMR17-30" transform="translate(118.478131 0) scale(0.996264)"/>
      </g>
     </g>
    </g>
    <g id="xtick_6">
     <g id="line2d_11">
      <path d="M 785.873069 604.8 
L 785.873069 7.2 
" clip-path="url(#p5bfaad42a5)" style="fill: none; stroke: #b0b0b0; stroke-width: 0.8; stroke-linecap: square"/>
     </g>
     <g id="line2d_12">
      <g>
       <use xlink:href="#m1b3e9b8859" x="785.873069" y="604.8" style="stroke: #000000; stroke-width: 0.8"/>
      </g>
     </g>
     <g id="text_6">
      <!-- $\mathdefault{1.25}$ -->
      <g transform="translate(753.039347 640.974009) scale(0.4 -0.4)">
       <use xlink:href="#CMR17-31" transform="scale(0.996264)"/>
       <use xlink:href="#CMMI12-3a" transform="translate(45.690477 0) scale(0.996264)"/>
       <use xlink:href="#CMR17-32" transform="translate(72.787654 0) scale(0.996264)"/>
       <use xlink:href="#CMR17-35" transform="translate(118.478131 0) scale(0.996264)"/>
      </g>
     </g>
    </g>
    <g id="xtick_7">
     <g id="line2d_13">
      <path d="M 916.073069 604.8 
L 916.073069 7.2 
" clip-path="url(#p5bfaad42a5)" style="fill: none; stroke: #b0b0b0; stroke-width: 0.8; stroke-linecap: square"/>
     </g>
     <g id="line2d_14">
      <g>
       <use xlink:href="#m1b3e9b8859" x="916.073069" y="604.8" style="stroke: #000000; stroke-width: 0.8"/>
      </g>
     </g>
     <g id="text_7">
      <!-- $\mathdefault{1.50}$ -->
      <g transform="translate(883.239347 640.974009) scale(0.4 -0.4)">
       <use xlink:href="#CMR17-31" transform="scale(0.996264)"/>
       <use xlink:href="#CMMI12-3a" transform="translate(45.690477 0) scale(0.996264)"/>
       <use xlink:href="#CMR17-35" transform="translate(72.787654 0) scale(0.996264)"/>
       <use xlink:href="#CMR17-30" transform="translate(118.478131 0) scale(0.996264)"/>
      </g>
     </g>
    </g>
    <g id="text_8">
     <!-- $\Delta t\:\unit{[\s]}$ -->
     <g transform="translate(470.515942 706.040331) scale(0.5 -0.5)">
      <defs>
       <path id="CMR17-1" d="M 2598 4403 
C 2547 4512 2522 4512 2470 4512 
C 2394 4512 2387 4499 2342 4409 
L 269 109 
C 262 96 237 38 237 32 
C 237 6 243 0 358 0 
L 4576 0 
C 4691 0 4698 6 4698 32 
C 4698 38 4672 96 4666 109 
L 2598 4403 
z
M 2310 4038 
L 4083 358 
L 531 358 
L 2310 4038 
z
" transform="scale(0.015625)"/>
       <path id="CMMI12-74" d="M 1286 2566 
L 1875 2566 
C 1997 2566 2061 2566 2061 2681 
C 2061 2752 2022 2752 1894 2752 
L 1331 2752 
L 1568 3692 
C 1594 3781 1594 3794 1594 3840 
C 1594 3943 1510 4000 1427 4000 
C 1376 4000 1229 3981 1178 3775 
L 928 2752 
L 326 2752 
C 198 2752 141 2752 141 2630 
C 141 2566 186 2566 307 2566 
L 877 2566 
L 454 881 
C 403 658 384 594 384 511 
C 384 211 595 -64 954 -64 
C 1600 -64 1946 868 1946 912 
C 1946 951 1920 970 1882 970 
C 1869 970 1843 970 1830 944 
C 1824 938 1818 931 1773 829 
C 1638 511 1344 64 973 64 
C 781 64 768 224 768 364 
C 768 370 768 492 787 568 
L 1286 2566 
z
" transform="scale(0.015625)"/>
       <path id="CMR17-5b" d="M 1504 -1600 
L 1504 -1377 
L 902 -1377 
L 902 4544 
L 1504 4544 
L 1504 4767 
L 678 4767 
L 678 -1600 
L 1504 -1600 
z
" transform="scale(0.015625)"/>
       <path id="CMR17-73" d="M 1978 2697 
C 1978 2813 1971 2819 1933 2819 
C 1907 2819 1901 2813 1824 2717 
C 1805 2691 1747 2626 1728 2601 
C 1523 2819 1235 2819 1126 2819 
C 416 2819 160 2447 160 2076 
C 160 1498 813 1365 998 1325 
C 1402 1243 1542 1217 1677 1101 
C 1760 1025 1901 884 1901 654 
C 1901 384 1747 38 1158 38 
C 602 38 403 460 288 1021 
C 269 1110 269 1117 218 1117 
C 166 1117 160 1110 160 983 
L 160 63 
C 160 -51 166 -58 205 -58 
C 237 -58 243 -51 275 0 
C 314 57 410 211 448 276 
C 576 103 800 -64 1158 -64 
C 1792 -64 2131 283 2131 784 
C 2131 1112 1958 1285 1875 1362 
C 1683 1561 1459 1606 1190 1657 
C 838 1735 390 1825 390 2217 
C 390 2383 480 2737 1126 2737 
C 1811 2737 1850 2094 1862 1888 
C 1869 1856 1901 1849 1920 1849 
C 1978 1849 1978 1869 1978 1978 
L 1978 2697 
z
" transform="scale(0.015625)"/>
       <path id="CMR17-5d" d="M 915 4767 
L 90 4767 
L 90 4544 
L 691 4544 
L 691 -1377 
L 90 -1377 
L 90 -1600 
L 915 -1600 
L 915 4767 
z
" transform="scale(0.015625)"/>
      </defs>
      <use xlink:href="#CMR17-1" transform="scale(0.996264)"/>
      <use xlink:href="#CMMI12-74" transform="translate(76.91959 0) scale(0.996264)"/>
      <use xlink:href="#CMR17-5b" transform="translate(134.285127 0) scale(0.996264)"/>
      <use xlink:href="#CMR17-73" transform="translate(159.156186 0) scale(0.996264)"/>
      <use xlink:href="#CMR17-5d" transform="translate(194.957523 0) scale(0.996264)"/>
     </g>
    </g>
    <g id="text_9">
     <!-- $\times\mathdefault{10^{−2}}\mathdefault{}$ -->
     <g transform="translate(814.03603 679.737965) scale(0.4 -0.4)">
      <defs>
       <path id="CMSY10-2" d="M 2490 1785 
L 1210 3059 
C 1133 3136 1120 3148 1069 3148 
C 1005 3148 941 3091 941 3020 
C 941 2976 954 2963 1024 2892 
L 2304 1606 
L 1024 320 
C 954 249 941 236 941 192 
C 941 121 1005 64 1069 64 
C 1120 64 1133 76 1210 153 
L 2483 1427 
L 3808 102 
C 3821 96 3866 64 3904 64 
C 3981 64 4032 121 4032 192 
C 4032 204 4032 230 4013 262 
C 4006 275 2989 1280 2669 1606 
L 3840 2777 
C 3872 2816 3968 2899 4000 2937 
C 4006 2950 4032 2976 4032 3020 
C 4032 3091 3981 3148 3904 3148 
C 3853 3148 3827 3123 3757 3052 
L 2490 1785 
z
" transform="scale(0.015625)"/>
       <path id="CMSY10-0" d="M 4218 1472 
C 4326 1472 4442 1472 4442 1600 
C 4442 1728 4326 1728 4218 1728 
L 755 1728 
C 646 1728 531 1728 531 1600 
C 531 1472 646 1472 755 1472 
L 4218 1472 
z
" transform="scale(0.015625)"/>
      </defs>
      <use xlink:href="#CMSY10-2" transform="scale(0.996264)"/>
      <use xlink:href="#CMR17-31" transform="translate(77.487468 0) scale(0.996264)"/>
      <use xlink:href="#CMR17-30" transform="translate(123.177945 0) scale(0.996264)"/>
      <use xlink:href="#CMSY10-0" transform="translate(168.868422 36.153639) scale(0.697382)"/>
      <use xlink:href="#CMR17-32" transform="translate(223.109415 36.153639) scale(0.697382)"/>
     </g>
    </g>
   </g>
   <g id="matplotlib.axis_2">
    <g id="ytick_1">
     <g id="line2d_15">
      <path d="M 134.873069 499.390252 
L 916.073069 499.390252 
" clip-path="url(#p5bfaad42a5)" style="fill: none; stroke: #b0b0b0; stroke-width: 0.8; stroke-linecap: square"/>
     </g>
     <g id="line2d_16">
      <defs>
       <path id="m9201eee01b" d="M 0 0 
L -3.5 0 
" style="stroke: #000000; stroke-width: 0.8"/>
      </defs>
      <g>
       <use xlink:href="#m9201eee01b" x="134.873069" y="499.390252" style="stroke: #000000; stroke-width: 0.8"/>
      </g>
     </g>
     <g id="text_10">
      <!-- $\mathdefault{−4}$ -->
      <g transform="translate(77.101888 513.227256) scale(0.4 -0.4)">
       <defs>
        <path id="CMR17-34" d="M 2150 4122 
C 2150 4256 2144 4256 2029 4256 
L 128 1254 
L 128 1088 
L 1779 1088 
L 1779 457 
C 1779 224 1766 160 1318 160 
L 1197 160 
L 1197 0 
C 1402 0 1747 0 1965 0 
C 2182 0 2528 0 2733 0 
L 2733 160 
L 2611 160 
C 2163 160 2150 224 2150 457 
L 2150 1088 
L 2803 1088 
L 2803 1254 
L 2150 1254 
L 2150 4122 
z
M 1798 3703 
L 1798 1254 
L 256 1254 
L 1798 3703 
z
" transform="scale(0.015625)"/>
       </defs>
       <use xlink:href="#CMSY10-0" transform="scale(0.996264)"/>
       <use xlink:href="#CMR17-34" transform="translate(77.487468 0) scale(0.996264)"/>
      </g>
     </g>
    </g>
    <g id="ytick_2">
     <g id="line2d_17">
      <path d="M 134.873069 390.549871 
L 916.073069 390.549871 
" clip-path="url(#p5bfaad42a5)" style="fill: none; stroke: #b0b0b0; stroke-width: 0.8; stroke-linecap: square"/>
     </g>
     <g id="line2d_18">
      <g>
       <use xlink:href="#m9201eee01b" x="134.873069" y="390.549871" style="stroke: #000000; stroke-width: 0.8"/>
      </g>
     </g>
     <g id="text_11">
      <!-- $\mathdefault{−2}$ -->
      <g transform="translate(77.101888 404.386875) scale(0.4 -0.4)">
       <use xlink:href="#CMSY10-0" transform="scale(0.996264)"/>
       <use xlink:href="#CMR17-32" transform="translate(77.487468 0) scale(0.996264)"/>
      </g>
     </g>
    </g>
    <g id="ytick_3">
     <g id="line2d_19">
      <path d="M 134.873069 281.70949 
L 916.073069 281.70949 
" clip-path="url(#p5bfaad42a5)" style="fill: none; stroke: #b0b0b0; stroke-width: 0.8; stroke-linecap: square"/>
     </g>
     <g id="line2d_20">
      <g>
       <use xlink:href="#m9201eee01b" x="134.873069" y="281.70949" style="stroke: #000000; stroke-width: 0.8"/>
      </g>
     </g>
     <g id="text_12">
      <!-- $\mathdefault{0}$ -->
      <g transform="translate(108.096878 295.546495) scale(0.4 -0.4)">
       <use xlink:href="#CMR17-30" transform="scale(0.996264)"/>
      </g>
     </g>
    </g>
    <g id="ytick_4">
     <g id="line2d_21">
      <path d="M 134.873069 172.86911 
L 916.073069 172.86911 
" clip-path="url(#p5bfaad42a5)" style="fill: none; stroke: #b0b0b0; stroke-width: 0.8; stroke-linecap: square"/>
     </g>
     <g id="line2d_22">
      <g>
       <use xlink:href="#m9201eee01b" x="134.873069" y="172.86911" style="stroke: #000000; stroke-width: 0.8"/>
      </g>
     </g>
     <g id="text_13">
      <!-- $\mathdefault{2}$ -->
      <g transform="translate(108.096878 186.706114) scale(0.4 -0.4)">
       <use xlink:href="#CMR17-32" transform="scale(0.996264)"/>
      </g>
     </g>
    </g>
    <g id="ytick_5">
     <g id="line2d_23">
      <path d="M 134.873069 64.028729 
L 916.073069 64.028729 
" clip-path="url(#p5bfaad42a5)" style="fill: none; stroke: #b0b0b0; stroke-width: 0.8; stroke-linecap: square"/>
     </g>
     <g id="line2d_24">
      <g>
       <use xlink:href="#m9201eee01b" x="134.873069" y="64.028729" style="stroke: #000000; stroke-width: 0.8"/>
      </g>
     </g>
     <g id="text_14">
      <!-- $\mathdefault{4}$ -->
      <g transform="translate(108.096878 77.865733) scale(0.4 -0.4)">
       <use xlink:href="#CMR17-34" transform="scale(0.996264)"/>
      </g>
     </g>
    </g>
    <g id="text_15">
     <!-- $u^\prime\:\unit{[\m/\s]}$ -->
     <g transform="translate(44.648588 383.267908) rotate(-90) scale(0.5 -0.5)">
      <defs>
       <path id="CMMI12-75" d="M 2182 370 
C 2266 13 2573 -64 2726 -64 
C 2931 -64 3085 70 3187 287 
C 3296 517 3379 894 3379 913 
C 3379 945 3354 971 3315 971 
C 3258 971 3251 939 3226 843 
C 3110 402 2995 64 2739 64 
C 2547 64 2547 275 2547 358 
C 2547 505 2566 568 2630 837 
C 2675 1009 2720 1181 2758 1360 
L 3021 2401 
C 3066 2561 3066 2574 3066 2593 
C 3066 2689 2989 2753 2893 2753 
C 2707 2753 2662 2593 2624 2433 
C 2560 2184 2214 811 2170 588 
C 2163 588 1914 64 1446 64 
C 1114 64 1050 351 1050 588 
C 1050 952 1229 1462 1395 1890 
C 1472 2095 1504 2178 1504 2305 
C 1504 2580 1306 2816 998 2816 
C 410 2816 173 1890 173 1839 
C 173 1814 198 1782 243 1782 
C 301 1782 307 1807 333 1896 
C 486 2441 736 2682 979 2682 
C 1043 2682 1146 2682 1146 2478 
C 1146 2312 1075 2127 979 1884 
C 698 1124 666 881 666 690 
C 666 38 1158 -64 1421 -64 
C 1830 -64 2054 217 2182 370 
z
" transform="scale(0.015625)"/>
       <path id="CMSY10-30" d="M 1619 3040 
C 1651 3117 1677 3174 1677 3238 
C 1677 3424 1510 3578 1312 3578 
C 1133 3578 1018 3456 973 3290 
L 211 493 
C 211 480 186 410 186 403 
C 186 333 352 288 403 288 
C 442 288 448 307 486 390 
L 1619 3040 
z
" transform="scale(0.015625)"/>
       <path id="CMR17-6d" d="M 4326 1933 
C 4326 2252 4269 2790 3507 2790 
C 3072 2790 2771 2496 2656 2151 
L 2650 2151 
C 2573 2676 2195 2790 1837 2790 
C 1331 2790 1069 2400 973 2144 
L 966 2144 
L 966 2790 
L 211 2720 
L 211 2554 
C 589 2554 646 2515 646 2208 
L 646 428 
C 646 184 621 153 211 153 
L 211 -13 
C 365 0 646 0 813 0 
C 979 0 1267 0 1421 -13 
L 1421 153 
C 1011 153 986 178 986 428 
L 986 1658 
C 986 2247 1344 2688 1792 2688 
C 2266 2688 2317 2266 2317 1958 
L 2317 428 
C 2317 184 2291 153 1882 153 
L 1882 -13 
C 2035 0 2317 0 2483 0 
C 2650 0 2938 0 3091 -13 
L 3091 153 
C 2682 153 2656 178 2656 428 
L 2656 1658 
C 2656 2247 3014 2688 3462 2688 
C 3936 2688 3987 2266 3987 1958 
L 3987 428 
C 3987 184 3962 153 3552 153 
L 3552 -13 
C 3706 0 3987 0 4154 0 
C 4320 0 4608 0 4762 -13 
L 4762 153 
C 4352 153 4326 178 4326 428 
L 4326 1933 
z
" transform="scale(0.015625)"/>
       <path id="CMMI12-3d" d="M 2746 4562 
C 2746 4569 2784 4666 2784 4678 
C 2784 4755 2720 4800 2669 4800 
C 2637 4800 2579 4800 2528 4659 
L 384 -1363 
C 384 -1370 346 -1465 346 -1478 
C 346 -1555 410 -1600 461 -1600 
C 499 -1600 557 -1593 602 -1459 
L 2746 4562 
z
" transform="scale(0.015625)"/>
      </defs>
      <use xlink:href="#CMMI12-75" transform="scale(0.996264)"/>
      <use xlink:href="#CMSY10-30" transform="translate(55.52033 36.153639) scale(0.697382)"/>
      <use xlink:href="#CMR17-5b" transform="translate(97.335629 0) scale(0.996264)"/>
      <use xlink:href="#CMR17-6d" transform="translate(122.206688 0) scale(0.996264)"/>
      <use xlink:href="#CMMI12-3d" transform="translate(199.126278 0) scale(0.996264)"/>
      <use xlink:href="#CMR17-73" transform="translate(247.901196 0) scale(0.996264)"/>
      <use xlink:href="#CMR17-5d" transform="translate(283.702534 0) scale(0.996264)"/>
     </g>
    </g>
   </g>
   <g id="line2d_25">
    <path d="M 134.873069 437.45822 
L 138.003077 454.540299 
L 139.044677 462.005111 
L 140.086277 474.882947 
L 143.190245 558.708798 
L 144.237053 561.905424 
L 145.278653 539.168592 
L 146.320253 503.449111 
L 148.408661 416.031347 
L 151.538669 326.187918 
L 152.580269 315.082488 
L 153.621869 321.762789 
L 154.663469 330.590473 
L 155.710277 345.822815 
L 156.751877 347.976581 
L 157.793477 337.152079 
L 159.855845 301.566918 
L 161.944253 242.970663 
L 162.985853 228.343719 
L 164.027453 235.685166 
L 167.157461 287.842657 
L 169.240661 310.600223 
L 170.287469 317.31488 
L 171.329069 319.541662 
L 172.370669 323.978104 
L 176.542277 358.663128 
L 177.563045 365.009459 
L 178.604645 379.628567 
L 181.734653 439.376047 
L 182.776253 454.540299 
L 183.817853 467.552868 
L 184.864661 478.51926 
L 185.906261 492.876585 
L 186.947861 496.41922 
L 189.036269 456.413806 
L 190.077869 427.794391 
L 191.119469 396.016499 
L 192.166277 381.6955 
L 193.207877 396.016499 
L 194.249477 423.893704 
L 195.270245 454.540299 
L 196.311845 469.392641 
L 197.353445 469.392641 
L 198.395045 467.552868 
L 199.441853 471.227428 
L 200.483453 467.552868 
L 202.571861 425.846513 
L 203.613461 414.053212 
L 204.655061 406.088615 
L 205.696661 400.060943 
L 206.743469 398.041344 
L 207.785069 400.060943 
L 208.826669 400.060943 
L 210.915077 379.628567 
L 211.956677 373.395479 
L 212.998277 365.009459 
L 214.019045 358.663128 
L 215.060645 350.124894 
L 217.149053 350.124894 
L 218.190653 358.663128 
L 219.232253 369.213239 
L 220.273853 377.556131 
L 221.320661 387.864698 
L 222.362261 393.986463 
L 223.403861 398.041344 
L 224.450669 404.084581 
L 225.492269 408.087507 
L 226.533869 414.053212 
L 228.622277 429.737181 
L 229.663877 435.535457 
L 230.705477 443.196655 
L 231.726245 456.413806 
L 232.767845 465.708426 
L 233.809445 469.392641 
L 234.851045 465.708426 
L 236.939453 439.376047 
L 239.027861 419.972724 
L 240.069461 412.069677 
L 241.111061 414.053212 
L 242.152661 418.004607 
L 243.199469 423.893704 
L 244.241069 425.846513 
L 245.282669 425.846513 
L 246.324269 429.737181 
L 247.371077 435.535457 
L 249.454277 450.778704 
L 251.516645 454.540299 
L 253.605053 450.778704 
L 254.646653 441.288792 
L 255.688253 437.45822 
L 256.729853 431.674943 
L 257.776661 427.794391 
L 258.818261 429.737181 
L 259.859861 427.794391 
L 260.901461 429.737181 
L 262.989869 441.288792 
L 264.031469 445.099642 
L 265.078277 446.99754 
L 266.119877 446.99754 
L 267.161477 443.196655 
L 268.182245 441.288792 
L 271.307045 441.288792 
L 273.395453 452.661964 
L 274.437053 463.859152 
L 275.483861 476.703411 
L 276.525461 485.735421 
L 277.567061 496.41922 
L 279.655469 506.936526 
L 280.697069 510.405726 
L 281.738669 518.999392 
L 282.780269 522.405323 
L 283.827077 529.163685 
L 284.868677 539.168592 
L 285.910277 550.642398 
L 286.931045 555.495101 
L 290.061053 540.820746 
L 291.102653 539.168592 
L 292.144253 534.185961 
L 293.185853 534.185961 
L 294.232661 532.516263 
L 295.274261 534.185961 
L 296.315861 544.111986 
L 298.404269 572.960978 
L 299.445869 577.636364 
L 300.487469 558.708798 
L 301.534277 537.512178 
L 302.575877 532.516263 
L 303.617477 537.512178 
L 304.659077 550.642398 
L 305.679845 560.309214 
L 306.721445 555.495101 
L 307.763045 532.516263 
L 308.809853 485.735421 
L 309.851453 419.972724 
L 311.934653 315.082488 
L 312.981461 235.685166 
L 314.023061 185.670747 
L 315.064661 190.787116 
L 316.111469 190.787116 
L 317.153069 175.360151 
L 318.194669 170.165564 
L 319.236269 172.766126 
L 320.283077 185.670747 
L 321.324677 177.947581 
L 322.366277 185.670747 
L 323.387045 245.386827 
L 324.428645 299.294151 
L 325.470245 343.663449 
L 326.517053 369.213239 
L 327.558653 341.498527 
L 328.600253 266.858123 
L 329.641853 205.981418 
L 330.688661 233.244192 
L 331.730261 310.600223 
L 332.771861 352.267706 
L 333.813461 352.267706 
L 335.901869 315.082488 
L 337.990277 301.566918 
L 339.031877 290.144642 
L 340.073477 283.220936 
L 341.115077 299.294151 
L 342.135845 330.590473 
L 343.177445 343.663449 
L 344.219045 352.267706 
L 345.265853 365.009459 
L 347.349053 385.813595 
L 348.390653 389.910461 
L 349.437461 383.757192 
L 350.479061 383.757192 
L 351.520661 408.087507 
L 352.567469 441.288792 
L 353.609069 439.376047 
L 354.650669 425.846513 
L 355.692269 446.99754 
L 356.739077 485.735421 
L 357.780677 503.449111 
L 358.822277 508.673384 
L 362.967845 515.575453 
L 364.014653 501.698555 
L 365.056253 474.882947 
L 366.097853 429.737181 
L 368.186261 299.294151 
L 369.227861 269.213565 
L 370.269461 278.57565 
L 371.316269 301.566918 
L 372.357869 315.082488 
L 373.399469 303.833872 
L 374.441069 250.200837 
L 375.487877 210.995139 
L 376.529477 218.467989 
L 377.571077 242.970663 
L 378.591845 245.386827 
L 379.633445 235.685166 
L 381.721853 250.200837 
L 382.763453 233.244192 
L 383.805053 205.981418 
L 384.846653 198.413175 
L 385.893461 223.418441 
L 386.935061 238.119806 
L 387.976661 233.244192 
L 389.023469 210.995139 
L 390.065069 164.944562 
L 391.106669 159.697144 
L 393.195077 235.685166 
L 394.236677 245.386827 
L 395.278277 247.796918 
L 396.299045 254.990293 
L 399.423845 290.144642 
L 400.470653 306.095167 
L 401.512253 319.541662 
L 402.553853 319.541662 
L 403.600661 312.844131 
L 404.642261 315.082488 
L 405.683861 326.187918 
L 406.725461 354.405015 
L 407.772269 391.951083 
L 408.813869 393.986463 
L 409.855469 367.114072 
L 410.897069 343.663449 
L 411.943877 330.590473 
L 412.985477 321.762789 
L 414.027077 319.541662 
L 415.047845 323.978104 
L 416.089445 330.590473 
L 417.131045 328.392023 
L 418.177853 330.590473 
L 420.261053 373.395479 
L 421.302653 367.114072 
L 422.349461 356.536768 
L 423.391061 354.405015 
L 424.432661 334.97045 
L 425.474261 294.731023 
L 426.521069 259.755624 
L 427.562669 257.376047 
L 428.604269 264.496662 
L 429.651077 262.129232 
L 430.692677 269.213565 
L 431.734277 294.731023 
L 432.755045 328.392023 
L 433.796645 354.405015 
L 435.879845 389.910461 
L 436.926653 408.087507 
L 439.009853 439.376047 
L 440.056661 443.196655 
L 441.098261 441.288792 
L 442.139861 445.099642 
L 443.181461 439.376047 
L 444.228269 429.737181 
L 445.269869 425.846513 
L 446.311469 416.031347 
L 447.353069 402.07536 
L 448.399877 391.951083 
L 449.441477 387.864698 
L 450.483077 389.910461 
L 451.503845 387.864698 
L 452.545445 389.910461 
L 453.587045 404.084581 
L 454.633853 431.674943 
L 457.758653 539.168592 
L 458.805461 553.881787 
L 459.847061 540.820746 
L 460.888661 506.936526 
L 462.977069 421.935758 
L 465.060269 352.267706 
L 466.107077 350.124894 
L 467.148677 358.663128 
L 468.190277 371.307055 
L 469.231877 381.6955 
L 470.252645 393.986463 
L 471.294245 404.084581 
L 472.335845 410.081213 
L 473.382653 412.069677 
L 474.424253 404.084581 
L 475.465853 398.041344 
L 476.507453 398.041344 
L 477.554261 387.864698 
L 478.595861 375.478505 
L 479.637461 375.478505 
L 480.684269 381.6955 
L 481.725869 383.757192 
L 482.767469 383.757192 
L 483.809069 391.951083 
L 484.855877 408.087507 
L 485.897477 427.794391 
L 487.959845 474.882947 
L 489.001445 483.938461 
L 490.043045 480.330435 
L 491.089853 474.882947 
L 493.173053 467.552868 
L 494.214653 462.005111 
L 495.261461 458.282438 
L 496.303061 458.282438 
L 497.344661 448.890612 
L 498.386261 441.288792 
L 499.433069 435.535457 
L 501.516269 443.196655 
L 502.563077 454.540299 
L 504.646277 489.315421 
L 505.687877 492.876585 
L 506.708645 492.876585 
L 507.750245 487.527701 
L 508.791845 471.227428 
L 509.838653 431.674943 
L 510.880253 373.395479 
L 511.921853 332.78321 
L 512.963453 299.294151 
L 514.010261 257.376047 
L 515.051861 228.343719 
L 516.093461 228.343719 
L 517.140269 223.418441 
L 518.181869 205.981418 
L 519.223469 175.360151 
L 520.265069 116.750716 
L 521.311877 89.016544 
L 522.353477 114.008673 
L 523.395077 133.059185 
L 524.415845 157.06368 
L 525.457445 172.766126 
L 526.499045 198.413175 
L 527.540645 218.467989 
L 528.587453 233.244192 
L 530.670653 242.970663 
L 531.717461 266.858123 
L 532.759061 301.566918 
L 533.800661 321.762789 
L 534.842261 330.590473 
L 535.889069 337.152079 
L 537.972269 328.392023 
L 539.013869 347.976581 
L 541.102277 431.674943 
L 542.143877 465.708426 
L 543.164645 456.413806 
L 544.206245 410.081213 
L 545.247845 371.307055 
L 546.294653 315.082488 
L 547.336253 276.244028 
L 548.377853 283.220936 
L 549.419453 301.566918 
L 550.466261 303.833872 
L 553.596269 290.144642 
L 554.637869 290.144642 
L 555.679469 297.015572 
L 556.721069 315.082488 
L 557.767877 339.328054 
L 558.809477 356.536768 
L 559.851077 365.009459 
L 560.871845 350.124894 
L 561.913445 326.187918 
L 562.955045 312.844131 
L 563.996645 319.541662 
L 566.085053 345.822815 
L 567.126653 367.114072 
L 570.256661 443.196655 
L 571.298261 471.227428 
L 573.386669 512.133502 
L 574.428269 527.480801 
L 575.469869 492.876585 
L 576.516677 429.737181 
L 577.558277 396.016499 
L 578.599877 389.910461 
L 579.620645 387.864698 
L 580.662245 379.628567 
L 581.703845 375.478505 
L 582.750653 379.628567 
L 583.792253 375.478505 
L 584.833853 365.009459 
L 585.875453 365.009459 
L 586.922261 379.628567 
L 587.963861 398.041344 
L 590.047061 418.004607 
L 591.093869 429.737181 
L 592.135469 439.376047 
L 593.177069 441.288792 
L 595.265477 437.45822 
L 596.307077 433.607719 
L 597.327845 441.288792 
L 598.369445 467.552868 
L 599.411045 505.195107 
L 600.452645 535.851252 
L 601.499453 552.264223 
L 602.541053 558.708798 
L 603.582653 560.309214 
L 604.629461 555.495101 
L 605.671061 539.168592 
L 606.712661 518.999392 
L 607.754261 489.315421 
L 608.801069 435.535457 
L 609.842669 396.016499 
L 610.884269 402.07536 
L 611.925869 418.004607 
L 612.972677 419.972724 
L 614.014277 402.07536 
L 615.055877 389.910461 
L 616.076645 396.016499 
L 618.159845 404.084581 
L 619.206653 404.084581 
L 622.331453 391.951083 
L 623.378261 389.910461 
L 624.419861 385.813595 
L 625.461461 383.757192 
L 626.503061 377.556131 
L 627.549869 373.395479 
L 628.591469 373.395479 
L 629.633069 377.556131 
L 630.679877 379.628567 
L 631.721477 375.478505 
L 632.763077 373.395479 
L 633.804677 373.395479 
L 635.867045 385.813595 
L 636.908645 389.910461 
L 637.955453 391.951083 
L 638.997053 402.07536 
L 640.038653 416.031347 
L 641.080253 433.607719 
L 642.127061 446.99754 
L 643.168661 448.890612 
L 646.298669 419.972724 
L 647.340269 416.031347 
L 648.381869 418.004607 
L 649.428677 421.935758 
L 650.470277 421.935758 
L 652.532645 414.053212 
L 654.615845 393.986463 
L 656.704253 381.6955 
L 657.745853 373.395479 
L 658.787453 362.899452 
L 659.834261 356.536768 
L 660.875861 354.405015 
L 661.917461 358.663128 
L 662.959061 356.536768 
L 665.047469 334.97045 
L 666.089069 328.392023 
L 667.135877 326.187918 
L 668.177477 321.762789 
L 670.260677 308.350547 
L 671.281445 308.350547 
L 672.323045 312.844131 
L 673.364645 323.978104 
L 675.453053 350.124894 
L 676.494653 365.009459 
L 677.536253 375.478505 
L 678.583061 379.628567 
L 679.624661 365.009459 
L 680.666261 343.663449 
L 681.713069 317.31488 
L 683.796269 271.563037 
L 685.884677 200.942375 
L 686.926277 205.981418 
L 687.967877 220.946328 
L 690.030245 159.697144 
L 691.071845 154.423262 
L 692.113445 162.324279 
L 693.160253 188.232224 
L 694.201853 188.232224 
L 696.290261 108.50363 
L 697.331861 116.750716 
L 698.373461 138.440607 
L 699.415061 149.122594 
L 701.503469 133.059185 
L 702.545069 154.423262 
L 703.586669 143.795042 
L 704.633477 94.619364 
L 705.675077 89.016544 
L 706.716677 114.008673 
L 707.737445 122.214345 
L 708.779045 119.485902 
L 709.820645 133.059185 
L 710.867453 135.753273 
L 711.909053 114.008673 
L 712.950653 102.970974 
L 713.992253 97.410292 
L 716.080661 43.16718 
L 717.122261 40.239863 
L 718.169069 48.999397 
L 719.210669 66.321877 
L 720.252269 91.821583 
L 721.293869 100.194162 
L 722.340677 105.740728 
L 723.382277 124.935676 
L 724.423877 116.750716 
L 725.444645 83.385692 
L 726.486245 63.452893 
L 727.527845 91.821583 
L 728.569445 149.122594 
L 729.616253 198.413175 
L 730.657853 228.343719 
L 732.746261 242.970663 
L 733.787861 238.119806 
L 734.829461 223.418441 
L 735.871061 228.343719 
L 736.917869 252.598678 
L 737.959469 262.129232 
L 739.001069 230.797095 
L 740.042669 220.946328 
L 742.131077 297.015572 
L 743.172677 303.833872 
L 744.193445 292.440766 
L 746.276645 245.386827 
L 747.323453 218.467989 
L 748.365053 183.102827 
L 749.406653 170.165564 
L 750.448253 177.947581 
L 751.495061 180.528475 
L 752.536661 210.995139 
L 753.578261 273.906495 
L 754.619861 306.095167 
L 755.666669 292.440766 
L 756.708269 242.970663 
L 757.749869 185.670747 
L 758.796677 193.335466 
L 759.838277 218.467989 
L 760.879877 180.528475 
L 761.900645 94.619364 
L 762.942245 48.999397 
L 763.983845 54.802554 
L 765.025445 83.385692 
L 766.072253 124.935676 
L 767.113853 151.776302 
L 768.155453 159.697144 
L 769.202261 154.423262 
L 770.243861 114.008673 
L 771.285461 66.321877 
L 772.327061 66.321877 
L 773.373869 72.038462 
L 774.415469 80.559472 
L 775.457069 111.259681 
L 776.498669 111.259681 
L 778.587077 34.363636 
L 779.628677 34.363636 
L 780.649445 57.693126 
L 781.691045 69.183802 
L 782.732645 69.183802 
L 783.779453 66.321877 
L 784.821053 66.321877 
L 785.862653 77.726297 
L 786.904253 86.204647 
L 787.951061 89.016544 
L 788.992661 94.619364 
L 790.034261 105.740728 
L 791.075861 108.50363 
L 792.122669 100.194162 
L 793.164269 100.194162 
L 794.205869 119.485902 
L 795.252677 133.059185 
L 796.294277 138.440607 
L 797.335877 133.059185 
L 798.377477 133.059185 
L 799.398245 124.935676 
L 800.439845 114.008673 
L 802.528253 86.204647 
L 803.569853 86.204647 
L 804.611453 80.559472 
L 805.653053 60.576645 
L 806.699861 51.904504 
L 807.741461 77.726297 
L 808.783061 97.410292 
L 809.829869 94.619364 
L 810.871469 74.885857 
L 811.913069 66.321877 
L 812.954669 83.385692 
L 814.001477 102.970974 
L 815.043077 111.259681 
L 816.084677 146.462192 
L 817.105445 188.232224 
L 818.147045 175.360151 
L 819.188645 138.440607 
L 820.235453 133.059185 
L 822.318653 198.413175 
L 823.360253 213.492367 
L 824.407061 220.946328 
L 825.448661 233.244192 
L 826.490261 240.548268 
L 827.531861 240.548268 
L 828.578669 247.796918 
L 829.620269 264.496662 
L 830.661869 308.350547 
L 832.750277 448.890612 
L 833.791877 474.882947 
L 834.833477 465.708426 
L 835.854245 445.099642 
L 836.895845 419.972724 
L 838.984253 321.762789 
L 840.025853 319.541662 
L 842.109053 367.114072 
L 843.155861 398.041344 
L 844.197461 423.893704 
L 845.239061 431.674943 
L 846.285869 425.846513 
L 847.327469 410.081213 
L 848.369069 389.910461 
L 849.410669 375.478505 
L 850.457477 375.478505 
L 851.499077 383.757192 
L 852.540677 389.910461 
L 853.561445 379.628567 
L 854.603045 360.784041 
L 855.644645 332.78321 
L 856.686245 299.294151 
L 857.733053 285.534757 
L 858.774653 266.858123 
L 859.816253 269.213565 
L 860.863061 280.901253 
L 861.904661 283.220936 
L 862.946261 297.015572 
L 863.987861 323.978104 
L 866.076269 369.213239 
L 867.117869 385.813595 
L 868.159469 398.041344 
L 869.206277 406.088615 
L 870.247877 412.069677 
L 871.289477 419.972724 
L 872.310245 425.846513 
L 873.351845 435.535457 
L 874.393445 441.288792 
L 875.440253 439.376047 
L 876.481853 435.535457 
L 877.523453 429.737181 
L 878.565053 429.737181 
L 879.611861 421.935758 
L 880.653461 396.016499 
L 881.695061 352.267706 
L 882.741869 294.731023 
L 883.783469 247.796918 
L 884.825069 235.685166 
L 885.866669 225.884275 
L 886.913477 198.413175 
L 887.955077 141.121302 
L 888.996677 74.885857 
L 890.017445 63.452893 
L 891.059045 94.619364 
L 892.100645 108.50363 
L 894.189053 102.970974 
L 895.230653 91.821583 
L 896.272253 83.385692 
L 897.319061 97.410292 
L 899.402261 183.102827 
L 900.443861 210.995139 
L 902.532269 262.129232 
L 903.573869 287.842657 
L 904.615469 308.350547 
L 905.662277 323.978104 
L 908.766245 375.478505 
L 909.807845 387.864698 
L 910.849445 393.986463 
L 911.896253 404.084581 
L 912.937853 421.935758 
L 913.979453 456.413806 
L 915.021053 499.943428 
L 916.067861 527.480801 
L 917.109461 525.793405 
L 917.109461 525.793405 
" clip-path="url(#p5bfaad42a5)" style="fill: none; stroke: #000000; stroke-width: 1.2; stroke-linecap: square"/>
   </g>
   <g id="patch_3">
    <path d="M 134.873069 604.8 
L 134.873069 7.2 
" style="fill: none; stroke: #000000; stroke-width: 0.8; stroke-linejoin: miter; stroke-linecap: square"/>
   </g>
   <g id="patch_4">
    <path d="M 916.073069 604.8 
L 916.073069 7.2 
" style="fill: none; stroke: #000000; stroke-width: 0.8; stroke-linejoin: miter; stroke-linecap: square"/>
   </g>
   <g id="patch_5">
    <path d="M 134.873069 604.8 
L 916.073069 604.8 
" style="fill: none; stroke: #000000; stroke-width: 0.8; stroke-linejoin: miter; stroke-linecap: square"/>
   </g>
   <g id="patch_6">
    <path d="M 134.873069 7.2 
L 916.073069 7.2 
" style="fill: none; stroke: #000000; stroke-width: 0.8; stroke-linejoin: miter; stroke-linecap: square"/>
   </g>
  </g>
 </g>
 <defs>
  <clipPath id="p5bfaad42a5">
   <rect x="134.873069" y="7.2" width="781.2" height="597.6"/>
  </clipPath>
 </defs>
</svg>
