<?xml version="1.0" encoding="utf-8" standalone="no"?>
<!DOCTYPE svg PUBLIC "-//W3C//DTD SVG 1.1//EN"
  "http://www.w3.org/Graphics/SVG/1.1/DTD/svg11.dtd">
<svg xmlns:xlink="http://www.w3.org/1999/xlink" width="985.221852pt" height="725.651963pt" viewBox="0 0 985.221852 725.651963" xmlns="http://www.w3.org/2000/svg" version="1.1">
 <metadata>
  <rdf:RDF xmlns:dc="http://purl.org/dc/elements/1.1/" xmlns:cc="http://creativecommons.org/ns#" xmlns:rdf="http://www.w3.org/1999/02/22-rdf-syntax-ns#">
   <cc:Work>
    <dc:type rdf:resource="http://purl.org/dc/dcmitype/StillImage"/>
    <dc:date>2024-11-28T19:57:52.515529</dc:date>
    <dc:format>image/svg+xml</dc:format>
    <dc:creator>
     <cc:Agent>
      <dc:title>Matplotlib v3.9.2, https://matplotlib.org/</dc:title>
     </cc:Agent>
    </dc:creator>
   </cc:Work>
  </rdf:RDF>
 </metadata>
 <defs>
  <style type="text/css">*{stroke-linejoin: round; stroke-linecap: butt}</style>
 </defs>
 <g id="figure_1">
  <g id="patch_1">
   <path d="M 0 725.651963 
L 985.221852 725.651963 
L 985.221852 -0 
L 0 -0 
z
" style="fill: #ffffff"/>
  </g>
  <g id="axes_1">
   <g id="patch_2">
    <path d="M 163.98813 604.8 
L 945.18813 604.8 
L 945.18813 7.2 
L 163.98813 7.2 
z
" style="fill: #ffffff"/>
   </g>
   <g id="matplotlib.axis_1">
    <g id="xtick_1">
     <g id="line2d_1">
      <path d="M 163.98813 604.8 
L 163.98813 7.2 
" clip-path="url(#p00a9cf11f1)" style="fill: none; stroke: #b0b0b0; stroke-width: 0.8; stroke-linecap: square"/>
     </g>
     <g id="line2d_2">
      <defs>
       <path id="m02c77a36fe" d="M 0 0 
L 0 3.5 
" style="stroke: #000000; stroke-width: 0.8"/>
      </defs>
      <g>
       <use xlink:href="#m02c77a36fe" x="163.98813" y="604.8" style="stroke: #000000; stroke-width: 0.8"/>
      </g>
     </g>
     <g id="text_1">
      <!-- $\mathdefault{0.00}$ -->
      <g transform="translate(131.154409 640.974009) scale(0.4 -0.4)">
       <defs>
        <path id="CMR17-30" d="M 2688 2025 
C 2688 2416 2682 3080 2413 3591 
C 2176 4039 1798 4198 1466 4198 
C 1158 4198 768 4058 525 3597 
C 269 3118 243 2524 243 2025 
C 243 1661 250 1106 448 619 
C 723 -39 1216 -128 1466 -128 
C 1760 -128 2208 -7 2470 600 
C 2662 1042 2688 1559 2688 2025 
z
M 1466 -26 
C 1056 -26 813 325 723 812 
C 653 1188 653 1738 653 2096 
C 653 2588 653 2997 736 3387 
C 858 3929 1216 4096 1466 4096 
C 1728 4096 2067 3923 2189 3400 
C 2272 3036 2278 2607 2278 2096 
C 2278 1680 2278 1169 2202 792 
C 2067 95 1690 -26 1466 -26 
z
" transform="scale(0.015625)"/>
        <path id="CMMI12-3a" d="M 1178 307 
C 1178 492 1024 619 870 619 
C 685 619 557 466 557 313 
C 557 128 710 0 864 0 
C 1050 0 1178 153 1178 307 
z
" transform="scale(0.015625)"/>
       </defs>
       <use xlink:href="#CMR17-30" transform="scale(0.996264)"/>
       <use xlink:href="#CMMI12-3a" transform="translate(45.690477 0) scale(0.996264)"/>
       <use xlink:href="#CMR17-30" transform="translate(72.787654 0) scale(0.996264)"/>
       <use xlink:href="#CMR17-30" transform="translate(118.478131 0) scale(0.996264)"/>
      </g>
     </g>
    </g>
    <g id="xtick_2">
     <g id="line2d_3">
      <path d="M 294.18813 604.8 
L 294.18813 7.2 
" clip-path="url(#p00a9cf11f1)" style="fill: none; stroke: #b0b0b0; stroke-width: 0.8; stroke-linecap: square"/>
     </g>
     <g id="line2d_4">
      <g>
       <use xlink:href="#m02c77a36fe" x="294.18813" y="604.8" style="stroke: #000000; stroke-width: 0.8"/>
      </g>
     </g>
     <g id="text_2">
      <!-- $\mathdefault{0.25}$ -->
      <g transform="translate(261.354409 640.974009) scale(0.4 -0.4)">
       <defs>
        <path id="CMR17-32" d="M 2669 989 
L 2554 989 
C 2490 536 2438 459 2413 420 
C 2381 369 1920 369 1830 369 
L 602 369 
C 832 619 1280 1072 1824 1597 
C 2214 1967 2669 2402 2669 3035 
C 2669 3790 2067 4224 1395 4224 
C 691 4224 262 3604 262 3030 
C 262 2780 448 2748 525 2748 
C 589 2748 781 2787 781 3010 
C 781 3207 614 3264 525 3264 
C 486 3264 448 3258 422 3245 
C 544 3790 915 4058 1306 4058 
C 1862 4058 2227 3617 2227 3035 
C 2227 2479 1901 2000 1536 1584 
L 262 146 
L 262 0 
L 2515 0 
L 2669 989 
z
" transform="scale(0.015625)"/>
        <path id="CMR17-35" d="M 730 3692 
C 794 3666 1056 3584 1325 3584 
C 1920 3584 2246 3911 2432 4100 
C 2432 4157 2432 4192 2394 4192 
C 2387 4192 2374 4192 2323 4163 
C 2099 4058 1837 3973 1517 3973 
C 1325 3973 1037 3999 723 4139 
C 653 4171 640 4171 634 4171 
C 602 4171 595 4164 595 4037 
L 595 2203 
C 595 2089 595 2057 659 2057 
C 691 2057 704 2070 736 2114 
C 941 2401 1222 2522 1542 2522 
C 1766 2522 2246 2382 2246 1289 
C 2246 1085 2246 715 2054 421 
C 1894 159 1645 25 1370 25 
C 947 25 518 320 403 814 
C 429 807 480 795 506 795 
C 589 795 749 840 749 1038 
C 749 1210 627 1280 506 1280 
C 358 1280 262 1190 262 1011 
C 262 454 704 -128 1382 -128 
C 2042 -128 2669 440 2669 1264 
C 2669 2030 2170 2624 1549 2624 
C 1222 2624 947 2503 730 2274 
L 730 3692 
z
" transform="scale(0.015625)"/>
       </defs>
       <use xlink:href="#CMR17-30" transform="scale(0.996264)"/>
       <use xlink:href="#CMMI12-3a" transform="translate(45.690477 0) scale(0.996264)"/>
       <use xlink:href="#CMR17-32" transform="translate(72.787654 0) scale(0.996264)"/>
       <use xlink:href="#CMR17-35" transform="translate(118.478131 0) scale(0.996264)"/>
      </g>
     </g>
    </g>
    <g id="xtick_3">
     <g id="line2d_5">
      <path d="M 424.38813 604.8 
L 424.38813 7.2 
" clip-path="url(#p00a9cf11f1)" style="fill: none; stroke: #b0b0b0; stroke-width: 0.8; stroke-linecap: square"/>
     </g>
     <g id="line2d_6">
      <g>
       <use xlink:href="#m02c77a36fe" x="424.38813" y="604.8" style="stroke: #000000; stroke-width: 0.8"/>
      </g>
     </g>
     <g id="text_3">
      <!-- $\mathdefault{0.50}$ -->
      <g transform="translate(391.554409 640.974009) scale(0.4 -0.4)">
       <use xlink:href="#CMR17-30" transform="scale(0.996264)"/>
       <use xlink:href="#CMMI12-3a" transform="translate(45.690477 0) scale(0.996264)"/>
       <use xlink:href="#CMR17-35" transform="translate(72.787654 0) scale(0.996264)"/>
       <use xlink:href="#CMR17-30" transform="translate(118.478131 0) scale(0.996264)"/>
      </g>
     </g>
    </g>
    <g id="xtick_4">
     <g id="line2d_7">
      <path d="M 554.58813 604.8 
L 554.58813 7.2 
" clip-path="url(#p00a9cf11f1)" style="fill: none; stroke: #b0b0b0; stroke-width: 0.8; stroke-linecap: square"/>
     </g>
     <g id="line2d_8">
      <g>
       <use xlink:href="#m02c77a36fe" x="554.58813" y="604.8" style="stroke: #000000; stroke-width: 0.8"/>
      </g>
     </g>
     <g id="text_4">
      <!-- $\mathdefault{0.75}$ -->
      <g transform="translate(521.754409 640.974009) scale(0.4 -0.4)">
       <defs>
        <path id="CMR17-37" d="M 2886 3941 
L 2886 4081 
L 1382 4081 
C 634 4081 621 4165 595 4288 
L 480 4288 
L 294 3094 
L 410 3094 
C 429 3215 474 3540 550 3661 
C 589 3712 1062 3712 1171 3712 
L 2579 3712 
L 1869 2661 
C 1395 1954 1069 999 1069 165 
C 1069 89 1069 -128 1299 -128 
C 1530 -128 1530 89 1530 171 
L 1530 465 
C 1530 1508 1709 2196 2003 2636 
L 2886 3941 
z
" transform="scale(0.015625)"/>
       </defs>
       <use xlink:href="#CMR17-30" transform="scale(0.996264)"/>
       <use xlink:href="#CMMI12-3a" transform="translate(45.690477 0) scale(0.996264)"/>
       <use xlink:href="#CMR17-37" transform="translate(72.787654 0) scale(0.996264)"/>
       <use xlink:href="#CMR17-35" transform="translate(118.478131 0) scale(0.996264)"/>
      </g>
     </g>
    </g>
    <g id="xtick_5">
     <g id="line2d_9">
      <path d="M 684.78813 604.8 
L 684.78813 7.2 
" clip-path="url(#p00a9cf11f1)" style="fill: none; stroke: #b0b0b0; stroke-width: 0.8; stroke-linecap: square"/>
     </g>
     <g id="line2d_10">
      <g>
       <use xlink:href="#m02c77a36fe" x="684.78813" y="604.8" style="stroke: #000000; stroke-width: 0.8"/>
      </g>
     </g>
     <g id="text_5">
      <!-- $\mathdefault{1.00}$ -->
      <g transform="translate(651.954409 640.974009) scale(0.4 -0.4)">
       <defs>
        <path id="CMR17-31" d="M 1702 4058 
C 1702 4192 1696 4192 1606 4192 
C 1357 3916 979 3827 621 3827 
C 602 3827 570 3827 563 3808 
C 557 3795 557 3782 557 3648 
C 755 3648 1088 3686 1344 3839 
L 1344 461 
C 1344 236 1331 160 781 160 
L 589 160 
L 589 0 
C 896 0 1216 0 1523 0 
C 1830 0 2150 0 2458 0 
L 2458 160 
L 2266 160 
C 1715 160 1702 230 1702 458 
L 1702 4058 
z
" transform="scale(0.015625)"/>
       </defs>
       <use xlink:href="#CMR17-31" transform="scale(0.996264)"/>
       <use xlink:href="#CMMI12-3a" transform="translate(45.690477 0) scale(0.996264)"/>
       <use xlink:href="#CMR17-30" transform="translate(72.787654 0) scale(0.996264)"/>
       <use xlink:href="#CMR17-30" transform="translate(118.478131 0) scale(0.996264)"/>
      </g>
     </g>
    </g>
    <g id="xtick_6">
     <g id="line2d_11">
      <path d="M 814.98813 604.8 
L 814.98813 7.2 
" clip-path="url(#p00a9cf11f1)" style="fill: none; stroke: #b0b0b0; stroke-width: 0.8; stroke-linecap: square"/>
     </g>
     <g id="line2d_12">
      <g>
       <use xlink:href="#m02c77a36fe" x="814.98813" y="604.8" style="stroke: #000000; stroke-width: 0.8"/>
      </g>
     </g>
     <g id="text_6">
      <!-- $\mathdefault{1.25}$ -->
      <g transform="translate(782.154409 640.974009) scale(0.4 -0.4)">
       <use xlink:href="#CMR17-31" transform="scale(0.996264)"/>
       <use xlink:href="#CMMI12-3a" transform="translate(45.690477 0) scale(0.996264)"/>
       <use xlink:href="#CMR17-32" transform="translate(72.787654 0) scale(0.996264)"/>
       <use xlink:href="#CMR17-35" transform="translate(118.478131 0) scale(0.996264)"/>
      </g>
     </g>
    </g>
    <g id="xtick_7">
     <g id="line2d_13">
      <path d="M 945.18813 604.8 
L 945.18813 7.2 
" clip-path="url(#p00a9cf11f1)" style="fill: none; stroke: #b0b0b0; stroke-width: 0.8; stroke-linecap: square"/>
     </g>
     <g id="line2d_14">
      <g>
       <use xlink:href="#m02c77a36fe" x="945.18813" y="604.8" style="stroke: #000000; stroke-width: 0.8"/>
      </g>
     </g>
     <g id="text_7">
      <!-- $\mathdefault{1.50}$ -->
      <g transform="translate(912.354409 640.974009) scale(0.4 -0.4)">
       <use xlink:href="#CMR17-31" transform="scale(0.996264)"/>
       <use xlink:href="#CMMI12-3a" transform="translate(45.690477 0) scale(0.996264)"/>
       <use xlink:href="#CMR17-35" transform="translate(72.787654 0) scale(0.996264)"/>
       <use xlink:href="#CMR17-30" transform="translate(118.478131 0) scale(0.996264)"/>
      </g>
     </g>
    </g>
    <g id="text_8">
     <!-- $\Delta t\:\unit{[\s]}$ -->
     <g transform="translate(499.631004 706.040331) scale(0.5 -0.5)">
      <defs>
       <path id="CMR17-1" d="M 2598 4403 
C 2547 4512 2522 4512 2470 4512 
C 2394 4512 2387 4499 2342 4409 
L 269 109 
C 262 96 237 38 237 32 
C 237 6 243 0 358 0 
L 4576 0 
C 4691 0 4698 6 4698 32 
C 4698 38 4672 96 4666 109 
L 2598 4403 
z
M 2310 4038 
L 4083 358 
L 531 358 
L 2310 4038 
z
" transform="scale(0.015625)"/>
       <path id="CMMI12-74" d="M 1286 2566 
L 1875 2566 
C 1997 2566 2061 2566 2061 2681 
C 2061 2752 2022 2752 1894 2752 
L 1331 2752 
L 1568 3692 
C 1594 3781 1594 3794 1594 3840 
C 1594 3943 1510 4000 1427 4000 
C 1376 4000 1229 3981 1178 3775 
L 928 2752 
L 326 2752 
C 198 2752 141 2752 141 2630 
C 141 2566 186 2566 307 2566 
L 877 2566 
L 454 881 
C 403 658 384 594 384 511 
C 384 211 595 -64 954 -64 
C 1600 -64 1946 868 1946 912 
C 1946 951 1920 970 1882 970 
C 1869 970 1843 970 1830 944 
C 1824 938 1818 931 1773 829 
C 1638 511 1344 64 973 64 
C 781 64 768 224 768 364 
C 768 370 768 492 787 568 
L 1286 2566 
z
" transform="scale(0.015625)"/>
       <path id="CMR17-5b" d="M 1504 -1600 
L 1504 -1377 
L 902 -1377 
L 902 4544 
L 1504 4544 
L 1504 4767 
L 678 4767 
L 678 -1600 
L 1504 -1600 
z
" transform="scale(0.015625)"/>
       <path id="CMR17-73" d="M 1978 2697 
C 1978 2813 1971 2819 1933 2819 
C 1907 2819 1901 2813 1824 2717 
C 1805 2691 1747 2626 1728 2601 
C 1523 2819 1235 2819 1126 2819 
C 416 2819 160 2447 160 2076 
C 160 1498 813 1365 998 1325 
C 1402 1243 1542 1217 1677 1101 
C 1760 1025 1901 884 1901 654 
C 1901 384 1747 38 1158 38 
C 602 38 403 460 288 1021 
C 269 1110 269 1117 218 1117 
C 166 1117 160 1110 160 983 
L 160 63 
C 160 -51 166 -58 205 -58 
C 237 -58 243 -51 275 0 
C 314 57 410 211 448 276 
C 576 103 800 -64 1158 -64 
C 1792 -64 2131 283 2131 784 
C 2131 1112 1958 1285 1875 1362 
C 1683 1561 1459 1606 1190 1657 
C 838 1735 390 1825 390 2217 
C 390 2383 480 2737 1126 2737 
C 1811 2737 1850 2094 1862 1888 
C 1869 1856 1901 1849 1920 1849 
C 1978 1849 1978 1869 1978 1978 
L 1978 2697 
z
" transform="scale(0.015625)"/>
       <path id="CMR17-5d" d="M 915 4767 
L 90 4767 
L 90 4544 
L 691 4544 
L 691 -1377 
L 90 -1377 
L 90 -1600 
L 915 -1600 
L 915 4767 
z
" transform="scale(0.015625)"/>
      </defs>
      <use xlink:href="#CMR17-1" transform="scale(0.996264)"/>
      <use xlink:href="#CMMI12-74" transform="translate(76.91959 0) scale(0.996264)"/>
      <use xlink:href="#CMR17-5b" transform="translate(134.285127 0) scale(0.996264)"/>
      <use xlink:href="#CMR17-73" transform="translate(159.156186 0) scale(0.996264)"/>
      <use xlink:href="#CMR17-5d" transform="translate(194.957523 0) scale(0.996264)"/>
     </g>
    </g>
    <g id="text_9">
     <!-- $\times\mathdefault{10^{−2}}\mathdefault{}$ -->
     <g transform="translate(843.151091 679.737965) scale(0.4 -0.4)">
      <defs>
       <path id="CMSY10-2" d="M 2490 1785 
L 1210 3059 
C 1133 3136 1120 3148 1069 3148 
C 1005 3148 941 3091 941 3020 
C 941 2976 954 2963 1024 2892 
L 2304 1606 
L 1024 320 
C 954 249 941 236 941 192 
C 941 121 1005 64 1069 64 
C 1120 64 1133 76 1210 153 
L 2483 1427 
L 3808 102 
C 3821 96 3866 64 3904 64 
C 3981 64 4032 121 4032 192 
C 4032 204 4032 230 4013 262 
C 4006 275 2989 1280 2669 1606 
L 3840 2777 
C 3872 2816 3968 2899 4000 2937 
C 4006 2950 4032 2976 4032 3020 
C 4032 3091 3981 3148 3904 3148 
C 3853 3148 3827 3123 3757 3052 
L 2490 1785 
z
" transform="scale(0.015625)"/>
       <path id="CMSY10-0" d="M 4218 1472 
C 4326 1472 4442 1472 4442 1600 
C 4442 1728 4326 1728 4218 1728 
L 755 1728 
C 646 1728 531 1728 531 1600 
C 531 1472 646 1472 755 1472 
L 4218 1472 
z
" transform="scale(0.015625)"/>
      </defs>
      <use xlink:href="#CMSY10-2" transform="scale(0.996264)"/>
      <use xlink:href="#CMR17-31" transform="translate(77.487468 0) scale(0.996264)"/>
      <use xlink:href="#CMR17-30" transform="translate(123.177945 0) scale(0.996264)"/>
      <use xlink:href="#CMSY10-0" transform="translate(168.868422 36.153639) scale(0.697382)"/>
      <use xlink:href="#CMR17-32" transform="translate(223.109415 36.153639) scale(0.697382)"/>
     </g>
    </g>
   </g>
   <g id="matplotlib.axis_2">
    <g id="ytick_1">
     <g id="line2d_15">
      <path d="M 163.98813 526.29831 
L 945.18813 526.29831 
" clip-path="url(#p00a9cf11f1)" style="fill: none; stroke: #b0b0b0; stroke-width: 0.8; stroke-linecap: square"/>
     </g>
     <g id="line2d_16">
      <defs>
       <path id="mb6b4629916" d="M 0 0 
L -3.5 0 
" style="stroke: #000000; stroke-width: 0.8"/>
      </defs>
      <g>
       <use xlink:href="#mb6b4629916" x="163.98813" y="526.29831" style="stroke: #000000; stroke-width: 0.8"/>
      </g>
     </g>
     <g id="text_10">
      <!-- $\mathdefault{−2.5}$ -->
      <g transform="translate(77.101888 540.135314) scale(0.4 -0.4)">
       <use xlink:href="#CMSY10-0" transform="scale(0.996264)"/>
       <use xlink:href="#CMR17-32" transform="translate(77.487468 0) scale(0.996264)"/>
       <use xlink:href="#CMMI12-3a" transform="translate(123.177945 0) scale(0.996264)"/>
       <use xlink:href="#CMR17-35" transform="translate(150.275122 0) scale(0.996264)"/>
      </g>
     </g>
    </g>
    <g id="ytick_2">
     <g id="line2d_17">
      <path d="M 163.98813 431.060793 
L 945.18813 431.060793 
" clip-path="url(#p00a9cf11f1)" style="fill: none; stroke: #b0b0b0; stroke-width: 0.8; stroke-linecap: square"/>
     </g>
     <g id="line2d_18">
      <g>
       <use xlink:href="#mb6b4629916" x="163.98813" y="431.060793" style="stroke: #000000; stroke-width: 0.8"/>
      </g>
     </g>
     <g id="text_11">
      <!-- $\mathdefault{0.0}$ -->
      <g transform="translate(108.096878 444.897798) scale(0.4 -0.4)">
       <use xlink:href="#CMR17-30" transform="scale(0.996264)"/>
       <use xlink:href="#CMMI12-3a" transform="translate(45.690477 0) scale(0.996264)"/>
       <use xlink:href="#CMR17-30" transform="translate(72.787654 0) scale(0.996264)"/>
      </g>
     </g>
    </g>
    <g id="ytick_3">
     <g id="line2d_19">
      <path d="M 163.98813 335.823277 
L 945.18813 335.823277 
" clip-path="url(#p00a9cf11f1)" style="fill: none; stroke: #b0b0b0; stroke-width: 0.8; stroke-linecap: square"/>
     </g>
     <g id="line2d_20">
      <g>
       <use xlink:href="#mb6b4629916" x="163.98813" y="335.823277" style="stroke: #000000; stroke-width: 0.8"/>
      </g>
     </g>
     <g id="text_12">
      <!-- $\mathdefault{2.5}$ -->
      <g transform="translate(108.096878 349.660282) scale(0.4 -0.4)">
       <use xlink:href="#CMR17-32" transform="scale(0.996264)"/>
       <use xlink:href="#CMMI12-3a" transform="translate(45.690477 0) scale(0.996264)"/>
       <use xlink:href="#CMR17-35" transform="translate(72.787654 0) scale(0.996264)"/>
      </g>
     </g>
    </g>
    <g id="ytick_4">
     <g id="line2d_21">
      <path d="M 163.98813 240.585761 
L 945.18813 240.585761 
" clip-path="url(#p00a9cf11f1)" style="fill: none; stroke: #b0b0b0; stroke-width: 0.8; stroke-linecap: square"/>
     </g>
     <g id="line2d_22">
      <g>
       <use xlink:href="#mb6b4629916" x="163.98813" y="240.585761" style="stroke: #000000; stroke-width: 0.8"/>
      </g>
     </g>
     <g id="text_13">
      <!-- $\mathdefault{5.0}$ -->
      <g transform="translate(108.096878 254.422765) scale(0.4 -0.4)">
       <use xlink:href="#CMR17-35" transform="scale(0.996264)"/>
       <use xlink:href="#CMMI12-3a" transform="translate(45.690477 0) scale(0.996264)"/>
       <use xlink:href="#CMR17-30" transform="translate(72.787654 0) scale(0.996264)"/>
      </g>
     </g>
    </g>
    <g id="ytick_5">
     <g id="line2d_23">
      <path d="M 163.98813 145.348245 
L 945.18813 145.348245 
" clip-path="url(#p00a9cf11f1)" style="fill: none; stroke: #b0b0b0; stroke-width: 0.8; stroke-linecap: square"/>
     </g>
     <g id="line2d_24">
      <g>
       <use xlink:href="#mb6b4629916" x="163.98813" y="145.348245" style="stroke: #000000; stroke-width: 0.8"/>
      </g>
     </g>
     <g id="text_14">
      <!-- $\mathdefault{7.5}$ -->
      <g transform="translate(108.096878 159.185249) scale(0.4 -0.4)">
       <use xlink:href="#CMR17-37" transform="scale(0.996264)"/>
       <use xlink:href="#CMMI12-3a" transform="translate(45.690477 0) scale(0.996264)"/>
       <use xlink:href="#CMR17-35" transform="translate(72.787654 0) scale(0.996264)"/>
      </g>
     </g>
    </g>
    <g id="ytick_6">
     <g id="line2d_25">
      <path d="M 163.98813 50.110729 
L 945.18813 50.110729 
" clip-path="url(#p00a9cf11f1)" style="fill: none; stroke: #b0b0b0; stroke-width: 0.8; stroke-linecap: square"/>
     </g>
     <g id="line2d_26">
      <g>
       <use xlink:href="#mb6b4629916" x="163.98813" y="50.110729" style="stroke: #000000; stroke-width: 0.8"/>
      </g>
     </g>
     <g id="text_15">
      <!-- $\mathdefault{10.0}$ -->
      <g transform="translate(89.820687 63.947733) scale(0.4 -0.4)">
       <use xlink:href="#CMR17-31" transform="scale(0.996264)"/>
       <use xlink:href="#CMR17-30" transform="translate(45.690477 0) scale(0.996264)"/>
       <use xlink:href="#CMMI12-3a" transform="translate(91.380954 0) scale(0.996264)"/>
       <use xlink:href="#CMR17-30" transform="translate(118.478131 0) scale(0.996264)"/>
      </g>
     </g>
    </g>
    <g id="text_16">
     <!-- $u^\prime\:\unit{[\m/\s]}$ -->
     <g transform="translate(44.648588 383.267908) rotate(-90) scale(0.5 -0.5)">
      <defs>
       <path id="CMMI12-75" d="M 2182 370 
C 2266 13 2573 -64 2726 -64 
C 2931 -64 3085 70 3187 287 
C 3296 517 3379 894 3379 913 
C 3379 945 3354 971 3315 971 
C 3258 971 3251 939 3226 843 
C 3110 402 2995 64 2739 64 
C 2547 64 2547 275 2547 358 
C 2547 505 2566 568 2630 837 
C 2675 1009 2720 1181 2758 1360 
L 3021 2401 
C 3066 2561 3066 2574 3066 2593 
C 3066 2689 2989 2753 2893 2753 
C 2707 2753 2662 2593 2624 2433 
C 2560 2184 2214 811 2170 588 
C 2163 588 1914 64 1446 64 
C 1114 64 1050 351 1050 588 
C 1050 952 1229 1462 1395 1890 
C 1472 2095 1504 2178 1504 2305 
C 1504 2580 1306 2816 998 2816 
C 410 2816 173 1890 173 1839 
C 173 1814 198 1782 243 1782 
C 301 1782 307 1807 333 1896 
C 486 2441 736 2682 979 2682 
C 1043 2682 1146 2682 1146 2478 
C 1146 2312 1075 2127 979 1884 
C 698 1124 666 881 666 690 
C 666 38 1158 -64 1421 -64 
C 1830 -64 2054 217 2182 370 
z
" transform="scale(0.015625)"/>
       <path id="CMSY10-30" d="M 1619 3040 
C 1651 3117 1677 3174 1677 3238 
C 1677 3424 1510 3578 1312 3578 
C 1133 3578 1018 3456 973 3290 
L 211 493 
C 211 480 186 410 186 403 
C 186 333 352 288 403 288 
C 442 288 448 307 486 390 
L 1619 3040 
z
" transform="scale(0.015625)"/>
       <path id="CMR17-6d" d="M 4326 1933 
C 4326 2252 4269 2790 3507 2790 
C 3072 2790 2771 2496 2656 2151 
L 2650 2151 
C 2573 2676 2195 2790 1837 2790 
C 1331 2790 1069 2400 973 2144 
L 966 2144 
L 966 2790 
L 211 2720 
L 211 2554 
C 589 2554 646 2515 646 2208 
L 646 428 
C 646 184 621 153 211 153 
L 211 -13 
C 365 0 646 0 813 0 
C 979 0 1267 0 1421 -13 
L 1421 153 
C 1011 153 986 178 986 428 
L 986 1658 
C 986 2247 1344 2688 1792 2688 
C 2266 2688 2317 2266 2317 1958 
L 2317 428 
C 2317 184 2291 153 1882 153 
L 1882 -13 
C 2035 0 2317 0 2483 0 
C 2650 0 2938 0 3091 -13 
L 3091 153 
C 2682 153 2656 178 2656 428 
L 2656 1658 
C 2656 2247 3014 2688 3462 2688 
C 3936 2688 3987 2266 3987 1958 
L 3987 428 
C 3987 184 3962 153 3552 153 
L 3552 -13 
C 3706 0 3987 0 4154 0 
C 4320 0 4608 0 4762 -13 
L 4762 153 
C 4352 153 4326 178 4326 428 
L 4326 1933 
z
" transform="scale(0.015625)"/>
       <path id="CMMI12-3d" d="M 2746 4562 
C 2746 4569 2784 4666 2784 4678 
C 2784 4755 2720 4800 2669 4800 
C 2637 4800 2579 4800 2528 4659 
L 384 -1363 
C 384 -1370 346 -1465 346 -1478 
C 346 -1555 410 -1600 461 -1600 
C 499 -1600 557 -1593 602 -1459 
L 2746 4562 
z
" transform="scale(0.015625)"/>
      </defs>
      <use xlink:href="#CMMI12-75" transform="scale(0.996264)"/>
      <use xlink:href="#CMSY10-30" transform="translate(55.52033 36.153639) scale(0.697382)"/>
      <use xlink:href="#CMR17-5b" transform="translate(97.335629 0) scale(0.996264)"/>
      <use xlink:href="#CMR17-6d" transform="translate(122.206688 0) scale(0.996264)"/>
      <use xlink:href="#CMMI12-3d" transform="translate(199.126278 0) scale(0.996264)"/>
      <use xlink:href="#CMR17-73" transform="translate(247.901196 0) scale(0.996264)"/>
      <use xlink:href="#CMR17-5d" transform="translate(283.702534 0) scale(0.996264)"/>
     </g>
    </g>
   </g>
   <g id="line2d_27">
    <path d="M 163.98813 249.625474 
L 165.02973 247.540413 
L 166.076538 253.780493 
L 167.118138 262.02818 
L 168.133698 272.222297 
L 169.180506 278.277673 
L 170.222106 278.277673 
L 171.263706 280.286008 
L 172.305306 278.277673 
L 174.393714 286.280931 
L 175.435314 288.269285 
L 177.523722 288.269285 
L 178.565322 286.280931 
L 180.65373 274.245744 
L 181.69533 286.280931 
L 182.73693 303.997151 
L 183.77853 305.940964 
L 184.825338 305.940964 
L 185.840898 313.667531 
L 186.882498 323.216897 
L 187.929306 302.048397 
L 188.970906 276.264253 
L 190.012506 257.914727 
L 191.059314 245.449823 
L 192.100914 247.540413 
L 193.142514 270.193616 
L 194.184114 288.269285 
L 195.230922 292.230952 
L 196.272522 294.204266 
L 197.314122 305.940964 
L 198.355722 309.813912 
L 199.40253 323.216897 
L 200.44413 341.958391 
L 201.48573 340.105476 
L 202.532538 317.501679 
L 203.574138 321.316608 
L 204.589698 328.889099 
L 205.636506 317.501679 
L 206.678106 311.743192 
L 207.719706 313.667531 
L 208.761306 317.501679 
L 209.808114 336.385514 
L 210.849714 367.413672 
L 212.932914 435.354109 
L 213.979722 466.813217 
L 215.021322 480.452676 
L 216.062922 469.871495 
L 217.10973 451.28477 
L 218.15133 436.965535 
L 219.19293 425.598572 
L 220.23453 415.692735 
L 221.281338 419.011538 
L 223.338498 457.54392 
L 224.385306 459.098745 
L 225.426906 451.28477 
L 226.468506 451.28477 
L 227.510106 462.196406 
L 228.556914 469.871495 
L 230.640114 469.871495 
L 232.728522 463.739315 
L 233.770122 462.196406 
L 234.811722 455.985138 
L 235.85853 446.548216 
L 236.90013 440.176076 
L 237.94173 436.965535 
L 238.98333 441.775296 
L 240.030138 448.131159 
L 243.134106 448.131159 
L 244.175706 454.422427 
L 245.217306 454.422427 
L 246.264114 452.855541 
L 247.305714 454.422427 
L 248.347314 454.422427 
L 249.388914 451.28477 
L 250.435722 443.370338 
L 251.477322 440.176076 
L 252.518922 433.738541 
L 253.56573 417.354298 
L 254.60733 405.634347 
L 255.64893 400.547315 
L 256.69053 403.942993 
L 257.737338 409.004231 
L 258.752898 410.682758 
L 259.794498 419.011538 
L 261.882906 448.131159 
L 262.924506 452.855541 
L 263.966106 448.131159 
L 265.012914 440.176076 
L 266.054514 436.965535 
L 267.096114 436.965535 
L 268.142922 440.176076 
L 269.184522 432.118829 
L 270.226122 412.356927 
L 271.267722 374.522517 
L 272.31453 345.650193 
L 273.35613 347.48923 
L 274.39773 365.625207 
L 275.43933 374.522517 
L 276.486138 385.05142 
L 277.501698 405.634347 
L 278.543298 383.307713 
L 279.590106 294.204266 
L 280.631706 230.669235 
L 281.673306 202.525223 
L 282.720114 182.500145 
L 283.761714 202.525223 
L 284.803314 191.455546 
L 285.844914 177.989095 
L 286.891722 173.455518 
L 287.933322 186.989108 
L 288.974922 184.747389 
L 290.016522 155.09451 
L 291.06333 112.428289 
L 292.10493 95.317186 
L 295.234938 193.680553 
L 296.250498 202.525223 
L 298.338906 166.61279 
L 299.380506 186.989108 
L 300.422106 219.952397 
L 301.468914 232.796586 
L 302.510514 239.146966 
L 303.552114 255.850153 
L 304.598922 270.193616 
L 305.640522 274.245744 
L 308.77053 292.230952 
L 309.81213 276.264253 
L 310.85373 257.914727 
L 311.89533 266.121142 
L 312.942138 288.269285 
L 313.957698 302.048397 
L 314.999298 309.813912 
L 316.046106 307.879836 
L 317.087706 307.879836 
L 318.129306 311.743192 
L 319.176114 323.216897 
L 320.217714 323.216897 
L 321.259314 300.094703 
L 322.300914 282.289401 
L 323.347722 290.252553 
L 324.389322 313.667531 
L 325.430922 327.003194 
L 326.472522 338.247838 
L 327.51933 340.105476 
L 328.56093 321.316608 
L 329.60253 294.204266 
L 330.649338 292.230952 
L 331.690938 292.230952 
L 332.706498 294.204266 
L 333.753306 302.048397 
L 334.794906 311.743192 
L 335.836506 278.277673 
L 336.878106 209.101138 
L 337.924914 182.500145 
L 340.008114 288.269285 
L 341.049714 313.667531 
L 342.096522 323.216897 
L 343.138122 323.216897 
L 344.179722 319.411633 
L 345.22653 317.501679 
L 346.26813 332.646806 
L 347.30973 354.79869 
L 348.35133 362.034547 
L 350.413698 311.743192 
L 351.455298 317.501679 
L 352.502106 334.518467 
L 353.543706 343.806726 
L 354.585306 354.79869 
L 355.632114 374.522517 
L 356.673714 397.134307 
L 357.715314 412.356927 
L 358.756914 420.664598 
L 359.803722 427.234882 
L 360.845322 420.664598 
L 361.886922 417.354298 
L 362.928522 428.867055 
L 363.97533 449.709961 
L 365.01693 466.813217 
L 366.05853 457.54392 
L 367.105338 430.495014 
L 368.146938 415.692735 
L 369.162498 414.026993 
L 370.209306 425.598572 
L 371.250906 430.495014 
L 372.292506 432.118829 
L 373.334106 427.234882 
L 374.380914 425.598572 
L 375.422514 415.692735 
L 376.464114 402.247278 
L 377.505714 403.942993 
L 378.552522 414.026993 
L 379.594122 417.354298 
L 380.635722 415.692735 
L 381.68253 417.354298 
L 382.72413 433.738541 
L 384.80733 481.948827 
L 385.854138 487.895069 
L 386.869698 487.895069 
L 387.911298 471.394712 
L 388.958106 448.131159 
L 389.999706 430.495014 
L 391.041306 425.598572 
L 392.082906 422.313445 
L 393.129714 417.354298 
L 394.171314 410.682758 
L 395.212914 407.321449 
L 396.259722 412.356927 
L 397.301322 423.958113 
L 398.342922 428.867055 
L 400.43133 432.118829 
L 401.47293 430.495014 
L 402.51453 433.738541 
L 403.55613 446.548216 
L 405.618498 462.196406 
L 407.706906 496.700608 
L 408.748506 499.605718 
L 409.790106 487.895069 
L 410.836914 472.914078 
L 411.878514 471.394712 
L 412.920114 477.44882 
L 413.961714 475.94115 
L 416.050122 478.952674 
L 417.091722 474.429559 
L 418.13853 465.278266 
L 419.18013 463.739315 
L 420.22173 465.278266 
L 421.26333 462.196406 
L 422.310138 454.422427 
L 425.414106 449.709961 
L 426.455706 446.548216 
L 427.497306 441.775296 
L 428.538906 443.370338 
L 429.585714 446.548216 
L 431.668914 440.176076 
L 432.715722 444.961311 
L 433.757322 452.855541 
L 434.798922 457.54392 
L 435.840522 463.739315 
L 436.88733 463.739315 
L 437.92893 462.196406 
L 438.97053 457.54392 
L 440.01213 457.54392 
L 441.058938 460.649502 
L 442.074498 455.985138 
L 443.116098 435.354109 
L 445.204506 363.832132 
L 446.246106 336.385514 
L 447.292914 341.958391 
L 448.334514 351.153207 
L 449.376114 332.646806 
L 450.417714 311.743192 
L 451.464522 309.813912 
L 452.506122 311.743192 
L 453.547722 288.269285 
L 454.589322 270.193616 
L 455.63613 274.245744 
L 456.67773 264.077348 
L 457.71933 234.918706 
L 458.766138 239.146966 
L 459.807738 262.02818 
L 460.823298 274.245744 
L 462.911706 262.02818 
L 463.953306 268.159994 
L 464.994906 266.121142 
L 466.041714 268.159994 
L 467.083314 282.289401 
L 468.124914 298.136212 
L 469.171722 284.287709 
L 470.213322 253.780493 
L 471.254922 251.705743 
L 472.296522 237.035452 
L 473.34333 193.680553 
L 474.38493 173.455518 
L 475.42653 184.747389 
L 476.46813 193.680553 
L 477.514938 204.72262 
L 478.530498 226.398541 
L 479.572098 228.53665 
L 480.618906 213.457862 
L 481.660506 206.914641 
L 482.702106 204.72262 
L 483.748914 217.793073 
L 484.790514 243.354152 
L 485.832114 259.973922 
L 486.873714 255.850153 
L 487.920522 245.449823 
L 488.962122 245.449823 
L 490.003722 241.253102 
L 491.045322 251.705743 
L 492.09213 230.669235 
L 493.13373 215.628081 
L 494.17533 243.354152 
L 495.222138 266.121142 
L 496.263738 239.146966 
L 497.279298 222.106491 
L 498.326106 224.255206 
L 499.367706 224.255206 
L 500.409306 230.669235 
L 501.450906 243.354152 
L 502.497714 266.121142 
L 503.539314 284.287709 
L 504.580914 307.879836 
L 505.622514 343.806726 
L 506.669322 367.413672 
L 507.710922 370.977087 
L 508.752522 354.79869 
L 509.79933 323.216897 
L 511.88253 251.705743 
L 512.92413 232.796586 
L 513.970938 219.952397 
L 514.986498 215.628081 
L 516.028098 222.106491 
L 517.074906 209.101138 
L 518.116506 200.322303 
L 519.158106 206.914641 
L 520.204914 232.796586 
L 521.246514 228.53665 
L 523.329714 122.074398 
L 524.376522 105.131145 
L 525.418122 95.317186 
L 526.459722 57.642885 
L 527.501322 34.363636 
L 528.54813 112.428289 
L 529.58973 148.114602 
L 530.63133 133.998707 
L 531.678138 124.471031 
L 532.719738 136.365839 
L 533.735298 162.02254 
L 535.823706 209.101138 
L 536.865306 232.796586 
L 537.906906 241.253102 
L 538.953714 230.669235 
L 539.995314 209.101138 
L 541.036914 211.28226 
L 542.078514 234.918706 
L 543.125322 239.146966 
L 544.166922 234.918706 
L 545.208522 255.850153 
L 546.25533 302.048397 
L 547.29693 336.385514 
L 548.33853 343.806726 
L 550.426938 336.385514 
L 551.442498 338.247838 
L 552.484098 367.413672 
L 553.530906 400.547315 
L 554.572506 398.843028 
L 556.655706 245.449823 
L 557.702514 239.146966 
L 558.744114 262.02818 
L 560.832522 274.245744 
L 561.874122 292.230952 
L 563.957322 323.216897 
L 565.00413 343.806726 
L 566.04573 360.232459 
L 567.08733 369.197559 
L 568.12893 385.05142 
L 569.175738 412.356927 
L 570.191298 427.234882 
L 571.238106 422.313445 
L 573.321306 402.247278 
L 574.362906 414.026993 
L 576.451314 483.441089 
L 577.492914 506.80321 
L 578.534514 516.725321 
L 579.581322 513.908709 
L 581.664522 486.414248 
L 582.71133 478.952674 
L 583.75293 463.739315 
L 584.79453 438.572859 
L 585.83613 385.05142 
L 586.882938 323.216897 
L 587.898498 288.269285 
L 588.940098 239.146966 
L 589.986906 228.53665 
L 591.028506 222.106491 
L 592.070106 206.914641 
L 593.111706 217.793073 
L 594.158514 243.354152 
L 595.200114 262.02818 
L 596.241714 268.159994 
L 597.288522 272.222297 
L 598.330122 278.277673 
L 599.371722 282.289401 
L 600.413322 272.222297 
L 601.46013 274.245744 
L 602.50173 280.286008 
L 603.54333 274.245744 
L 604.58493 266.121142 
L 605.631738 266.121142 
L 606.647298 257.914727 
L 607.688898 247.540413 
L 608.735706 243.354152 
L 610.818906 268.159994 
L 611.865714 274.245744 
L 612.907314 278.277673 
L 613.948914 284.287709 
L 614.990514 302.048397 
L 616.037322 334.518467 
L 617.078922 352.978255 
L 618.120522 343.806726 
L 619.162122 343.806726 
L 620.20893 365.625207 
L 621.25053 372.752036 
L 622.29213 354.79869 
L 623.338938 345.650193 
L 624.380538 362.034547 
L 625.396098 370.977087 
L 627.484506 338.247838 
L 629.567706 292.230952 
L 630.614514 280.286008 
L 631.656114 274.245744 
L 632.697714 272.222297 
L 633.744522 268.159994 
L 634.786122 257.914727 
L 635.827722 255.850153 
L 636.869322 278.277673 
L 637.91613 303.997151 
L 638.95773 315.587005 
L 639.99933 321.316608 
L 641.04093 330.770276 
L 642.087738 338.247838 
L 644.144898 338.247838 
L 645.191706 343.806726 
L 646.233306 358.425792 
L 647.274906 370.977087 
L 648.321714 378.049928 
L 649.363314 388.525605 
L 650.404914 393.703897 
L 651.446514 391.982247 
L 652.493322 395.4213 
L 653.534922 410.682758 
L 654.576522 430.495014 
L 655.618122 448.131159 
L 656.66493 449.709961 
L 657.70653 441.775296 
L 658.74813 435.354109 
L 659.794938 432.118829 
L 660.836538 425.598572 
L 661.852098 400.547315 
L 663.940506 327.003194 
L 664.982106 325.11239 
L 666.023706 334.518467 
L 667.070514 347.48923 
L 668.112114 372.752036 
L 669.153714 383.307713 
L 670.195314 386.790728 
L 671.242122 397.134307 
L 672.283722 415.692735 
L 673.325322 430.495014 
L 674.37213 435.354109 
L 675.41373 435.354109 
L 676.45533 432.118829 
L 677.49693 436.965535 
L 678.543738 435.354109 
L 679.559298 419.011538 
L 680.600898 409.004231 
L 681.647706 425.598572 
L 682.689306 454.422427 
L 683.730906 474.429559 
L 685.819314 492.314821 
L 686.860914 508.231677 
L 687.902514 522.315016 
L 688.949322 530.592025 
L 689.990922 527.847276 
L 691.032522 530.592025 
L 692.074122 541.429913 
L 693.12093 548.090261 
L 694.16253 540.087403 
L 695.20413 526.469562 
L 696.250938 520.923059 
L 697.292538 518.128177 
L 698.308098 513.908709 
L 699.354906 503.935337 
L 700.396506 501.052605 
L 701.438106 503.935337 
L 702.479706 520.923059 
L 703.526514 548.090261 
L 704.568114 561.15414 
L 705.609714 545.436521 
L 706.651314 522.315016 
L 707.698122 503.935337 
L 708.739722 492.314821 
L 709.781322 487.895069 
L 710.82813 490.845371 
L 711.86973 484.929575 
L 712.91133 448.131159 
L 713.95293 422.313445 
L 714.999738 410.682758 
L 716.015298 379.806968 
L 717.056898 354.79869 
L 718.103706 334.518467 
L 719.145306 298.136212 
L 720.186906 272.222297 
L 721.228506 266.121142 
L 722.275314 262.02818 
L 723.316914 259.973922 
L 724.358514 266.121142 
L 725.405322 284.287709 
L 726.446922 292.230952 
L 727.488522 290.252553 
L 728.530122 280.286008 
L 729.57693 255.850153 
L 730.61853 243.354152 
L 731.66013 247.540413 
L 732.70173 245.449823 
L 733.748538 247.540413 
L 734.764098 251.705743 
L 735.810906 257.914727 
L 736.852506 255.850153 
L 737.894106 234.918706 
L 738.935706 237.035452 
L 739.982514 257.914727 
L 741.024114 276.264253 
L 742.065714 284.287709 
L 743.107314 303.997151 
L 744.154122 330.770276 
L 745.195722 349.32347 
L 746.237322 360.232459 
L 747.28413 354.79869 
L 748.32573 345.650193 
L 749.36733 343.806726 
L 750.40893 338.247838 
L 751.455738 307.879836 
L 752.471298 298.136212 
L 753.512898 338.247838 
L 754.559706 367.413672 
L 755.601306 354.79869 
L 756.642906 328.889099 
L 757.684506 292.230952 
L 758.731314 282.289401 
L 759.772914 292.230952 
L 760.814514 315.587005 
L 761.861322 332.646806 
L 762.902922 332.646806 
L 763.944522 311.743192 
L 764.986122 296.172639 
L 766.03293 296.172639 
L 767.07453 309.813912 
L 769.15773 298.136212 
L 770.204538 311.743192 
L 771.220098 349.32347 
L 772.261698 379.806968 
L 773.308506 372.752036 
L 774.350106 352.978255 
L 775.391706 345.650193 
L 776.438514 347.48923 
L 779.563314 397.134307 
L 780.610122 415.692735 
L 781.651722 420.664598 
L 783.734922 400.547315 
L 785.82333 420.664598 
L 786.86493 403.942993 
L 787.911738 385.05142 
L 788.953338 390.256124 
L 789.968898 405.634347 
L 791.015706 414.026993 
L 793.098906 420.664598 
L 794.140506 419.011538 
L 795.187314 409.004231 
L 796.228914 388.525605 
L 797.270514 376.288456 
L 798.317322 391.982247 
L 799.358922 410.682758 
L 800.400522 427.234882 
L 801.442122 436.965535 
L 802.48893 436.965535 
L 803.53053 422.313445 
L 804.57213 397.134307 
L 805.61373 376.288456 
L 806.660538 374.522517 
L 807.676098 381.559613 
L 808.717698 393.703897 
L 810.806106 432.118829 
L 811.847706 444.961311 
L 812.894514 468.34432 
L 813.936114 483.441089 
L 814.977714 481.948827 
L 816.019314 466.813217 
L 817.066122 457.54392 
L 818.107722 472.914078 
L 819.149322 496.700608 
L 820.190922 498.15498 
L 822.27933 432.118829 
L 823.32093 420.664598 
L 824.367738 415.692735 
L 825.409338 403.942993 
L 826.424898 398.843028 
L 827.471706 400.547315 
L 829.554906 410.682758 
L 831.643314 414.026993 
L 832.684914 402.247278 
L 833.726514 376.288456 
L 834.768114 362.034547 
L 835.814922 374.522517 
L 836.856522 393.703897 
L 837.898122 407.321449 
L 838.94493 419.011538 
L 839.98653 441.775296 
L 841.02813 460.649502 
L 842.06973 471.394712 
L 843.116538 478.952674 
L 844.132098 484.929575 
L 846.220506 513.908709 
L 847.262106 525.088249 
L 848.303706 529.221431 
L 849.350514 527.847276 
L 850.392114 516.725321 
L 852.475314 477.44882 
L 853.522122 472.914078 
L 856.646922 481.948827 
L 858.73533 469.871495 
L 859.77693 469.871495 
L 860.823738 468.34432 
L 862.880898 455.985138 
L 863.927706 451.28477 
L 864.969306 448.131159 
L 866.010906 448.131159 
L 868.099314 451.28477 
L 869.140914 444.961311 
L 870.182514 443.370338 
L 871.224114 443.370338 
L 872.270922 440.176076 
L 873.312522 438.572859 
L 874.354122 448.131159 
L 875.40093 465.278266 
L 876.44253 477.44882 
L 877.48413 478.952674 
L 878.52573 478.952674 
L 879.572538 477.44882 
L 880.588098 471.394712 
L 881.629698 469.871495 
L 882.676506 475.94115 
L 883.718106 474.429559 
L 884.759706 474.429559 
L 885.801306 477.44882 
L 886.848114 466.813217 
L 887.889714 449.709961 
L 888.931314 438.572859 
L 889.978122 441.775296 
L 891.019722 448.131159 
L 892.061322 451.28477 
L 893.102922 448.131159 
L 894.14973 440.176076 
L 895.19133 433.738541 
L 896.23293 430.495014 
L 897.27453 435.354109 
L 898.321338 436.965535 
L 900.383706 402.247278 
L 901.425306 403.942993 
L 902.466906 409.004231 
L 903.508506 415.692735 
L 906.638514 430.495014 
L 908.726922 436.965535 
L 910.810122 440.176076 
L 912.89853 452.855541 
L 913.94013 457.54392 
L 914.98173 454.422427 
L 916.028538 449.709961 
L 917.044098 452.855541 
L 918.085698 457.54392 
L 919.132506 455.985138 
L 920.174106 451.28477 
L 921.215706 452.855541 
L 923.304114 468.34432 
L 924.345714 474.429559 
L 925.387314 481.948827 
L 927.475722 513.908709 
L 929.558922 525.088249 
L 930.60573 540.087403 
L 931.64733 553.356618 
L 932.68893 563.726391 
L 933.73053 568.830791 
L 935.792898 561.15414 
L 936.834498 561.15414 
L 937.881306 570.098642 
L 938.922906 577.636364 
L 939.964506 575.136844 
L 941.011314 566.285313 
L 942.052914 562.44201 
L 944.136114 562.44201 
L 945.182922 563.726391 
L 946.224522 567.559667 
L 946.224522 567.559667 
" clip-path="url(#p00a9cf11f1)" style="fill: none; stroke: #000000; stroke-width: 1.2; stroke-linecap: square"/>
   </g>
   <g id="patch_3">
    <path d="M 163.98813 604.8 
L 163.98813 7.2 
" style="fill: none; stroke: #000000; stroke-width: 0.8; stroke-linejoin: miter; stroke-linecap: square"/>
   </g>
   <g id="patch_4">
    <path d="M 945.18813 604.8 
L 945.18813 7.2 
" style="fill: none; stroke: #000000; stroke-width: 0.8; stroke-linejoin: miter; stroke-linecap: square"/>
   </g>
   <g id="patch_5">
    <path d="M 163.98813 604.8 
L 945.18813 604.8 
" style="fill: none; stroke: #000000; stroke-width: 0.8; stroke-linejoin: miter; stroke-linecap: square"/>
   </g>
   <g id="patch_6">
    <path d="M 163.98813 7.2 
L 945.18813 7.2 
" style="fill: none; stroke: #000000; stroke-width: 0.8; stroke-linejoin: miter; stroke-linecap: square"/>
   </g>
  </g>
 </g>
 <defs>
  <clipPath id="p00a9cf11f1">
   <rect x="163.98813" y="7.2" width="781.2" height="597.6"/>
  </clipPath>
 </defs>
</svg>
