<?xml version="1.0" encoding="UTF-8" standalone="no"?>
<!-- Created with Inkscape (http://www.inkscape.org/) -->

<svg
   width="337.29324mm"
   height="255.9939mm"
   viewBox="0 0 337.29324 255.9939"
   version="1.1"
   id="svg1"
   xml:space="preserve"
   inkscape:version="1.3.2 (091e20e, 2023-11-25, custom)"
   sodipodi:docname="T1_u_p_vs_t_zoomed_jet12_annotated.svg"
   xmlns:inkscape="http://www.inkscape.org/namespaces/inkscape"
   xmlns:sodipodi="http://sodipodi.sourceforge.net/DTD/sodipodi-0.dtd"
   xmlns:xlink="http://www.w3.org/1999/xlink"
   xmlns="http://www.w3.org/2000/svg"
   xmlns:svg="http://www.w3.org/2000/svg"><sodipodi:namedview
     id="namedview1"
     pagecolor="#ffffff"
     bordercolor="#999999"
     borderopacity="1"
     inkscape:showpageshadow="2"
     inkscape:pageopacity="0"
     inkscape:pagecheckerboard="0"
     inkscape:deskcolor="#d1d1d1"
     inkscape:document-units="mm"
     inkscape:zoom="0.22627417"
     inkscape:cx="1646.233"
     inkscape:cy="501.60387"
     inkscape:window-width="1920"
     inkscape:window-height="1013"
     inkscape:window-x="-9"
     inkscape:window-y="-9"
     inkscape:window-maximized="1"
     inkscape:current-layer="layer1" /><defs
     id="defs1"><style
       type="text/css"
       id="style1">*{stroke-linejoin: round; stroke-linecap: butt}</style><path
       id="m045b3f2381"
       d="M 0,0 V 3.5"
       style="stroke:#000000;stroke-width:0.8" /><path
       id="CMR17-30"
       d="m 2688,2025 c 0,391 -6,1055 -275,1566 -237,448 -615,607 -947,607 -308,0 -698,-140 -941,-601 C 269,3118 243,2524 243,2025 c 0,-364 7,-919 205,-1406 275,-658 768,-747 1018,-747 294,0 742,121 1004,728 192,442 218,959 218,1425 z M 1466,-26 c -410,0 -653,351 -743,838 -70,376 -70,926 -70,1284 0,492 0,901 83,1291 122,542 480,709 730,709 262,0 601,-173 723,-696 83,-364 89,-793 89,-1304 0,-416 0,-927 -76,-1304 C 2067,95 1690,-26 1466,-26 Z"
       transform="scale(0.015625)" /><path
       id="CMMI12-3a"
       d="M 1178,307 C 1178,492 1024,619 870,619 685,619 557,466 557,313 557,128 710,0 864,0 c 186,0 314,153 314,307 z"
       transform="scale(0.015625)" /><path
       id="CMR17-32"
       d="M 2669,989 H 2554 C 2490,536 2438,459 2413,420 2381,369 1920,369 1830,369 H 602 c 230,250 678,703 1222,1228 390,370 845,805 845,1438 0,755 -602,1189 -1274,1189 -704,0 -1133,-620 -1133,-1194 0,-250 186,-282 263,-282 64,0 256,39 256,262 0,197 -167,254 -256,254 -39,0 -77,-6 -103,-19 122,545 493,813 884,813 556,0 921,-441 921,-1023 0,-556 -326,-1035 -691,-1451 L 262,146 V 0 h 2253 z"
       transform="scale(0.015625)" /><path
       id="CMR17-35"
       d="m 730,3692 c 64,-26 326,-108 595,-108 595,0 921,327 1107,516 0,57 0,92 -38,92 -7,0 -20,0 -71,-29 -224,-105 -486,-190 -806,-190 -192,0 -480,26 -794,166 -70,32 -83,32 -89,32 -32,0 -39,-7 -39,-134 V 2203 c 0,-114 0,-146 64,-146 32,0 45,13 77,57 205,287 486,408 806,408 224,0 704,-140 704,-1233 0,-204 0,-574 -192,-868 C 1894,159 1645,25 1370,25 947,25 518,320 403,814 c 26,-7 77,-19 103,-19 83,0 243,45 243,243 0,172 -122,242 -243,242 -148,0 -244,-90 -244,-269 0,-557 442,-1139 1120,-1139 660,0 1287,568 1287,1392 0,766 -499,1360 -1120,1360 -327,0 -602,-121 -819,-350 z"
       transform="scale(0.015625)" /><path
       id="CMR17-37"
       d="m 2886,3941 v 140 H 1382 c -748,0 -761,84 -787,207 H 480 L 294,3094 h 116 c 19,121 64,446 140,567 39,51 512,51 621,51 H 2579 L 1869,2661 C 1395,1954 1069,999 1069,165 c 0,-76 0,-293 230,-293 231,0 231,217 231,299 v 294 c 0,1043 179,1731 473,2171 z"
       transform="scale(0.015625)" /><path
       id="CMR17-31"
       d="m 1702,4058 c 0,134 -6,134 -96,134 -249,-276 -627,-365 -985,-365 -19,0 -51,0 -58,-19 -6,-13 -6,-26 -6,-160 198,0 531,38 787,191 V 461 C 1344,236 1331,160 781,160 H 589 V 0 c 307,0 627,0 934,0 307,0 627,0 935,0 v 160 h -192 c -551,0 -564,70 -564,298 z"
       transform="scale(0.015625)" /><path
       id="CMR17-1"
       d="m 2598,4403 c -51,109 -76,109 -128,109 -76,0 -83,-13 -128,-103 L 269,109 C 262,96 237,38 237,32 237,6 243,0 358,0 h 4218 c 115,0 122,6 122,32 0,6 -26,64 -32,77 z M 2310,4038 4083,358 H 531 Z"
       transform="scale(0.015625)" /><path
       id="CMMI12-74"
       d="m 1286,2566 h 589 c 122,0 186,0 186,115 0,71 -39,71 -167,71 h -563 l 237,940 c 26,89 26,102 26,148 0,103 -84,160 -167,160 -51,0 -198,-19 -249,-225 L 928,2752 H 326 c -128,0 -185,0 -185,-122 0,-64 45,-64 166,-64 H 877 L 454,881 C 403,658 384,594 384,511 384,211 595,-64 954,-64 c 646,0 992,932 992,976 0,39 -26,58 -64,58 -13,0 -39,0 -52,-26 -6,-6 -12,-13 -57,-115 C 1638,511 1344,64 973,64 781,64 768,224 768,364 c 0,6 0,128 19,204 z"
       transform="scale(0.015625)" /><path
       id="CMR17-5b"
       d="m 1504,-1600 v 223 H 902 v 5921 h 602 v 223 H 678 v -6367 z"
       transform="scale(0.015625)" /><path
       id="CMR17-73"
       d="m 1978,2697 c 0,116 -7,122 -45,122 -26,0 -32,-6 -109,-102 -19,-26 -77,-91 -96,-116 -205,218 -493,218 -602,218 -710,0 -966,-372 -966,-743 0,-578 653,-711 838,-751 404,-82 544,-108 679,-224 83,-76 224,-217 224,-447 0,-270 -154,-616 -743,-616 -556,0 -755,422 -870,983 -19,89 -19,96 -70,96 -52,0 -58,-7 -58,-134 V 63 c 0,-114 6,-121 45,-121 32,0 38,7 70,58 39,57 135,211 173,276 128,-173 352,-340 710,-340 634,0 973,347 973,848 0,328 -173,501 -256,578 -192,199 -416,244 -685,295 -352,78 -800,168 -800,560 0,166 90,520 736,520 685,0 724,-643 736,-849 7,-32 39,-39 58,-39 58,0 58,20 58,129 z"
       transform="scale(0.015625)" /><path
       id="CMR17-5d"
       d="M 915,4767 H 90 V 4544 H 691 V -1377 H 90 v -223 h 825 z"
       transform="scale(0.015625)" /><path
       id="CMSY10-2"
       d="M 2490,1785 1210,3059 c -77,77 -90,89 -141,89 -64,0 -128,-57 -128,-128 0,-44 13,-57 83,-128 L 2304,1606 1024,320 c -70,-71 -83,-84 -83,-128 0,-71 64,-128 128,-128 51,0 64,12 141,89 L 2483,1427 3808,102 c 13,-6 58,-38 96,-38 77,0 128,57 128,128 0,12 0,38 -19,70 -7,13 -1024,1018 -1344,1344 l 1171,1171 c 32,39 128,122 160,160 6,13 32,39 32,83 0,71 -51,128 -128,128 -51,0 -77,-25 -147,-96 z"
       transform="scale(0.015625)" /><path
       id="CMSY10-0"
       d="m 4218,1472 c 108,0 224,0 224,128 0,128 -116,128 -224,128 H 755 c -109,0 -224,0 -224,-128 0,-128 115,-128 224,-128 z"
       transform="scale(0.015625)" /><path
       id="md7189f654f"
       d="M 0,0 H -3.5"
       style="stroke:#000000;stroke-width:0.8" /><path
       id="CMR17-34"
       d="m 2150,4122 c 0,134 -6,134 -121,134 L 128,1254 V 1088 H 1779 V 457 c 0,-233 -13,-297 -461,-297 H 1197 V 0 c 205,0 550,0 768,0 217,0 563,0 768,0 v 160 h -122 c -448,0 -461,64 -461,297 v 631 h 653 v 166 H 2150 Z M 1798,3703 V 1254 H 256 Z"
       transform="scale(0.015625)" /><path
       id="CMMI12-75"
       d="m 2182,370 c 84,-357 391,-434 544,-434 205,0 359,134 461,351 109,230 192,607 192,626 0,32 -25,58 -64,58 -57,0 -64,-32 -89,-128 C 3110,402 2995,64 2739,64 c -192,0 -192,211 -192,294 0,147 19,210 83,479 45,172 90,344 128,523 l 263,1041 c 45,160 45,173 45,192 0,96 -77,160 -173,160 -186,0 -231,-160 -269,-320 -64,-249 -410,-1622 -454,-1845 -7,0 -256,-524 -724,-524 -332,0 -396,287 -396,524 0,364 179,874 345,1302 77,205 109,288 109,415 0,275 -198,511 -506,511 -588,0 -825,-926 -825,-977 0,-25 25,-57 70,-57 58,0 64,25 90,114 153,545 403,786 646,786 64,0 167,0 167,-204 0,-166 -71,-351 -167,-594 C 698,1124 666,881 666,690 c 0,-652 492,-754 755,-754 409,0 633,281 761,434 z"
       transform="scale(0.015625)" /><path
       id="CMSY10-30"
       d="m 1619,3040 c 32,77 58,134 58,198 0,186 -167,340 -365,340 -179,0 -294,-122 -339,-288 L 211,493 c 0,-13 -25,-83 -25,-90 0,-70 166,-115 217,-115 39,0 45,19 83,102 z"
       transform="scale(0.015625)" /><path
       id="CMR17-6d"
       d="m 4326,1933 c 0,319 -57,857 -819,857 -435,0 -736,-294 -851,-639 h -6 c -77,525 -455,639 -813,639 -506,0 -768,-390 -864,-646 h -7 v 646 l -755,-70 v -166 c 378,0 435,-39 435,-346 V 428 C 646,184 621,153 211,153 V -13 C 365,0 646,0 813,0 c 166,0 454,0 608,-13 v 166 c -410,0 -435,25 -435,275 v 1230 c 0,589 358,1030 806,1030 474,0 525,-422 525,-730 V 428 c 0,-244 -26,-275 -435,-275 V -13 c 153,13 435,13 601,13 167,0 455,0 608,-13 v 166 c -409,0 -435,25 -435,275 v 1230 c 0,589 358,1030 806,1030 474,0 525,-422 525,-730 V 428 c 0,-244 -25,-275 -435,-275 V -13 c 154,13 435,13 602,13 166,0 454,0 608,-13 v 166 c -410,0 -436,25 -436,275 z"
       transform="scale(0.015625)" /><path
       id="CMMI12-3d"
       d="m 2746,4562 c 0,7 38,104 38,116 0,77 -64,122 -115,122 -32,0 -90,0 -141,-141 L 384,-1363 c 0,-7 -38,-102 -38,-115 0,-77 64,-122 115,-122 38,0 96,7 141,141 z"
       transform="scale(0.015625)" /><clipPath
       id="p39fa06a7bc"><rect
         x="134.87306"
         y="7.1999998"
         width="781.20001"
         height="597.59998"
         id="rect70" /></clipPath><style
       type="text/css"
       id="style1-0">*{stroke-linejoin: round; stroke-linecap: butt}</style></defs><g
     inkscape:label="Layer 1"
     inkscape:groupmode="layer"
     id="layer1"
     transform="translate(339.80549,-20.503057)"><g
       id="figure_1"
       transform="matrix(0.35277778,0,0,0.35277778,-339.80547,20.503056)"><g
         id="patch_1"><path
           d="M 0,725.65196 H 956.10679 V 0 H 0 Z"
           style="fill:#ffffff"
           id="path1" /></g><g
         id="axes_1"><g
           id="patch_2"><path
             d="m 134.87307,604.8 h 781.2 V 7.2 h -781.2 z"
             style="fill:#ffffff"
             id="path2" /></g><g
           id="matplotlib.axis_1"><g
             id="xtick_1"><g
               id="line2d_1"><path
                 d="M 134.87307,604.8 V 7.2"
                 clip-path="url(#p39fa06a7bc)"
                 style="fill:none;stroke:#b0b0b0;stroke-width:0.8;stroke-linecap:square"
                 id="path3" /></g><g
               id="line2d_2"><defs
                 id="defs3" /><g
                 id="g3"><use
                   xlink:href="#m045b3f2381"
                   x="134.87306"
                   y="604.79999"
                   style="stroke:#000000;stroke-width:0.8"
                   id="use3" /></g></g><g
               id="text_1"><!-- $\mathdefault{0.00}$ --><g
                 transform="matrix(0.4,0,0,-0.4,102.03935,640.97401)"
                 id="g7"><defs
                   id="defs4" /><use
                   xlink:href="#CMR17-30"
                   transform="scale(0.996264)"
                   id="use4" /><use
                   xlink:href="#CMMI12-3a"
                   transform="matrix(0.996264,0,0,0.996264,45.690477,0)"
                   id="use5" /><use
                   xlink:href="#CMR17-30"
                   transform="matrix(0.996264,0,0,0.996264,72.787654,0)"
                   id="use6" /><use
                   xlink:href="#CMR17-30"
                   transform="matrix(0.996264,0,0,0.996264,118.47813,0)"
                   id="use7" /></g></g></g><g
             id="xtick_2"><g
               id="line2d_3"><path
                 d="M 265.07307,604.8 V 7.2"
                 clip-path="url(#p39fa06a7bc)"
                 style="fill:none;stroke:#b0b0b0;stroke-width:0.8;stroke-linecap:square"
                 id="path7" /></g><g
               id="line2d_4"><g
                 id="g8"><use
                   xlink:href="#m045b3f2381"
                   x="265.07306"
                   y="604.79999"
                   style="stroke:#000000;stroke-width:0.8"
                   id="use8" /></g></g><g
               id="text_2"><!-- $\mathdefault{0.25}$ --><g
                 transform="matrix(0.4,0,0,-0.4,232.23935,640.97401)"
                 id="g12"><defs
                   id="defs8" /><use
                   xlink:href="#CMR17-30"
                   transform="scale(0.996264)"
                   id="use9" /><use
                   xlink:href="#CMMI12-3a"
                   transform="matrix(0.996264,0,0,0.996264,45.690477,0)"
                   id="use10" /><use
                   xlink:href="#CMR17-32"
                   transform="matrix(0.996264,0,0,0.996264,72.787654,0)"
                   id="use11" /><use
                   xlink:href="#CMR17-35"
                   transform="matrix(0.996264,0,0,0.996264,118.47813,0)"
                   id="use12" /></g></g></g><g
             id="xtick_3"><g
               id="line2d_5"><path
                 d="M 395.27307,604.8 V 7.2"
                 clip-path="url(#p39fa06a7bc)"
                 style="fill:none;stroke:#b0b0b0;stroke-width:0.8;stroke-linecap:square"
                 id="path12" /></g><g
               id="line2d_6"><g
                 id="g13"><use
                   xlink:href="#m045b3f2381"
                   x="395.27307"
                   y="604.79999"
                   style="stroke:#000000;stroke-width:0.8"
                   id="use13" /></g></g><g
               id="text_3"><!-- $\mathdefault{0.50}$ --><g
                 transform="matrix(0.4,0,0,-0.4,362.43935,640.97401)"
                 id="g17"><use
                   xlink:href="#CMR17-30"
                   transform="scale(0.996264)"
                   id="use14" /><use
                   xlink:href="#CMMI12-3a"
                   transform="matrix(0.996264,0,0,0.996264,45.690477,0)"
                   id="use15" /><use
                   xlink:href="#CMR17-35"
                   transform="matrix(0.996264,0,0,0.996264,72.787654,0)"
                   id="use16" /><use
                   xlink:href="#CMR17-30"
                   transform="matrix(0.996264,0,0,0.996264,118.47813,0)"
                   id="use17" /></g></g></g><g
             id="xtick_4"><g
               id="line2d_7"><path
                 d="M 525.47307,604.8 V 7.2"
                 clip-path="url(#p39fa06a7bc)"
                 style="fill:none;stroke:#b0b0b0;stroke-width:0.8;stroke-linecap:square"
                 id="path17" /></g><g
               id="line2d_8"><g
                 id="g18"><use
                   xlink:href="#m045b3f2381"
                   x="525.47308"
                   y="604.79999"
                   style="stroke:#000000;stroke-width:0.8"
                   id="use18" /></g></g><g
               id="text_4"><!-- $\mathdefault{0.75}$ --><g
                 transform="matrix(0.4,0,0,-0.4,492.63935,640.97401)"
                 id="g22"><defs
                   id="defs18" /><use
                   xlink:href="#CMR17-30"
                   transform="scale(0.996264)"
                   id="use19" /><use
                   xlink:href="#CMMI12-3a"
                   transform="matrix(0.996264,0,0,0.996264,45.690477,0)"
                   id="use20" /><use
                   xlink:href="#CMR17-37"
                   transform="matrix(0.996264,0,0,0.996264,72.787654,0)"
                   id="use21" /><use
                   xlink:href="#CMR17-35"
                   transform="matrix(0.996264,0,0,0.996264,118.47813,0)"
                   id="use22" /></g></g></g><g
             id="xtick_5"><g
               id="line2d_9"><path
                 d="M 655.67307,604.8 V 7.2"
                 clip-path="url(#p39fa06a7bc)"
                 style="fill:none;stroke:#b0b0b0;stroke-width:0.8;stroke-linecap:square"
                 id="path22" /></g><g
               id="line2d_10"><g
                 id="g23"><use
                   xlink:href="#m045b3f2381"
                   x="655.6731"
                   y="604.79999"
                   style="stroke:#000000;stroke-width:0.8"
                   id="use23" /></g></g><g
               id="text_5"><!-- $\mathdefault{1.00}$ --><g
                 transform="matrix(0.4,0,0,-0.4,622.83935,640.97401)"
                 id="g27"><defs
                   id="defs23" /><use
                   xlink:href="#CMR17-31"
                   transform="scale(0.996264)"
                   id="use24" /><use
                   xlink:href="#CMMI12-3a"
                   transform="matrix(0.996264,0,0,0.996264,45.690477,0)"
                   id="use25" /><use
                   xlink:href="#CMR17-30"
                   transform="matrix(0.996264,0,0,0.996264,72.787654,0)"
                   id="use26" /><use
                   xlink:href="#CMR17-30"
                   transform="matrix(0.996264,0,0,0.996264,118.47813,0)"
                   id="use27" /></g></g></g><g
             id="xtick_6"><g
               id="line2d_11"><path
                 d="M 785.87307,604.8 V 7.2"
                 clip-path="url(#p39fa06a7bc)"
                 style="fill:none;stroke:#b0b0b0;stroke-width:0.8;stroke-linecap:square"
                 id="path27" /></g><g
               id="line2d_12"><g
                 id="g28"><use
                   xlink:href="#m045b3f2381"
                   x="785.87305"
                   y="604.79999"
                   style="stroke:#000000;stroke-width:0.8"
                   id="use28" /></g></g><g
               id="text_6"><!-- $\mathdefault{1.25}$ --><g
                 transform="matrix(0.4,0,0,-0.4,753.03935,640.97401)"
                 id="g32"><use
                   xlink:href="#CMR17-31"
                   transform="scale(0.996264)"
                   id="use29" /><use
                   xlink:href="#CMMI12-3a"
                   transform="matrix(0.996264,0,0,0.996264,45.690477,0)"
                   id="use30" /><use
                   xlink:href="#CMR17-32"
                   transform="matrix(0.996264,0,0,0.996264,72.787654,0)"
                   id="use31" /><use
                   xlink:href="#CMR17-35"
                   transform="matrix(0.996264,0,0,0.996264,118.47813,0)"
                   id="use32" /></g></g></g><g
             id="xtick_7"><g
               id="line2d_13"><path
                 d="M 916.07307,604.8 V 7.2"
                 clip-path="url(#p39fa06a7bc)"
                 style="fill:none;stroke:#b0b0b0;stroke-width:0.8;stroke-linecap:square"
                 id="path32" /></g><g
               id="line2d_14"><g
                 id="g33"><use
                   xlink:href="#m045b3f2381"
                   x="916.07306"
                   y="604.79999"
                   style="stroke:#000000;stroke-width:0.8"
                   id="use33" /></g></g><g
               id="text_7"><!-- $\mathdefault{1.50}$ --><g
                 transform="matrix(0.4,0,0,-0.4,883.23935,640.97401)"
                 id="g37"><use
                   xlink:href="#CMR17-31"
                   transform="scale(0.996264)"
                   id="use34" /><use
                   xlink:href="#CMMI12-3a"
                   transform="matrix(0.996264,0,0,0.996264,45.690477,0)"
                   id="use35" /><use
                   xlink:href="#CMR17-35"
                   transform="matrix(0.996264,0,0,0.996264,72.787654,0)"
                   id="use36" /><use
                   xlink:href="#CMR17-30"
                   transform="matrix(0.996264,0,0,0.996264,118.47813,0)"
                   id="use37" /></g></g></g><g
             id="text_8"><!-- $\Delta t\:\unit{[\s]}$ --><g
               transform="matrix(0.5,0,0,-0.5,470.51594,706.04033)"
               id="g42"><defs
                 id="defs37" /><use
                 xlink:href="#CMR17-1"
                 transform="scale(0.996264)"
                 id="use38" /><use
                 xlink:href="#CMMI12-74"
                 transform="matrix(0.996264,0,0,0.996264,76.91959,0)"
                 id="use39" /><use
                 xlink:href="#CMR17-5b"
                 transform="matrix(0.996264,0,0,0.996264,134.28513,0)"
                 id="use40" /><use
                 xlink:href="#CMR17-73"
                 transform="matrix(0.996264,0,0,0.996264,159.15619,0)"
                 id="use41" /><use
                 xlink:href="#CMR17-5d"
                 transform="matrix(0.996264,0,0,0.996264,194.95752,0)"
                 id="use42" /></g></g><g
             id="text_9"><!-- $\times\mathdefault{10^{−2}}\mathdefault{}$ --><g
               transform="matrix(0.4,0,0,-0.4,814.03603,679.73797)"
               id="g47"><defs
                 id="defs42" /><use
                 xlink:href="#CMSY10-2"
                 transform="scale(0.996264)"
                 id="use43" /><use
                 xlink:href="#CMR17-31"
                 transform="matrix(0.996264,0,0,0.996264,77.487468,0)"
                 id="use44" /><use
                 xlink:href="#CMR17-30"
                 transform="matrix(0.996264,0,0,0.996264,123.17794,0)"
                 id="use45" /><use
                 xlink:href="#CMSY10-0"
                 transform="matrix(0.697382,0,0,0.697382,168.86842,36.153639)"
                 id="use46" /><use
                 xlink:href="#CMR17-32"
                 transform="matrix(0.697382,0,0,0.697382,223.10942,36.153639)"
                 id="use47" /></g></g></g><g
           id="matplotlib.axis_2"><g
             id="ytick_1"><g
               id="line2d_15"><path
                 d="m 134.87307,499.39025 h 781.2"
                 clip-path="url(#p39fa06a7bc)"
                 style="fill:none;stroke:#b0b0b0;stroke-width:0.8;stroke-linecap:square"
                 id="path47" /></g><g
               id="line2d_16"><defs
                 id="defs47" /><g
                 id="g48"><use
                   xlink:href="#md7189f654f"
                   x="134.87306"
                   y="499.39026"
                   style="stroke:#000000;stroke-width:0.8"
                   id="use48" /></g></g><g
               id="text_10"><!-- $\mathdefault{−4}$ --><g
                 transform="matrix(0.4,0,0,-0.4,77.101888,513.22726)"
                 id="g50"><defs
                   id="defs48" /><use
                   xlink:href="#CMSY10-0"
                   transform="scale(0.996264)"
                   id="use49" /><use
                   xlink:href="#CMR17-34"
                   transform="matrix(0.996264,0,0,0.996264,77.487468,0)"
                   id="use50" /></g></g></g><g
             id="ytick_2"><g
               id="line2d_17"><path
                 d="m 134.87307,390.54987 h 781.2"
                 clip-path="url(#p39fa06a7bc)"
                 style="fill:none;stroke:#b0b0b0;stroke-width:0.8;stroke-linecap:square"
                 id="path50" /></g><g
               id="line2d_18"><g
                 id="g51"><use
                   xlink:href="#md7189f654f"
                   x="134.87306"
                   y="390.54987"
                   style="stroke:#000000;stroke-width:0.8"
                   id="use51" /></g></g><g
               id="text_11"><!-- $\mathdefault{−2}$ --><g
                 transform="matrix(0.4,0,0,-0.4,77.101888,404.38687)"
                 id="g53"><use
                   xlink:href="#CMSY10-0"
                   transform="scale(0.996264)"
                   id="use52" /><use
                   xlink:href="#CMR17-32"
                   transform="matrix(0.996264,0,0,0.996264,77.487468,0)"
                   id="use53" /></g></g></g><g
             id="ytick_3"><g
               id="line2d_19"><path
                 d="m 134.87307,281.70949 h 781.2"
                 clip-path="url(#p39fa06a7bc)"
                 style="fill:none;stroke:#b0b0b0;stroke-width:0.8;stroke-linecap:square"
                 id="path53" /></g><g
               id="line2d_20"><g
                 id="g54"><use
                   xlink:href="#md7189f654f"
                   x="134.87306"
                   y="281.7095"
                   style="stroke:#000000;stroke-width:0.8"
                   id="use54" /></g></g><g
               id="text_12"><!-- $\mathdefault{0}$ --><g
                 transform="matrix(0.4,0,0,-0.4,108.09688,295.54649)"
                 id="g55"><use
                   xlink:href="#CMR17-30"
                   transform="scale(0.996264)"
                   id="use55" /></g></g></g><g
             id="ytick_4"><g
               id="line2d_21"><path
                 d="m 134.87307,172.86911 h 781.2"
                 clip-path="url(#p39fa06a7bc)"
                 style="fill:none;stroke:#b0b0b0;stroke-width:0.8;stroke-linecap:square"
                 id="path55" /></g><g
               id="line2d_22"><g
                 id="g56"><use
                   xlink:href="#md7189f654f"
                   x="134.87306"
                   y="172.86911"
                   style="stroke:#000000;stroke-width:0.8"
                   id="use56" /></g></g><g
               id="text_13"><!-- $\mathdefault{2}$ --><g
                 transform="matrix(0.4,0,0,-0.4,108.09688,186.70611)"
                 id="g57"><use
                   xlink:href="#CMR17-32"
                   transform="scale(0.996264)"
                   id="use57" /></g></g></g><g
             id="ytick_5"><g
               id="line2d_23"><path
                 d="m 134.87307,64.028729 h 781.2"
                 clip-path="url(#p39fa06a7bc)"
                 style="fill:none;stroke:#b0b0b0;stroke-width:0.8;stroke-linecap:square"
                 id="path57" /></g><g
               id="line2d_24"><g
                 id="g58"><use
                   xlink:href="#md7189f654f"
                   x="134.87306"
                   y="64.028732"
                   style="stroke:#000000;stroke-width:0.8"
                   id="use58" /></g></g><g
               id="text_14"><!-- $\mathdefault{4}$ --><g
                 transform="matrix(0.4,0,0,-0.4,108.09688,77.865733)"
                 id="g59"><use
                   xlink:href="#CMR17-34"
                   transform="scale(0.996264)"
                   id="use59" /></g></g></g><g
             id="text_15"><!-- $u^\prime\:\unit{[\m/\s]}$ --><g
               transform="matrix(0,-0.5,-0.5,0,44.648588,383.26791)"
               id="g66"><defs
                 id="defs59" /><use
                 xlink:href="#CMMI12-75"
                 transform="scale(0.996264)"
                 id="use60" /><use
                 xlink:href="#CMSY10-30"
                 transform="matrix(0.697382,0,0,0.697382,55.52033,36.153639)"
                 id="use61" /><use
                 xlink:href="#CMR17-5b"
                 transform="matrix(0.996264,0,0,0.996264,97.335629,0)"
                 id="use62" /><use
                 xlink:href="#CMR17-6d"
                 transform="matrix(0.996264,0,0,0.996264,122.20669,0)"
                 id="use63" /><use
                 xlink:href="#CMMI12-3d"
                 transform="matrix(0.996264,0,0,0.996264,199.12628,0)"
                 id="use64" /><use
                 xlink:href="#CMR17-73"
                 transform="matrix(0.996264,0,0,0.996264,247.9012,0)"
                 id="use65" /><use
                 xlink:href="#CMR17-5d"
                 transform="matrix(0.996264,0,0,0.996264,283.70253,0)"
                 id="use66" /></g></g></g><g
           id="line2d_25"><path
             d="m 134.87307,437.45822 3.13001,17.08208 1.0416,7.46481 1.0416,12.87784 3.10396,83.82585 1.04681,3.19662 1.0416,-22.73683 1.0416,-35.71948 2.08841,-87.41776 3.13001,-89.84343 1.0416,-11.10543 1.0416,6.6803 1.0416,8.82768 1.04681,15.23234 1.0416,2.15377 1.0416,-10.8245 2.06236,-35.58516 2.08841,-58.59626 1.0416,-14.62694 1.0416,7.34145 3.13001,52.15749 2.0832,22.75756 1.04681,6.71466 1.0416,2.22678 1.0416,4.43644 4.17161,34.68503 1.02076,6.34633 1.0416,14.61911 3.13001,59.74748 1.0416,15.16425 1.0416,13.01257 1.04681,10.96639 1.0416,14.35732 1.0416,3.54264 2.08841,-40.00541 1.0416,-28.61942 1.0416,-31.77789 1.04681,-14.321 1.0416,14.321 1.0416,27.8772 1.02076,30.6466 1.0416,14.85234 h 1.0416 l 1.0416,-1.83977 1.04681,3.67456 1.0416,-3.67456 2.08841,-41.70636 1.0416,-11.7933 1.0416,-7.9646 1.0416,-6.02767 1.04681,-2.0196 1.0416,2.0196 h 1.0416 l 2.08841,-20.43237 1.0416,-6.23309 1.0416,-8.38602 1.02076,-6.34633 1.0416,-8.53824 h 2.08841 l 1.0416,8.53824 1.0416,10.55011 1.0416,8.34289 1.04681,10.30857 1.0416,6.12176 1.0416,4.05488 1.04681,6.04324 1.0416,4.00293 1.0416,5.9657 2.08841,15.68397 1.0416,5.79828 1.0416,7.6612 1.02076,13.21715 1.0416,9.29462 1.0416,3.68421 1.0416,-3.68421 2.08841,-26.33238 2.08841,-19.40333 1.0416,-7.90304 1.0416,1.98353 1.0416,3.9514 1.04681,5.88909 1.0416,1.95281 h 1.0416 l 1.0416,3.89067 1.04681,5.79828 2.0832,15.24324 2.06236,3.7616 2.08841,-3.7616 1.0416,-9.48991 1.0416,-3.83057 1.0416,-5.78328 1.04681,-3.88055 1.0416,1.94279 1.0416,-1.94279 1.0416,1.94279 2.08841,11.55161 1.0416,3.81085 1.04681,1.8979 h 1.0416 l 1.0416,-3.80088 1.02077,-1.90787 h 3.1248 l 2.0884,11.37317 1.0416,11.19719 1.04681,12.84426 1.0416,9.03201 1.0416,10.6838 2.08841,10.51731 1.0416,3.4692 1.0416,8.59366 1.0416,3.40593 1.04681,6.75836 1.0416,10.00491 1.0416,11.47381 1.02076,4.8527 3.13001,-14.67435 1.0416,-1.65216 1.0416,-4.98263 h 1.0416 l 1.04681,-1.6697 1.0416,1.6697 1.0416,9.92603 2.08841,28.84899 1.0416,4.67538 1.0416,-18.92756 1.04681,-21.19662 1.0416,-4.99592 1.0416,4.99592 1.0416,13.13022 1.02076,9.66681 1.04161,-4.81411 1.04159,-22.97884 1.04681,-46.78084 1.0416,-65.7627 2.0832,-104.89023 1.04681,-79.39732 1.0416,-50.01442 1.0416,5.11637 h 1.04681 l 1.0416,-15.42697 1.0416,-5.19459 1.0416,2.60057 1.04681,12.90462 1.0416,-7.72317 1.0416,7.72317 1.02076,59.71608 1.04161,53.90732 1.04159,44.3693 1.04681,25.54979 1.0416,-27.71471 1.0416,-74.64041 1.0416,-60.8767 1.04681,27.26277 1.0416,77.35603 1.0416,41.66749 h 1.0416 l 2.08841,-37.18522 2.08841,-13.51557 1.0416,-11.42228 1.0416,-6.9237 1.0416,16.07321 1.02077,31.29632 1.04159,13.07298 1.0416,8.60426 1.04681,12.74175 2.0832,20.80414 1.0416,4.09686 1.04681,-6.15327 h 1.0416 l 1.0416,24.33032 1.04681,33.20128 1.0416,-1.91274 1.0416,-13.52954 1.0416,21.15103 1.04681,38.73788 1.0416,17.71369 1.0416,5.22427 4.14556,6.90207 1.04681,-13.8769 1.0416,-26.8156 1.0416,-45.14577 2.08841,-130.44303 1.0416,-30.08058 1.0416,9.36208 1.04681,22.99127 1.0416,13.51557 1.0416,-11.24862 1.0416,-53.63303 1.04681,-39.2057 1.0416,7.47285 1.0416,24.50267 1.02076,2.41617 1.0416,-9.70166 2.08841,14.51567 1.0416,-16.95665 1.0416,-27.26277 1.0416,-7.56825 1.04681,25.00527 1.0416,14.70137 1.0416,-4.87562 1.04681,-22.24905 1.0416,-46.05058 1.0416,-5.24742 2.08841,75.98803 1.0416,9.70166 1.0416,2.41009 1.02076,7.19337 3.1248,35.15435 1.04681,15.95053 1.0416,13.44649 h 1.0416 l 1.04681,-6.69753 1.0416,2.23836 1.0416,11.10543 1.0416,28.21709 1.04681,37.54607 1.0416,2.03538 1.0416,-26.87239 1.0416,-23.45062 1.04681,-13.07298 1.0416,-8.82768 1.0416,-2.22113 1.02076,4.43644 1.0416,6.61237 1.0416,-2.19845 1.04681,2.19845 2.0832,42.80501 1.0416,-6.28141 1.04681,-10.5773 1.0416,-2.13176 1.0416,-19.43456 1.0416,-40.23943 1.04681,-34.9754 1.0416,-2.37957 1.0416,7.12061 1.04681,-2.36743 1.0416,7.08434 1.0416,25.51745 1.02076,33.661 1.0416,26.01299 2.0832,35.50545 1.04681,18.17705 2.0832,31.28854 1.04681,3.82061 1.0416,-1.90787 1.0416,3.81085 1.0416,-5.72359 1.04681,-9.63887 1.0416,-3.89067 1.0416,-9.81516 1.0416,-13.95599 1.04681,-10.12428 1.0416,-4.08638 1.0416,2.04576 1.02076,-2.04576 1.0416,2.04576 1.0416,14.17412 1.04681,27.59036 3.1248,107.49365 1.04681,14.7132 1.0416,-13.06104 1.0416,-33.88422 2.08841,-85.00077 2.0832,-69.66805 1.04681,-2.14282 1.0416,8.53824 1.0416,12.64392 1.0416,10.38845 1.02076,12.29096 1.0416,10.09812 1.0416,5.99663 1.04681,1.98847 1.0416,-7.9851 1.0416,-6.04324 h 1.0416 l 1.04681,-10.17664 1.0416,-12.3862 h 1.0416 l 1.04681,6.217 1.0416,2.06169 h 1.0416 l 1.0416,8.19389 1.04681,16.13643 1.0416,19.70688 2.06236,47.08856 1.0416,9.05551 1.0416,-3.60802 1.04681,-5.44749 2.0832,-7.33008 1.0416,-5.54776 1.04681,-3.72267 h 1.0416 l 1.0416,-9.39183 1.0416,-7.60182 1.04681,-5.75333 2.0832,7.6612 1.04681,11.34364 2.0832,34.77512 1.0416,3.56116 h 1.02076 l 1.0416,-5.34888 1.04161,-16.30027 1.0468,-39.55249 1.0416,-58.27946 1.0416,-40.61227 1.0416,-33.48906 1.04681,-41.9181 1.0416,-29.03233 h 1.0416 l 1.04681,-4.92528 1.0416,-17.43702 1.0416,-30.62127 1.0416,-58.60943 1.04681,-27.734176 1.0416,24.992126 1.0416,19.05052 1.02076,24.00449 1.0416,15.70245 1.04161,25.64704 1.0416,20.05482 1.0468,14.7762 2.0832,9.72647 1.04681,23.88746 1.0416,34.7088 1.0416,20.19587 1.0416,8.82768 1.04681,6.56161 2.0832,-8.76006 1.0416,19.58456 2.08841,83.69836 1.0416,34.03349 1.02076,-9.29462 1.0416,-46.3326 1.0416,-38.77416 1.04681,-56.22456 1.0416,-38.83846 1.0416,6.97691 1.0416,18.34598 1.04681,2.26695 3.13001,-13.68923 h 1.0416 l 1.0416,6.87093 1.0416,18.06692 1.04681,24.24556 1.0416,17.20872 1.0416,8.47269 1.02076,-14.88457 1.04161,-23.93697 1.0416,-13.34379 1.04159,6.69753 2.08841,26.28115 1.0416,21.29126 3.13001,76.08259 1.0416,28.03077 2.08841,40.90607 1.0416,15.3473 1.0416,-34.60422 1.04681,-63.1394 1.0416,-33.72068 1.0416,-6.10604 1.02076,-2.04576 1.0416,-8.23613 1.0416,-4.15007 1.04681,4.15007 1.0416,-4.15007 1.0416,-10.46904 h 1.0416 l 1.04681,14.61911 1.0416,18.41277 2.0832,19.96327 1.04681,11.73257 1.0416,9.63887 1.0416,1.91274 2.08841,-3.83057 1.0416,-3.8505 1.02077,7.68107 1.0416,26.26408 1.04159,37.64224 1.0416,30.65614 1.04681,16.41297 1.0416,6.44458 1.0416,1.60041 1.04681,-4.81411 1.0416,-16.32651 1.0416,-20.1692 1.0416,-29.68397 1.04681,-53.77996 1.0416,-39.51896 1.0416,6.05886 1.0416,15.92925 1.04681,1.96811 1.0416,-17.89736 1.0416,-12.1649 1.02076,6.10604 2.08321,8.06808 h 1.0468 l 3.1248,-12.1335 1.04681,-2.04062 1.0416,-4.09686 1.0416,-2.05641 1.0416,-6.20106 1.04681,-4.16065 h 1.0416 l 1.0416,4.16065 1.04681,2.07244 1.0416,-4.15007 1.0416,-2.08302 h 1.0416 l 2.06236,12.41812 1.0416,4.09686 1.04681,2.04062 1.0416,10.12428 1.0416,13.95599 1.0416,17.57637 1.04681,13.38982 1.0416,1.89307 3.13001,-28.91789 1.0416,-3.94137 1.0416,1.97326 1.04681,3.93115 h 1.0416 l 2.06236,-7.88255 2.08321,-20.06675 2.0884,-12.29096 1.0416,-8.30002 1.0416,-10.49603 1.04681,-6.36268 1.0416,-2.13176 1.0416,4.25812 1.0416,-2.12636 2.08841,-21.56632 1.0416,-6.57843 1.04681,-2.2041 1.0416,-4.42513 2.0832,-13.41224 h 1.02076 l 1.0416,4.49358 1.0416,11.13397 2.08841,26.14679 1.0416,14.88457 1.0416,10.46904 1.04681,4.15007 1.0416,-14.61911 1.0416,-21.34601 1.04681,-26.34857 2.0832,-45.75184 2.08841,-70.62067 1.0416,5.03905 1.0416,14.96491 2.06237,-61.24919 1.0416,-5.27388 1.04159,7.90102 1.04681,25.90794 h 1.0416 l 2.08841,-79.72859 1.0416,8.24709 1.0416,21.68989 1.0416,10.68198 2.08841,-16.0634 1.0416,21.36407 1.0416,-10.62822 1.04681,-49.175676 1.0416,-5.60282 1.0416,24.992126 1.02076,8.20567 1.0416,-2.72844 1.04161,13.57329 1.0468,2.69408 1.0416,-21.7446 1.0416,-11.0377 1.0416,-5.560678 2.08841,-54.243112 1.0416,-2.927317 1.04681,8.759534 1.0416,17.32248 1.0416,25.499706 1.0416,8.372577 1.04681,5.54657 1.0416,19.19495 1.0416,-8.18496 1.02077,-33.365028 1.0416,-19.932799 1.04159,28.36869 1.0416,57.301007 1.04681,49.29058 1.0416,29.93055 2.08841,14.62694 1.0416,-4.85085 1.0416,-14.70137 1.0416,4.92528 1.04681,24.25496 1.0416,9.53055 1.0416,-31.33213 1.0416,-9.85077 2.08841,76.06924 1.0416,6.8183 1.02076,-11.3931 2.08321,-47.05394 1.0468,-26.91884 1.0416,-35.36516 1.0416,-12.93727 1.0416,7.78202 1.04681,2.58089 1.0416,30.46667 1.0416,62.91135 1.0416,32.18868 1.04681,-13.6544 1.0416,-49.47011 1.0416,-57.29991 1.04681,7.66472 1.0416,25.13252 1.0416,-37.93952 1.02077,-85.909106 1.04159,-45.619967 1.0416,5.803157 1.0416,28.583138 1.04681,41.549988 1.0416,26.84062 1.0416,7.92084 1.04681,-5.27388 1.0416,-40.41459 1.0416,-47.686793 h 1.0416 l 1.04681,5.716585 1.0416,8.52101 1.0416,30.700208 h 1.0416 l 2.08841,-76.896044 h 1.0416 l 1.02077,23.32949 1.0416,11.490676 h 1.0416 l 1.0468,-2.861925 h 1.0416 l 1.0416,11.40442 1.0416,8.47835 1.04681,2.811897 1.0416,5.60282 1.0416,11.121366 1.0416,2.7629 1.04681,-8.30947 h 1.0416 l 1.0416,19.29174 1.04681,13.57329 1.0416,5.38142 1.0416,-5.38142 h 1.0416 l 1.02076,-8.12351 1.0416,-10.92701 2.08841,-27.804023 h 1.0416 l 1.0416,-5.645175 1.0416,-19.982827 1.04681,-8.672141 1.0416,25.821793 1.0416,19.683995 1.04681,-2.790928 1.0416,-19.733507 1.0416,-8.56398 1.0416,17.063815 1.04681,19.585278 1.0416,8.28871 1.0416,35.20251 1.02077,41.77003 1.0416,-12.87207 1.04159,-36.91954 1.04681,-5.38142 2.0832,65.35398 1.0416,15.0792 1.04681,7.45396 1.0416,12.29786 1.0416,7.30408 h 1.0416 l 1.04681,7.24865 1.0416,16.69974 1.0416,43.85389 2.08841,140.54006 1.0416,25.99234 1.0416,-9.17452 1.02076,-20.60879 1.0416,-25.12692 2.08841,-98.20993 1.0416,-2.22113 2.0832,47.57241 1.04681,30.92727 1.0416,25.85236 1.0416,7.78124 1.04681,-5.82843 1.0416,-15.7653 1.0416,-20.17075 1.0416,-14.43196 h 1.04681 l 1.0416,8.27869 1.0416,6.15327 1.02077,-10.28189 1.04159,-18.84453 1.0416,-28.00083 1.0416,-33.48906 1.04681,-13.75939 1.0416,-18.67664 1.0416,2.35545 1.04681,11.68768 1.0416,2.31969 1.0416,13.79463 1.0416,26.96253 2.08841,45.23514 1.0416,16.60036 1.0416,12.22774 1.04681,8.04727 1.0416,5.98107 1.0416,7.90304 1.02076,5.87379 1.04161,9.68895 1.0416,5.75333 1.0468,-1.91274 1.0416,-3.84059 1.0416,-5.79828 h 1.0416 l 1.04681,-7.80142 1.0416,-25.91926 1.0416,-43.74879 1.04681,-57.53669 1.0416,-46.9341 1.0416,-12.11175 1.0416,-9.8009 1.04681,-27.4711 1.0416,-57.29187 1.0416,-66.235443 1.02076,-11.432964 1.0416,31.166471 1.0416,13.884266 2.08841,-5.53266 1.0416,-11.149387 1.0416,-8.435891 1.04681,14.0246 2.0832,85.692538 1.0416,27.89231 2.08841,51.13409 1.0416,25.71343 1.0416,20.50789 1.04681,15.62755 3.10397,51.5004 1.0416,12.3862 1.04159,6.12176 1.04681,10.09812 1.0416,17.85118 1.0416,34.47805 1.0416,43.52962 1.04681,27.53737 1.0416,-1.6874 v 0"
             clip-path="url(#p39fa06a7bc)"
             style="fill:none;stroke:#000000;stroke-width:1.2;stroke-linecap:square"
             id="path66" /></g><g
           id="patch_3"><path
             d="M 134.87307,604.8 V 7.2"
             style="fill:none;stroke:#000000;stroke-width:0.8;stroke-linecap:square;stroke-linejoin:miter"
             id="path67" /></g><g
           id="patch_4"><path
             d="M 916.07307,604.8 V 7.2"
             style="fill:none;stroke:#000000;stroke-width:0.8;stroke-linecap:square;stroke-linejoin:miter"
             id="path68" /></g><g
           id="patch_5"><path
             d="m 134.87307,604.8 h 781.2"
             style="fill:none;stroke:#000000;stroke-width:0.8;stroke-linecap:square;stroke-linejoin:miter"
             id="path69" /></g><g
           id="patch_6"><path
             d="m 134.87307,7.2 h 781.2"
             style="fill:none;stroke:#000000;stroke-width:0.8;stroke-linecap:square;stroke-linejoin:miter"
             id="path70" /></g></g></g><path
       style="fill:none;fill-opacity:0.22831;stroke:#5e08ff;stroke-width:0.749035;stroke-opacity:0.65098"
       d="m -231.52222,218.65988 c 0.87698,-1.16931 3.21559,-148.793955 3.21559,-148.793955 l 16.95491,131.839045"
       id="path51"
       sodipodi:nodetypes="ccc" /><path
       style="fill:none;fill-opacity:0.22831;stroke:#5e08ff;stroke-width:0.749035;stroke-linecap:butt;stroke-linejoin:round;stroke-opacity:0.65098"
       d="m -160.59904,194.42921 c 0.87698,-1.16931 3.80024,-144.409062 3.80024,-144.409062 l 8.47746,134.469982 1.37864,-69.84369 9.98243,91.98836 2.541,-62.55482 7.08854,73.16774"
       id="path51-6"
       sodipodi:nodetypes="ccccccc" /><path
       style="fill:none;fill-opacity:0.22831;stroke:#5e08ff;stroke-width:0.749035;stroke-linecap:butt;stroke-linejoin:round;stroke-opacity:0.65098"
       d="m -289.16263,218.37909 c 0.87698,-1.16931 4.67722,-132.423703 4.67722,-132.423703 l 10.52374,108.452963"
       id="path51-6-1"
       sodipodi:nodetypes="ccc" /></g></svg>
