<?xml version="1.0" encoding="utf-8" standalone="no"?>
<!DOCTYPE svg PUBLIC "-//W3C//DTD SVG 1.1//EN"
  "http://www.w3.org/Graphics/SVG/1.1/DTD/svg11.dtd">
<svg xmlns:xlink="http://www.w3.org/1999/xlink" width="1524.872483pt" height="576.442639pt" viewBox="0 0 1524.872483 576.442639" xmlns="http://www.w3.org/2000/svg" version="1.1">
 <metadata>
  <rdf:RDF xmlns:dc="http://purl.org/dc/elements/1.1/" xmlns:cc="http://creativecommons.org/ns#" xmlns:rdf="http://www.w3.org/1999/02/22-rdf-syntax-ns#">
   <cc:Work>
    <dc:type rdf:resource="http://purl.org/dc/dcmitype/StillImage"/>
    <dc:date>2024-11-28T19:57:52.943055</dc:date>
    <dc:format>image/svg+xml</dc:format>
    <dc:creator>
     <cc:Agent>
      <dc:title>Matplotlib v3.9.2, https://matplotlib.org/</dc:title>
     </cc:Agent>
    </dc:creator>
   </cc:Work>
  </rdf:RDF>
 </metadata>
 <defs>
  <style type="text/css">*{stroke-linejoin: round; stroke-linecap: butt}</style>
 </defs>
 <g id="figure_1">
  <g id="patch_1">
   <path d="M 0 576.442639 
L 1524.872483 576.442639 
L 1524.872483 0 
L 0 0 
z
" style="fill: #ffffff"/>
  </g>
  <g id="axes_1">
   <g id="patch_2">
    <path d="M 110.792959 485.28 
L 1505.792959 485.28 
L 1505.792959 7.2 
L 110.792959 7.2 
z
" style="fill: #ffffff"/>
   </g>
   <g id="patch_3">
    <path d="M -1 485.28 
L 314.804594 485.265302 
L 314.804594 485.008092 
L 359.667173 485.008092 
L 359.667173 482.22287 
L 404.529751 482.22287 
L 404.529751 473.000039 
L 449.39233 473.000039 
L 449.39233 459.419328 
L 494.254909 459.419328 
L 494.254909 424.247639 
L 539.117487 424.247639 
L 539.117487 373.430207 
L 583.980066 373.430207 
L 583.980066 303.807018 
L 628.842644 303.807018 
L 628.842644 215.863098 
L 673.705223 215.863098 
L 673.705223 145.284556 
L 718.567802 145.284556 
L 718.567802 67.423284 
L 763.43038 67.423284 
L 763.43038 51.476237 
L 808.292959 51.476237 
L 808.292959 50.175487 
L 853.155538 50.175487 
L 853.155538 90.381152 
L 898.018116 90.381152 
L 898.018116 156.917816 
L 942.880695 156.917816 
L 942.880695 233.713502 
L 987.743273 233.713502 
L 987.743273 304.865255 
L 1032.605852 304.865255 
L 1032.605852 375.958218 
L 1077.468431 375.958218 
L 1077.468431 425.180946 
L 1122.331009 425.180946 
L 1122.331009 453.047859 
L 1167.193588 453.047859 
L 1167.193588 470.126631 
L 1212.056166 470.126631 
L 1212.056166 478.805646 
L 1256.918745 478.805646 
L 1256.918745 482.825478 
L 1301.781324 482.825478 
L 1301.781324 484.273205 
L 1346.643902 484.273205 
L 1346.643902 484.934603 
L 1391.506481 484.934603 
L 1391.506481 485.206511 
L 1525.872483 485.272651 
L 1525.872483 485.272651 
" clip-path="url(#p67f5bd6779)" style="fill: none; stroke: #000000; stroke-linejoin: miter"/>
   </g>
   <g id="matplotlib.axis_1">
    <g id="xtick_1">
     <g id="line2d_1">
      <path d="M 110.792959 485.28 
L 110.792959 7.2 
" clip-path="url(#p67f5bd6779)" style="fill: none; stroke: #b0b0b0; stroke-width: 0.8; stroke-linecap: square"/>
     </g>
     <g id="line2d_2">
      <defs>
       <path id="med3ab4d345" d="M 0 0 
L 0 3.5 
" style="stroke: #000000; stroke-width: 0.8"/>
      </defs>
      <g>
       <use xlink:href="#med3ab4d345" x="110.792959" y="485.28" style="stroke: #000000; stroke-width: 0.8"/>
      </g>
     </g>
     <g id="text_1">
      <!-- $\mathdefault{−15}$ -->
      <g transform="translate(88.840065 511.768102) scale(0.26 -0.26)">
       <defs>
        <path id="CMSY10-0" d="M 4218 1472 
C 4326 1472 4442 1472 4442 1600 
C 4442 1728 4326 1728 4218 1728 
L 755 1728 
C 646 1728 531 1728 531 1600 
C 531 1472 646 1472 755 1472 
L 4218 1472 
z
" transform="scale(0.015625)"/>
        <path id="CMR17-31" d="M 1702 4058 
C 1702 4192 1696 4192 1606 4192 
C 1357 3916 979 3827 621 3827 
C 602 3827 570 3827 563 3808 
C 557 3795 557 3782 557 3648 
C 755 3648 1088 3686 1344 3839 
L 1344 461 
C 1344 236 1331 160 781 160 
L 589 160 
L 589 0 
C 896 0 1216 0 1523 0 
C 1830 0 2150 0 2458 0 
L 2458 160 
L 2266 160 
C 1715 160 1702 230 1702 458 
L 1702 4058 
z
" transform="scale(0.015625)"/>
        <path id="CMR17-35" d="M 730 3692 
C 794 3666 1056 3584 1325 3584 
C 1920 3584 2246 3911 2432 4100 
C 2432 4157 2432 4192 2394 4192 
C 2387 4192 2374 4192 2323 4163 
C 2099 4058 1837 3973 1517 3973 
C 1325 3973 1037 3999 723 4139 
C 653 4171 640 4171 634 4171 
C 602 4171 595 4164 595 4037 
L 595 2203 
C 595 2089 595 2057 659 2057 
C 691 2057 704 2070 736 2114 
C 941 2401 1222 2522 1542 2522 
C 1766 2522 2246 2382 2246 1289 
C 2246 1085 2246 715 2054 421 
C 1894 159 1645 25 1370 25 
C 947 25 518 320 403 814 
C 429 807 480 795 506 795 
C 589 795 749 840 749 1038 
C 749 1210 627 1280 506 1280 
C 358 1280 262 1190 262 1011 
C 262 454 704 -128 1382 -128 
C 2042 -128 2669 440 2669 1264 
C 2669 2030 2170 2624 1549 2624 
C 1222 2624 947 2503 730 2274 
L 730 3692 
z
" transform="scale(0.015625)"/>
       </defs>
       <use xlink:href="#CMSY10-0" transform="scale(0.996264)"/>
       <use xlink:href="#CMR17-31" transform="translate(77.487468 0) scale(0.996264)"/>
       <use xlink:href="#CMR17-35" transform="translate(123.177945 0) scale(0.996264)"/>
      </g>
     </g>
    </g>
    <g id="xtick_2">
     <g id="line2d_3">
      <path d="M 343.292959 485.28 
L 343.292959 7.2 
" clip-path="url(#p67f5bd6779)" style="fill: none; stroke: #b0b0b0; stroke-width: 0.8; stroke-linecap: square"/>
     </g>
     <g id="line2d_4">
      <g>
       <use xlink:href="#med3ab4d345" x="343.292959" y="485.28" style="stroke: #000000; stroke-width: 0.8"/>
      </g>
     </g>
     <g id="text_2">
      <!-- $\mathdefault{−10}$ -->
      <g transform="translate(321.340065 511.768102) scale(0.26 -0.26)">
       <defs>
        <path id="CMR17-30" d="M 2688 2025 
C 2688 2416 2682 3080 2413 3591 
C 2176 4039 1798 4198 1466 4198 
C 1158 4198 768 4058 525 3597 
C 269 3118 243 2524 243 2025 
C 243 1661 250 1106 448 619 
C 723 -39 1216 -128 1466 -128 
C 1760 -128 2208 -7 2470 600 
C 2662 1042 2688 1559 2688 2025 
z
M 1466 -26 
C 1056 -26 813 325 723 812 
C 653 1188 653 1738 653 2096 
C 653 2588 653 2997 736 3387 
C 858 3929 1216 4096 1466 4096 
C 1728 4096 2067 3923 2189 3400 
C 2272 3036 2278 2607 2278 2096 
C 2278 1680 2278 1169 2202 792 
C 2067 95 1690 -26 1466 -26 
z
" transform="scale(0.015625)"/>
       </defs>
       <use xlink:href="#CMSY10-0" transform="scale(0.996264)"/>
       <use xlink:href="#CMR17-31" transform="translate(77.487468 0) scale(0.996264)"/>
       <use xlink:href="#CMR17-30" transform="translate(123.177945 0) scale(0.996264)"/>
      </g>
     </g>
    </g>
    <g id="xtick_3">
     <g id="line2d_5">
      <path d="M 575.792959 485.28 
L 575.792959 7.2 
" clip-path="url(#p67f5bd6779)" style="fill: none; stroke: #b0b0b0; stroke-width: 0.8; stroke-linecap: square"/>
     </g>
     <g id="line2d_6">
      <g>
       <use xlink:href="#med3ab4d345" x="575.792959" y="485.28" style="stroke: #000000; stroke-width: 0.8"/>
      </g>
     </g>
     <g id="text_3">
      <!-- $\mathdefault{−5}$ -->
      <g transform="translate(559.779827 511.768102) scale(0.26 -0.26)">
       <use xlink:href="#CMSY10-0" transform="scale(0.996264)"/>
       <use xlink:href="#CMR17-35" transform="translate(77.487468 0) scale(0.996264)"/>
      </g>
     </g>
    </g>
    <g id="xtick_4">
     <g id="line2d_7">
      <path d="M 808.292959 485.28 
L 808.292959 7.2 
" clip-path="url(#p67f5bd6779)" style="fill: none; stroke: #b0b0b0; stroke-width: 0.8; stroke-linecap: square"/>
     </g>
     <g id="line2d_8">
      <g>
       <use xlink:href="#med3ab4d345" x="808.292959" y="485.28" style="stroke: #000000; stroke-width: 0.8"/>
      </g>
     </g>
     <g id="text_4">
      <!-- $\mathdefault{0}$ -->
      <g transform="translate(802.353197 511.768102) scale(0.26 -0.26)">
       <use xlink:href="#CMR17-30" transform="scale(0.996264)"/>
      </g>
     </g>
    </g>
    <g id="xtick_5">
     <g id="line2d_9">
      <path d="M 1040.792959 485.28 
L 1040.792959 7.2 
" clip-path="url(#p67f5bd6779)" style="fill: none; stroke: #b0b0b0; stroke-width: 0.8; stroke-linecap: square"/>
     </g>
     <g id="line2d_10">
      <g>
       <use xlink:href="#med3ab4d345" x="1040.792959" y="485.28" style="stroke: #000000; stroke-width: 0.8"/>
      </g>
     </g>
     <g id="text_5">
      <!-- $\mathdefault{5}$ -->
      <g transform="translate(1034.853197 511.768102) scale(0.26 -0.26)">
       <use xlink:href="#CMR17-35" transform="scale(0.996264)"/>
      </g>
     </g>
    </g>
    <g id="xtick_6">
     <g id="line2d_11">
      <path d="M 1273.292959 485.28 
L 1273.292959 7.2 
" clip-path="url(#p67f5bd6779)" style="fill: none; stroke: #b0b0b0; stroke-width: 0.8; stroke-linecap: square"/>
     </g>
     <g id="line2d_12">
      <g>
       <use xlink:href="#med3ab4d345" x="1273.292959" y="485.28" style="stroke: #000000; stroke-width: 0.8"/>
      </g>
     </g>
     <g id="text_6">
      <!-- $\mathdefault{10}$ -->
      <g transform="translate(1261.413435 511.768102) scale(0.26 -0.26)">
       <use xlink:href="#CMR17-31" transform="scale(0.996264)"/>
       <use xlink:href="#CMR17-30" transform="translate(45.690477 0) scale(0.996264)"/>
      </g>
     </g>
    </g>
    <g id="xtick_7">
     <g id="line2d_13">
      <path d="M 1505.792959 485.28 
L 1505.792959 7.2 
" clip-path="url(#p67f5bd6779)" style="fill: none; stroke: #b0b0b0; stroke-width: 0.8; stroke-linecap: square"/>
     </g>
     <g id="line2d_14">
      <g>
       <use xlink:href="#med3ab4d345" x="1505.792959" y="485.28" style="stroke: #000000; stroke-width: 0.8"/>
      </g>
     </g>
     <g id="text_7">
      <!-- $\mathdefault{15}$ -->
      <g transform="translate(1493.913435 511.768102) scale(0.26 -0.26)">
       <use xlink:href="#CMR17-31" transform="scale(0.996264)"/>
       <use xlink:href="#CMR17-35" transform="translate(45.690477 0) scale(0.996264)"/>
      </g>
     </g>
    </g>
    <g id="text_8">
     <!-- $u^\prime\:\unit{[\m/\s]}$ -->
     <g transform="translate(757.981642 561.147994) scale(0.325 -0.325)">
      <defs>
       <path id="CMMI12-75" d="M 2182 370 
C 2266 13 2573 -64 2726 -64 
C 2931 -64 3085 70 3187 287 
C 3296 517 3379 894 3379 913 
C 3379 945 3354 971 3315 971 
C 3258 971 3251 939 3226 843 
C 3110 402 2995 64 2739 64 
C 2547 64 2547 275 2547 358 
C 2547 505 2566 568 2630 837 
C 2675 1009 2720 1181 2758 1360 
L 3021 2401 
C 3066 2561 3066 2574 3066 2593 
C 3066 2689 2989 2753 2893 2753 
C 2707 2753 2662 2593 2624 2433 
C 2560 2184 2214 811 2170 588 
C 2163 588 1914 64 1446 64 
C 1114 64 1050 351 1050 588 
C 1050 952 1229 1462 1395 1890 
C 1472 2095 1504 2178 1504 2305 
C 1504 2580 1306 2816 998 2816 
C 410 2816 173 1890 173 1839 
C 173 1814 198 1782 243 1782 
C 301 1782 307 1807 333 1896 
C 486 2441 736 2682 979 2682 
C 1043 2682 1146 2682 1146 2478 
C 1146 2312 1075 2127 979 1884 
C 698 1124 666 881 666 690 
C 666 38 1158 -64 1421 -64 
C 1830 -64 2054 217 2182 370 
z
" transform="scale(0.015625)"/>
       <path id="CMSY10-30" d="M 1619 3040 
C 1651 3117 1677 3174 1677 3238 
C 1677 3424 1510 3578 1312 3578 
C 1133 3578 1018 3456 973 3290 
L 211 493 
C 211 480 186 410 186 403 
C 186 333 352 288 403 288 
C 442 288 448 307 486 390 
L 1619 3040 
z
" transform="scale(0.015625)"/>
       <path id="CMR17-5b" d="M 1504 -1600 
L 1504 -1377 
L 902 -1377 
L 902 4544 
L 1504 4544 
L 1504 4767 
L 678 4767 
L 678 -1600 
L 1504 -1600 
z
" transform="scale(0.015625)"/>
       <path id="CMR17-6d" d="M 4326 1933 
C 4326 2252 4269 2790 3507 2790 
C 3072 2790 2771 2496 2656 2151 
L 2650 2151 
C 2573 2676 2195 2790 1837 2790 
C 1331 2790 1069 2400 973 2144 
L 966 2144 
L 966 2790 
L 211 2720 
L 211 2554 
C 589 2554 646 2515 646 2208 
L 646 428 
C 646 184 621 153 211 153 
L 211 -13 
C 365 0 646 0 813 0 
C 979 0 1267 0 1421 -13 
L 1421 153 
C 1011 153 986 178 986 428 
L 986 1658 
C 986 2247 1344 2688 1792 2688 
C 2266 2688 2317 2266 2317 1958 
L 2317 428 
C 2317 184 2291 153 1882 153 
L 1882 -13 
C 2035 0 2317 0 2483 0 
C 2650 0 2938 0 3091 -13 
L 3091 153 
C 2682 153 2656 178 2656 428 
L 2656 1658 
C 2656 2247 3014 2688 3462 2688 
C 3936 2688 3987 2266 3987 1958 
L 3987 428 
C 3987 184 3962 153 3552 153 
L 3552 -13 
C 3706 0 3987 0 4154 0 
C 4320 0 4608 0 4762 -13 
L 4762 153 
C 4352 153 4326 178 4326 428 
L 4326 1933 
z
" transform="scale(0.015625)"/>
       <path id="CMMI12-3d" d="M 2746 4562 
C 2746 4569 2784 4666 2784 4678 
C 2784 4755 2720 4800 2669 4800 
C 2637 4800 2579 4800 2528 4659 
L 384 -1363 
C 384 -1370 346 -1465 346 -1478 
C 346 -1555 410 -1600 461 -1600 
C 499 -1600 557 -1593 602 -1459 
L 2746 4562 
z
" transform="scale(0.015625)"/>
       <path id="CMR17-73" d="M 1978 2697 
C 1978 2813 1971 2819 1933 2819 
C 1907 2819 1901 2813 1824 2717 
C 1805 2691 1747 2626 1728 2601 
C 1523 2819 1235 2819 1126 2819 
C 416 2819 160 2447 160 2076 
C 160 1498 813 1365 998 1325 
C 1402 1243 1542 1217 1677 1101 
C 1760 1025 1901 884 1901 654 
C 1901 384 1747 38 1158 38 
C 602 38 403 460 288 1021 
C 269 1110 269 1117 218 1117 
C 166 1117 160 1110 160 983 
L 160 63 
C 160 -51 166 -58 205 -58 
C 237 -58 243 -51 275 0 
C 314 57 410 211 448 276 
C 576 103 800 -64 1158 -64 
C 1792 -64 2131 283 2131 784 
C 2131 1112 1958 1285 1875 1362 
C 1683 1561 1459 1606 1190 1657 
C 838 1735 390 1825 390 2217 
C 390 2383 480 2737 1126 2737 
C 1811 2737 1850 2094 1862 1888 
C 1869 1856 1901 1849 1920 1849 
C 1978 1849 1978 1869 1978 1978 
L 1978 2697 
z
" transform="scale(0.015625)"/>
       <path id="CMR17-5d" d="M 915 4767 
L 90 4767 
L 90 4544 
L 691 4544 
L 691 -1377 
L 90 -1377 
L 90 -1600 
L 915 -1600 
L 915 4767 
z
" transform="scale(0.015625)"/>
      </defs>
      <use xlink:href="#CMMI12-75" transform="scale(0.996264)"/>
      <use xlink:href="#CMSY10-30" transform="translate(55.52033 36.153639) scale(0.697382)"/>
      <use xlink:href="#CMR17-5b" transform="translate(97.335629 0) scale(0.996264)"/>
      <use xlink:href="#CMR17-6d" transform="translate(122.206688 0) scale(0.996264)"/>
      <use xlink:href="#CMMI12-3d" transform="translate(199.126278 0) scale(0.996264)"/>
      <use xlink:href="#CMR17-73" transform="translate(247.901196 0) scale(0.996264)"/>
      <use xlink:href="#CMR17-5d" transform="translate(283.702534 0) scale(0.996264)"/>
     </g>
    </g>
   </g>
   <g id="matplotlib.axis_2">
    <g id="ytick_1">
     <g id="line2d_15">
      <path d="M 110.792959 485.28 
L 1505.792959 485.28 
" clip-path="url(#p67f5bd6779)" style="fill: none; stroke: #b0b0b0; stroke-width: 0.8; stroke-linecap: square"/>
     </g>
     <g id="line2d_16">
      <defs>
       <path id="m718cca3192" d="M 0 0 
L -3.5 0 
" style="stroke: #000000; stroke-width: 0.8"/>
      </defs>
      <g>
       <use xlink:href="#m718cca3192" x="110.792959" y="485.28" style="stroke: #000000; stroke-width: 0.8"/>
      </g>
     </g>
     <g id="text_9">
      <!-- $\mathdefault{0.00}$ -->
      <g transform="translate(59.609121 494.274051) scale(0.26 -0.26)">
       <defs>
        <path id="CMMI12-3a" d="M 1178 307 
C 1178 492 1024 619 870 619 
C 685 619 557 466 557 313 
C 557 128 710 0 864 0 
C 1050 0 1178 153 1178 307 
z
" transform="scale(0.015625)"/>
       </defs>
       <use xlink:href="#CMR17-30" transform="scale(0.996264)"/>
       <use xlink:href="#CMMI12-3a" transform="translate(45.690477 0) scale(0.996264)"/>
       <use xlink:href="#CMR17-30" transform="translate(72.787654 0) scale(0.996264)"/>
       <use xlink:href="#CMR17-30" transform="translate(118.478131 0) scale(0.996264)"/>
      </g>
     </g>
    </g>
    <g id="ytick_2">
     <g id="line2d_17">
      <path d="M 110.792959 414.37909 
L 1505.792959 414.37909 
" clip-path="url(#p67f5bd6779)" style="fill: none; stroke: #b0b0b0; stroke-width: 0.8; stroke-linecap: square"/>
     </g>
     <g id="line2d_18">
      <g>
       <use xlink:href="#m718cca3192" x="110.792959" y="414.37909" style="stroke: #000000; stroke-width: 0.8"/>
      </g>
     </g>
     <g id="text_10">
      <!-- $\mathdefault{0.02}$ -->
      <g transform="translate(59.609121 423.373141) scale(0.26 -0.26)">
       <defs>
        <path id="CMR17-32" d="M 2669 989 
L 2554 989 
C 2490 536 2438 459 2413 420 
C 2381 369 1920 369 1830 369 
L 602 369 
C 832 619 1280 1072 1824 1597 
C 2214 1967 2669 2402 2669 3035 
C 2669 3790 2067 4224 1395 4224 
C 691 4224 262 3604 262 3030 
C 262 2780 448 2748 525 2748 
C 589 2748 781 2787 781 3010 
C 781 3207 614 3264 525 3264 
C 486 3264 448 3258 422 3245 
C 544 3790 915 4058 1306 4058 
C 1862 4058 2227 3617 2227 3035 
C 2227 2479 1901 2000 1536 1584 
L 262 146 
L 262 0 
L 2515 0 
L 2669 989 
z
" transform="scale(0.015625)"/>
       </defs>
       <use xlink:href="#CMR17-30" transform="scale(0.996264)"/>
       <use xlink:href="#CMMI12-3a" transform="translate(45.690477 0) scale(0.996264)"/>
       <use xlink:href="#CMR17-30" transform="translate(72.787654 0) scale(0.996264)"/>
       <use xlink:href="#CMR17-32" transform="translate(118.478131 0) scale(0.996264)"/>
      </g>
     </g>
    </g>
    <g id="ytick_3">
     <g id="line2d_19">
      <path d="M 110.792959 343.478179 
L 1505.792959 343.478179 
" clip-path="url(#p67f5bd6779)" style="fill: none; stroke: #b0b0b0; stroke-width: 0.8; stroke-linecap: square"/>
     </g>
     <g id="line2d_20">
      <g>
       <use xlink:href="#m718cca3192" x="110.792959" y="343.478179" style="stroke: #000000; stroke-width: 0.8"/>
      </g>
     </g>
     <g id="text_11">
      <!-- $\mathdefault{0.04}$ -->
      <g transform="translate(59.609121 352.47223) scale(0.26 -0.26)">
       <defs>
        <path id="CMR17-34" d="M 2150 4122 
C 2150 4256 2144 4256 2029 4256 
L 128 1254 
L 128 1088 
L 1779 1088 
L 1779 457 
C 1779 224 1766 160 1318 160 
L 1197 160 
L 1197 0 
C 1402 0 1747 0 1965 0 
C 2182 0 2528 0 2733 0 
L 2733 160 
L 2611 160 
C 2163 160 2150 224 2150 457 
L 2150 1088 
L 2803 1088 
L 2803 1254 
L 2150 1254 
L 2150 4122 
z
M 1798 3703 
L 1798 1254 
L 256 1254 
L 1798 3703 
z
" transform="scale(0.015625)"/>
       </defs>
       <use xlink:href="#CMR17-30" transform="scale(0.996264)"/>
       <use xlink:href="#CMMI12-3a" transform="translate(45.690477 0) scale(0.996264)"/>
       <use xlink:href="#CMR17-30" transform="translate(72.787654 0) scale(0.996264)"/>
       <use xlink:href="#CMR17-34" transform="translate(118.478131 0) scale(0.996264)"/>
      </g>
     </g>
    </g>
    <g id="ytick_4">
     <g id="line2d_21">
      <path d="M 110.792959 272.577269 
L 1505.792959 272.577269 
" clip-path="url(#p67f5bd6779)" style="fill: none; stroke: #b0b0b0; stroke-width: 0.8; stroke-linecap: square"/>
     </g>
     <g id="line2d_22">
      <g>
       <use xlink:href="#m718cca3192" x="110.792959" y="272.577269" style="stroke: #000000; stroke-width: 0.8"/>
      </g>
     </g>
     <g id="text_12">
      <!-- $\mathdefault{0.06}$ -->
      <g transform="translate(59.609121 281.57132) scale(0.26 -0.26)">
       <defs>
        <path id="CMR17-36" d="M 678 2176 
C 678 3690 1395 4032 1811 4032 
C 1946 4032 2272 4009 2400 3776 
C 2298 3776 2106 3776 2106 3553 
C 2106 3381 2246 3323 2336 3323 
C 2394 3323 2566 3348 2566 3560 
C 2566 3954 2246 4179 1805 4179 
C 1043 4179 243 3390 243 1984 
C 243 253 966 -128 1478 -128 
C 2099 -128 2688 427 2688 1283 
C 2688 2081 2170 2662 1517 2662 
C 1126 2662 838 2407 678 1960 
L 678 2176 
z
M 1478 25 
C 691 25 691 1200 691 1436 
C 691 1896 909 2560 1504 2560 
C 1613 2560 1926 2560 2138 2120 
C 2253 1870 2253 1609 2253 1289 
C 2253 944 2253 690 2118 434 
C 1978 171 1773 25 1478 25 
z
" transform="scale(0.015625)"/>
       </defs>
       <use xlink:href="#CMR17-30" transform="scale(0.996264)"/>
       <use xlink:href="#CMMI12-3a" transform="translate(45.690477 0) scale(0.996264)"/>
       <use xlink:href="#CMR17-30" transform="translate(72.787654 0) scale(0.996264)"/>
       <use xlink:href="#CMR17-36" transform="translate(118.478131 0) scale(0.996264)"/>
      </g>
     </g>
    </g>
    <g id="ytick_5">
     <g id="line2d_23">
      <path d="M 110.792959 201.676359 
L 1505.792959 201.676359 
" clip-path="url(#p67f5bd6779)" style="fill: none; stroke: #b0b0b0; stroke-width: 0.8; stroke-linecap: square"/>
     </g>
     <g id="line2d_24">
      <g>
       <use xlink:href="#m718cca3192" x="110.792959" y="201.676359" style="stroke: #000000; stroke-width: 0.8"/>
      </g>
     </g>
     <g id="text_13">
      <!-- $\mathdefault{0.08}$ -->
      <g transform="translate(59.609121 210.67041) scale(0.26 -0.26)">
       <defs>
        <path id="CMR17-38" d="M 1741 2264 
C 2144 2467 2554 2773 2554 3263 
C 2554 3841 1990 4179 1472 4179 
C 890 4179 378 3759 378 3180 
C 378 3021 416 2747 666 2505 
C 730 2442 998 2251 1171 2130 
C 883 1983 211 1634 211 934 
C 211 279 838 -128 1459 -128 
C 2144 -128 2720 362 2720 1010 
C 2720 1590 2330 1857 2074 2029 
L 1741 2264 
z
M 902 2822 
C 851 2854 595 3051 595 3351 
C 595 3739 998 4032 1459 4032 
C 1965 4032 2336 3676 2336 3262 
C 2336 2669 1670 2331 1638 2331 
C 1632 2331 1626 2331 1574 2370 
L 902 2822 
z
M 2080 1519 
C 2176 1449 2483 1240 2483 851 
C 2483 381 2010 25 1472 25 
C 890 25 448 438 448 940 
C 448 1443 838 1862 1280 2060 
L 2080 1519 
z
" transform="scale(0.015625)"/>
       </defs>
       <use xlink:href="#CMR17-30" transform="scale(0.996264)"/>
       <use xlink:href="#CMMI12-3a" transform="translate(45.690477 0) scale(0.996264)"/>
       <use xlink:href="#CMR17-30" transform="translate(72.787654 0) scale(0.996264)"/>
       <use xlink:href="#CMR17-38" transform="translate(118.478131 0) scale(0.996264)"/>
      </g>
     </g>
    </g>
    <g id="ytick_6">
     <g id="line2d_25">
      <path d="M 110.792959 130.775449 
L 1505.792959 130.775449 
" clip-path="url(#p67f5bd6779)" style="fill: none; stroke: #b0b0b0; stroke-width: 0.8; stroke-linecap: square"/>
     </g>
     <g id="line2d_26">
      <g>
       <use xlink:href="#m718cca3192" x="110.792959" y="130.775449" style="stroke: #000000; stroke-width: 0.8"/>
      </g>
     </g>
     <g id="text_14">
      <!-- $\mathdefault{0.10}$ -->
      <g transform="translate(59.609121 139.7695) scale(0.26 -0.26)">
       <use xlink:href="#CMR17-30" transform="scale(0.996264)"/>
       <use xlink:href="#CMMI12-3a" transform="translate(45.690477 0) scale(0.996264)"/>
       <use xlink:href="#CMR17-31" transform="translate(72.787654 0) scale(0.996264)"/>
       <use xlink:href="#CMR17-30" transform="translate(118.478131 0) scale(0.996264)"/>
      </g>
     </g>
    </g>
    <g id="ytick_7">
     <g id="line2d_27">
      <path d="M 110.792959 59.874538 
L 1505.792959 59.874538 
" clip-path="url(#p67f5bd6779)" style="fill: none; stroke: #b0b0b0; stroke-width: 0.8; stroke-linecap: square"/>
     </g>
     <g id="line2d_28">
      <g>
       <use xlink:href="#m718cca3192" x="110.792959" y="59.874538" style="stroke: #000000; stroke-width: 0.8"/>
      </g>
     </g>
     <g id="text_15">
      <!-- $\mathdefault{0.12}$ -->
      <g transform="translate(59.609121 68.868589) scale(0.26 -0.26)">
       <use xlink:href="#CMR17-30" transform="scale(0.996264)"/>
       <use xlink:href="#CMMI12-3a" transform="translate(45.690477 0) scale(0.996264)"/>
       <use xlink:href="#CMR17-31" transform="translate(72.787654 0) scale(0.996264)"/>
       <use xlink:href="#CMR17-32" transform="translate(118.478131 0) scale(0.996264)"/>
      </g>
     </g>
    </g>
    <g id="text_16">
     <!-- $p(u^\prime)$ -->
     <g transform="translate(31.541565 278.049707) rotate(-90) scale(0.325 -0.325)">
      <defs>
       <path id="CMMI12-70" d="M 275 -789 
C 230 -980 205 -1031 -58 -1031 
C -134 -1031 -198 -1031 -198 -1152 
C -198 -1165 -192 -1216 -122 -1216 
C -38 -1216 51 -1216 134 -1216 
L 410 -1216 
C 544 -1216 870 -1216 1005 -1216 
C 1043 -1216 1120 -1216 1120 -1101 
C 1120 -1031 1075 -1031 966 -1031 
C 672 -1031 653 -987 653 -937 
C 653 -861 941 219 979 364 
C 1050 185 1222 -64 1555 -64 
C 2278 -64 3059 875 3059 1814 
C 3059 2401 2726 2816 2246 2816 
C 1837 2816 1491 2420 1421 2331 
C 1370 2650 1120 2816 864 2816 
C 678 2816 531 2727 410 2484 
C 294 2254 205 1865 205 1839 
C 205 1814 230 1782 275 1782 
C 326 1782 333 1788 371 1935 
C 467 2312 589 2689 845 2689 
C 992 2689 1043 2587 1043 2397 
C 1043 2245 1024 2181 998 2067 
L 275 -789 
z
M 1382 1993 
C 1427 2171 1606 2357 1709 2446 
C 1779 2510 1990 2689 2234 2689 
C 2515 2689 2643 2408 2643 2076 
C 2643 1769 2464 1047 2304 715 
C 2144 370 1850 64 1555 64 
C 1120 64 1050 613 1050 639 
C 1050 658 1062 709 1069 741 
L 1382 1993 
z
" transform="scale(0.015625)"/>
       <path id="CMR17-28" d="M 1958 -1561 
C 1958 -1555 1958 -1542 1939 -1523 
C 1645 -1224 858 -407 858 1581 
C 858 3569 1632 4379 1946 4697 
C 1946 4704 1958 4717 1958 4736 
C 1958 4755 1939 4768 1914 4768 
C 1843 4768 1299 4296 986 3594 
C 666 2887 576 2199 576 1588 
C 576 1128 621 351 1005 -471 
C 1312 -1135 1837 -1600 1914 -1600 
C 1946 -1600 1958 -1587 1958 -1561 
z
" transform="scale(0.015625)"/>
       <path id="CMR17-29" d="M 1683 1581 
C 1683 2040 1638 2817 1254 3639 
C 947 4303 422 4768 346 4768 
C 326 4768 301 4761 301 4729 
C 301 4717 307 4710 314 4697 
C 621 4378 1402 3568 1402 1584 
C 1402 -407 627 -1217 314 -1537 
C 307 -1549 301 -1556 301 -1568 
C 301 -1600 326 -1600 346 -1600 
C 416 -1600 960 -1128 1274 -426 
C 1594 281 1683 969 1683 1581 
z
" transform="scale(0.015625)"/>
      </defs>
      <use xlink:href="#CMMI12-70" transform="scale(0.996264)"/>
      <use xlink:href="#CMR17-28" transform="translate(48.959514 0) scale(0.996264)"/>
      <use xlink:href="#CMMI12-75" transform="translate(84.240282 0) scale(0.996264)"/>
      <use xlink:href="#CMSY10-30" transform="translate(139.760611 36.153639) scale(0.697382)"/>
      <use xlink:href="#CMR17-29" transform="translate(159.436704 0) scale(0.996264)"/>
     </g>
    </g>
   </g>
   <g id="line2d_29">
    <path d="M 313.249727 483.999564 
L 326.209551 483.545503 
L 343.052837 482.737488 
L 356.897435 481.833642 
L 356.897435 481.833642 
L 368.475164 480.866686 
L 368.475164 480.866686 
L 379.805433 479.693088 
L 379.805433 479.693088 
L 389.926753 478.418928 
L 389.926753 478.418928 
L 399.542186 476.978106 
L 399.542186 476.978106 
L 408.567984 475.391406 
L 408.567984 475.391406 
L 416.926336 473.693228 
L 416.926336 473.693228 
L 424.545687 471.931338 
L 424.545687 471.931338 
L 432.345922 469.894186 
L 432.345922 469.894186 
L 439.321462 467.853554 
L 439.321462 467.853554 
L 446.439082 465.539655 
L 446.439082 465.539655 
L 453.700494 462.918154 
L 453.700494 462.918154 
L 460.040532 460.397634 
L 460.040532 460.397634 
L 466.488705 457.597297 
L 466.488705 457.597297 
L 473.046331 454.489006 
L 473.046331 454.489006 
L 479.714682 451.042564 
L 479.714682 451.042564 
L 485.357136 447.889018 
L 485.357136 447.889018 
L 491.078175 444.45852 
L 491.078175 444.45852 
L 496.878478 440.730465 
L 496.878478 440.730465 
L 502.758961 436.683246 
L 502.758961 436.683246 
L 508.720331 432.294629 
L 508.720331 432.294629 
L 514.763517 427.541581 
L 514.763517 427.541581 
L 520.889409 422.400594 
L 520.889409 422.400594 
L 527.098716 416.848018 
L 527.098716 416.848018 
L 533.392436 410.859891 
L 533.392436 410.859891 
L 539.771454 404.412546 
L 539.771454 404.412546 
L 546.236703 397.482812 
L 546.236703 397.482812 
L 551.471552 391.576774 
L 551.471552 391.576774 
L 556.762699 385.336901 
L 556.762699 385.336901 
L 562.110589 378.753147 
L 562.110589 378.753147 
L 568.876102 370.025813 
L 568.876102 370.025813 
L 575.731997 360.731328 
L 575.731997 360.731328 
L 582.679394 350.857236 
L 582.679394 350.857236 
L 589.719211 340.395361 
L 589.719211 340.395361 
L 596.852683 329.341815 
L 596.852683 329.341815 
L 604.080703 317.698803 
L 604.080703 317.698803 
L 611.404332 305.474719 
L 611.404332 305.474719 
L 618.824816 292.684947 
L 618.824816 292.684947 
L 627.858641 276.624976 
L 627.858641 276.624976 
L 637.035397 259.84394 
L 637.035397 259.84394 
L 647.924786 239.462338 
L 647.924786 239.462338 
L 665.442996 206.086662 
L 665.442996 206.086662 
L 683.468921 171.857509 
L 683.468921 171.857509 
L 693.519998 153.23445 
L 693.519998 153.23445 
L 702.015688 137.947148 
L 702.015688 137.947148 
L 708.891778 125.971736 
L 708.891778 125.971736 
L 715.83931 114.307424 
L 715.83931 114.307424 
L 722.858685 103.037149 
L 722.858685 103.037149 
L 728.170873 94.894292 
L 728.170873 94.894292 
L 733.524306 87.058059 
L 733.524306 87.058059 
L 738.919199 79.566259 
L 738.919199 79.566259 
L 744.355872 72.456926 
L 744.355872 72.456926 
L 749.834577 65.768334 
L 749.834577 65.768334 
L 753.510541 61.561849 
L 753.510541 61.561849 
L 757.205482 57.570429 
L 757.205482 57.570429 
L 760.919358 53.805313 
L 760.919358 53.805313 
L 764.652392 50.277313 
L 764.652392 50.277313 
L 768.404496 46.997348 
L 768.404496 46.997348 
L 772.176022 43.975716 
L 772.176022 43.975716 
L 775.966795 41.222886 
L 775.966795 41.222886 
L 779.776991 38.74871 
L 779.776991 38.74871 
L 783.606917 36.562641 
L 783.606917 36.562641 
L 787.456318 34.674045 
L 787.456318 34.674045 
L 791.325536 33.091511 
L 791.325536 33.091511 
L 795.214489 31.823338 
L 795.214489 31.823338 
L 799.123489 30.877152 
L 799.123489 30.877152 
L 803.052399 30.260123 
L 803.052399 30.260123 
L 807.001486 29.978711 
L 807.001486 29.978711 
L 810.970707 30.038753 
L 810.970707 30.038753 
L 814.960324 30.44538 
L 814.960324 30.44538 
L 818.970256 31.202958 
L 818.970256 31.202958 
L 823.000671 32.315092 
L 823.000671 32.315092 
L 827.051709 33.784587 
L 827.051709 33.784587 
L 831.123505 35.613414 
L 831.123505 35.613414 
L 835.215914 37.802521 
L 835.215914 37.802521 
L 839.329304 40.352207 
L 839.329304 40.352207 
L 843.46367 43.261663 
L 843.46367 43.261663 
L 847.619008 46.529096 
L 847.619008 46.529096 
L 851.79568 50.152052 
L 851.79568 50.152052 
L 855.9935 54.126647 
L 855.9935 54.126647 
L 860.212789 58.448463 
L 860.212789 58.448463 
L 864.453491 63.111734 
L 864.453491 63.111734 
L 868.715705 68.109849 
L 868.715705 68.109849 
L 872.99974 73.43549 
L 872.99974 73.43549 
L 877.305413 79.079761 
L 877.305413 79.079761 
L 881.633079 85.033499 
L 881.633079 85.033499 
L 885.982699 91.286089 
L 885.982699 91.286089 
L 892.548633 101.200459 
L 892.548633 101.200459 
L 899.164458 111.719481 
L 899.164458 111.719481 
L 905.830749 122.797443 
L 905.830749 122.797443 
L 912.547907 134.38456 
L 912.547907 134.38456 
L 921.583461 150.532798 
L 921.583461 150.532798 
L 930.710816 167.356465 
L 930.710816 167.356465 
L 942.25027 189.119039 
L 942.25027 189.119039 
L 977.753164 256.510626 
L 977.753164 256.510626 
L 987.448944 274.3134 
L 987.448944 274.3134 
L 997.242635 291.777143 
L 997.242635 291.777143 
L 1004.652652 304.576077 
L 1004.652652 304.576077 
L 1012.118366 317.063588 
L 1012.118366 317.063588 
L 1019.640662 329.195463 
L 1019.640662 329.195463 
L 1027.219548 340.930429 
L 1027.219548 340.930429 
L 1034.855727 352.23299 
L 1034.855727 352.23299 
L 1042.549198 363.071497 
L 1042.549198 363.071497 
L 1047.71035 370.026519 
L 1047.71035 370.026519 
L 1052.897392 376.757374 
L 1052.897392 376.757374 
L 1058.11034 383.258504 
L 1058.11034 383.258504 
L 1063.349355 389.525557 
L 1063.349355 389.525557 
L 1068.614452 395.555007 
L 1068.614452 395.555007 
L 1073.906152 401.344879 
L 1073.906152 401.344879 
L 1079.224111 406.893197 
L 1079.224111 406.893197 
L 1084.568672 412.199683 
L 1084.568672 412.199683 
L 1089.939841 417.264604 
L 1089.939841 417.264604 
L 1095.337975 422.089426 
L 1095.337975 422.089426 
L 1100.762892 426.675946 
L 1100.762892 426.675946 
L 1106.214771 431.027079 
L 1106.214771 431.027079 
L 1111.694145 435.146717 
L 1111.694145 435.146717 
L 1117.20048 439.038624 
L 1117.20048 439.038624 
L 1122.73431 442.70799 
L 1122.73431 442.70799 
L 1128.295635 446.160177 
L 1128.295635 446.160177 
L 1133.88481 449.401278 
L 1133.88481 449.401278 
L 1139.501656 452.437523 
L 1139.501656 452.437523 
L 1145.146352 455.275751 
L 1145.146352 455.275751 
L 1150.81925 457.923207 
L 1150.81925 457.923207 
L 1156.520177 460.38716 
L 1156.520177 460.38716 
L 1162.249484 462.67534 
L 1162.249484 462.67534 
L 1168.007175 464.795489 
L 1168.007175 464.795489 
L 1173.793421 466.755529 
L 1173.793421 466.755529 
L 1179.608227 468.563389 
L 1179.608227 468.563389 
L 1188.384447 471.007348 
L 1188.384447 471.007348 
L 1197.226124 473.153717 
L 1197.226124 473.153717 
L 1206.133255 475.028647 
L 1206.133255 475.028647 
L 1215.10655 476.65771 
L 1215.10655 476.65771 
L 1224.146364 478.065404 
L 1224.146364 478.065404 
L 1233.253231 479.275084 
L 1233.253231 479.275084 
L 1242.427677 480.308762 
L 1242.427677 480.308762 
L 1254.765582 481.448488 
L 1254.765582 481.448488 
L 1267.22535 482.356233 
L 1267.22535 482.356233 
L 1279.807864 483.071596 
L 1279.807864 483.071596 
L 1295.710646 483.747708 
L 1295.710646 483.747708 
L 1315.052 484.313536 
L 1315.052 484.313536 
L 1337.978276 484.73318 
L 1337.978276 484.73318 
L 1368.035365 485.030543 
L 1368.035365 485.030543 
L 1409.148051 485.200509 
L 1487.693963 485.272862 
L 1487.693963 485.272862 
" clip-path="url(#p67f5bd6779)" style="fill: none; stroke-dasharray: 4.44,1.92; stroke-dashoffset: 0; stroke: #000000; stroke-width: 1.2"/>
   </g>
   <g id="patch_4">
    <path d="M 110.792959 485.28 
L 110.792959 7.2 
" style="fill: none; stroke: #000000; stroke-width: 0.8; stroke-linejoin: miter; stroke-linecap: square"/>
   </g>
   <g id="patch_5">
    <path d="M 1505.792959 485.28 
L 1505.792959 7.2 
" style="fill: none; stroke: #000000; stroke-width: 0.8; stroke-linejoin: miter; stroke-linecap: square"/>
   </g>
   <g id="patch_6">
    <path d="M 110.792959 485.28 
L 1505.792959 485.28 
" style="fill: none; stroke: #000000; stroke-width: 0.8; stroke-linejoin: miter; stroke-linecap: square"/>
   </g>
   <g id="patch_7">
    <path d="M 110.792959 7.2 
L 1505.792959 7.2 
" style="fill: none; stroke: #000000; stroke-width: 0.8; stroke-linejoin: miter; stroke-linecap: square"/>
   </g>
   <g id="legend_1">
    <g id="patch_8">
     <path d="M 1203.620843 96.889069 
L 1488.292959 96.889069 
Q 1493.292959 96.889069 1493.292959 91.889069 
L 1493.292959 24.7 
Q 1493.292959 19.7 1488.292959 19.7 
L 1203.620843 19.7 
Q 1198.620843 19.7 1198.620843 24.7 
L 1198.620843 91.889069 
Q 1198.620843 96.889069 1203.620843 96.889069 
z
" style="fill: #ffffff; opacity: 0.8; stroke: #cccccc; stroke-linejoin: miter"/>
    </g>
    <g id="line2d_30">
     <path d="M 1208.620843 38.45 
L 1258.620843 38.45 
" style="fill: none; stroke: #000000; stroke-linecap: square"/>
    </g>
    <g id="text_17">
     <!-- Discrete distribution -->
     <g transform="translate(1278.620843 47.2) scale(0.25 -0.25)">
      <defs>
       <path id="CMR17-44" d="M 333 4352 
L 333 4186 
C 774 4186 845 4186 845 3900 
L 845 452 
C 845 166 774 166 333 166 
L 333 0 
L 2368 0 
C 3398 0 4224 943 4224 2141 
C 4224 3346 3411 4352 2368 4352 
L 333 4352 
z
M 1523 166 
C 1267 166 1254 197 1254 414 
L 1254 3938 
C 1254 4155 1267 4186 1523 4186 
L 2240 4186 
C 2771 4186 3750 3874 3750 2141 
C 3750 1242 3488 879 3366 707 
C 3213 510 2848 166 2240 166 
L 1523 166 
z
" transform="scale(0.015625)"/>
       <path id="CMR17-69" d="M 992 3909 
C 992 4049 877 4170 730 4170 
C 589 4170 467 4056 467 3909 
C 467 3769 582 3648 730 3648 
C 870 3648 992 3763 992 3909 
z
M 243 2706 
L 243 2541 
C 602 2541 653 2502 653 2197 
L 653 427 
C 653 184 627 153 218 153 
L 218 -13 
C 371 0 646 0 806 0 
C 960 0 1222 0 1370 -13 
L 1370 153 
C 992 153 979 191 979 420 
L 979 2776 
L 243 2706 
z
" transform="scale(0.015625)"/>
       <path id="CMR17-63" d="M 2234 2240 
C 2112 2240 1933 2240 1933 2017 
C 1933 1838 2080 1787 2163 1787 
C 2208 1787 2394 1807 2394 2024 
C 2394 2467 1958 2803 1466 2803 
C 787 2803 211 2178 211 1363 
C 211 516 813 -64 1466 -64 
C 2259 -64 2458 677 2458 748 
C 2458 774 2451 793 2406 793 
C 2362 793 2355 787 2330 703 
C 2163 180 1798 51 1523 51 
C 1114 51 621 427 621 1369 
C 621 2338 1094 2688 1472 2688 
C 1722 2688 2093 2573 2234 2240 
z
" transform="scale(0.015625)"/>
       <path id="CMR17-72" d="M 960 1497 
C 960 2112 1222 2688 1702 2688 
C 1747 2688 1792 2682 1837 2662 
C 1837 2662 1696 2617 1696 2452 
C 1696 2298 1818 2234 1914 2234 
C 1990 2234 2131 2279 2131 2458 
C 2131 2663 1926 2790 1709 2790 
C 1222 2790 1011 2317 947 2093 
L 941 2093 
L 941 2790 
L 198 2720 
L 198 2554 
C 576 2554 634 2515 634 2208 
L 634 428 
C 634 184 608 153 198 153 
L 198 -13 
C 352 0 646 0 813 0 
C 998 0 1325 0 1498 -13 
L 1498 153 
C 1037 153 960 153 960 440 
L 960 1497 
z
" transform="scale(0.015625)"/>
       <path id="CMR17-65" d="M 2438 1472 
C 2464 1498 2464 1511 2464 1576 
C 2464 2238 2118 2816 1389 2816 
C 710 2816 173 2169 173 1383 
C 173 551 781 -64 1459 -64 
C 2176 -64 2458 607 2458 740 
C 2458 784 2419 784 2406 784 
C 2362 784 2355 771 2330 696 
C 2189 265 1837 51 1504 51 
C 1229 51 954 203 781 480 
C 582 803 582 1176 582 1472 
L 2438 1472 
z
M 589 1568 
C 634 2505 1126 2714 1382 2714 
C 1818 2714 2112 2297 2118 1568 
L 589 1568 
z
" transform="scale(0.015625)"/>
       <path id="CMR17-74" d="M 966 2560 
L 1862 2560 
L 1862 2725 
L 966 2725 
L 966 3904 
L 851 3904 
C 838 3245 614 2668 70 2668 
L 70 2560 
L 627 2560 
L 627 771 
C 627 650 627 -64 1370 -64 
C 1747 -64 1965 306 1965 777 
L 1965 1140 
L 1850 1140 
L 1850 783 
C 1850 344 1677 51 1408 51 
C 1222 51 966 178 966 758 
L 966 2560 
z
" transform="scale(0.015625)"/>
       <path id="CMR17-64" d="M 1869 4326 
L 1869 4160 
C 2246 4160 2304 4122 2304 3820 
L 2304 2345 
C 2278 2377 2016 2790 1498 2790 
C 845 2790 211 2208 211 1364 
C 211 525 806 -64 1434 -64 
C 1978 -64 2259 337 2291 380 
L 2291 -63 
L 3066 -63 
L 3066 128 
C 2688 128 2630 166 2630 473 
L 2630 4396 
L 1869 4326 
z
M 2291 755 
C 2291 563 2176 390 2029 262 
C 1811 70 1594 38 1472 38 
C 1286 38 621 134 621 1356 
C 621 2612 1363 2688 1530 2688 
C 1824 2688 2061 2522 2208 2291 
C 2291 2157 2291 2138 2291 2023 
L 2291 755 
z
" transform="scale(0.015625)"/>
       <path id="CMR17-62" d="M 960 4396 
L 198 4326 
L 198 4160 
C 576 4160 634 4122 634 3817 
L 634 -13 
L 749 -13 
L 934 441 
C 1120 141 1395 -64 1766 -64 
C 2406 -64 3053 500 3053 1370 
C 3053 2188 2477 2790 1830 2790 
C 1434 2790 1152 2579 960 2330 
L 960 4396 
z
M 973 2004 
C 973 2118 973 2138 1062 2272 
C 1312 2657 1670 2688 1792 2688 
C 1984 2688 2643 2585 2643 1376 
C 2643 108 1888 38 1734 38 
C 1536 38 1248 114 1043 486 
C 973 608 973 621 973 735 
L 973 2004 
z
" transform="scale(0.015625)"/>
       <path id="CMR17-75" d="M 1882 2693 
L 1882 2528 
C 2259 2528 2317 2489 2317 2186 
L 2317 1032 
C 2317 500 2029 38 1555 38 
C 1030 38 986 348 986 678 
L 986 2763 
L 211 2693 
L 211 2528 
C 467 2528 640 2528 646 2274 
L 646 1058 
C 646 633 646 361 813 183 
C 896 101 1056 -64 1517 -64 
C 2061 -64 2272 377 2323 506 
L 2330 506 
L 2330 -63 
L 3091 -63 
L 3091 128 
C 2714 128 2656 166 2656 473 
L 2656 2763 
L 1882 2693 
z
" transform="scale(0.015625)"/>
       <path id="CMR17-6f" d="M 2758 1356 
C 2758 2176 2163 2816 1466 2816 
C 768 2816 173 2176 173 1356 
C 173 551 768 -64 1466 -64 
C 2163 -64 2758 551 2758 1356 
z
M 1466 51 
C 1165 51 909 230 762 480 
C 602 767 582 1126 582 1408 
C 582 1677 595 2010 762 2298 
C 890 2509 1139 2714 1466 2714 
C 1754 2714 1997 2554 2150 2330 
C 2349 2029 2349 1607 2349 1408 
C 2349 1158 2336 775 2163 467 
C 1984 173 1709 51 1466 51 
z
" transform="scale(0.015625)"/>
       <path id="CMR17-6e" d="M 2656 1933 
C 2656 2259 2592 2790 1837 2790 
C 1331 2790 1069 2400 973 2144 
L 966 2144 
L 966 2790 
L 211 2720 
L 211 2554 
C 589 2554 646 2515 646 2208 
L 646 428 
C 646 184 621 153 211 153 
L 211 -13 
C 365 0 646 0 813 0 
C 979 0 1267 0 1421 -13 
L 1421 153 
C 1011 153 986 178 986 428 
L 986 1658 
C 986 2247 1344 2688 1792 2688 
C 2266 2688 2317 2266 2317 1958 
L 2317 428 
C 2317 184 2291 153 1882 153 
L 1882 -13 
C 2035 0 2317 0 2483 0 
C 2650 0 2938 0 3091 -13 
L 3091 153 
C 2682 153 2656 178 2656 428 
L 2656 1933 
z
" transform="scale(0.015625)"/>
      </defs>
      <use xlink:href="#CMR17-44" transform="scale(0.996264)"/>
      <use xlink:href="#CMR17-69" transform="translate(70.393556 0) scale(0.996264)"/>
      <use xlink:href="#CMR17-73" transform="translate(95.264614 0) scale(0.996264)"/>
      <use xlink:href="#CMR17-63" transform="translate(131.065952 0) scale(0.996264)"/>
      <use xlink:href="#CMR17-72" transform="translate(171.551612 0) scale(0.996264)"/>
      <use xlink:href="#CMR17-65" transform="translate(206.83238 0) scale(0.996264)"/>
      <use xlink:href="#CMR17-74" transform="translate(247.318041 0) scale(0.996264)"/>
      <use xlink:href="#CMR17-65" transform="translate(282.598809 0) scale(0.996264)"/>
      <use xlink:href="#CMR17-64" transform="translate(353.160435 0) scale(0.996264)"/>
      <use xlink:href="#CMR17-69" transform="translate(404.055805 0) scale(0.996264)"/>
      <use xlink:href="#CMR17-73" transform="translate(428.926864 0) scale(0.996264)"/>
      <use xlink:href="#CMR17-74" transform="translate(464.728201 0) scale(0.996264)"/>
      <use xlink:href="#CMR17-72" transform="translate(500.008969 0) scale(0.996264)"/>
      <use xlink:href="#CMR17-69" transform="translate(535.289737 0) scale(0.996264)"/>
      <use xlink:href="#CMR17-62" transform="translate(560.160795 0) scale(0.996264)"/>
      <use xlink:href="#CMR17-75" transform="translate(611.056165 0) scale(0.996264)"/>
      <use xlink:href="#CMR17-74" transform="translate(661.951535 0) scale(0.996264)"/>
      <use xlink:href="#CMR17-69" transform="translate(697.232303 0) scale(0.996264)"/>
      <use xlink:href="#CMR17-6f" transform="translate(722.103361 0) scale(0.996264)"/>
      <use xlink:href="#CMR17-6e" transform="translate(767.793838 0) scale(0.996264)"/>
     </g>
    </g>
    <g id="line2d_31">
     <path d="M 1208.620843 73.294534 
L 1233.620843 73.294534 
L 1258.620843 73.294534 
" style="fill: none; stroke-dasharray: 4.44,1.92; stroke-dashoffset: 0; stroke: #000000; stroke-width: 1.2"/>
    </g>
    <g id="text_18">
     <!-- Normal distribution -->
     <g transform="translate(1278.620843 82.044534) scale(0.25 -0.25)">
      <defs>
       <path id="CMR17-4e" d="M 1312 4250 
C 1267 4320 1261 4320 1139 4320 
L 326 4320 
L 326 4160 
L 448 4160 
C 704 4160 819 4129 838 4122 
L 838 610 
C 838 451 838 153 326 153 
L 326 -13 
C 474 0 742 0 902 0 
C 1062 0 1331 0 1478 -13 
L 1478 153 
C 966 153 966 451 966 610 
L 966 4033 
C 1011 3995 1011 3982 1056 3919 
L 3430 76 
C 3475 0 3494 0 3526 0 
C 3590 0 3590 19 3590 139 
L 3590 3705 
C 3590 3863 3590 4160 4102 4160 
L 4102 4326 
C 3955 4320 3686 4320 3526 4320 
C 3366 4320 3098 4320 2950 4326 
L 2950 4160 
C 3462 4160 3462 3862 3462 3703 
L 3462 763 
L 1312 4250 
z
" transform="scale(0.015625)"/>
       <path id="CMR17-61" d="M 2304 1653 
C 2304 2072 2304 2294 2035 2543 
C 1798 2752 1523 2816 1306 2816 
C 800 2816 435 2407 435 1971 
C 435 1728 627 1728 666 1728 
C 749 1728 896 1778 896 1954 
C 896 2112 774 2181 666 2181 
C 640 2181 608 2174 589 2168 
C 723 2592 1069 2714 1293 2714 
C 1613 2714 1965 2429 1965 1885 
L 1965 1600 
C 1587 1600 1133 1549 774 1357 
C 371 1133 256 813 256 570 
C 256 77 832 -64 1171 -64 
C 1523 -64 1850 139 1990 511 
C 2003 233 2182 -18 2464 -18 
C 2598 -18 2938 70 2938 567 
L 2938 920 
L 2822 920 
L 2822 562 
C 2822 178 2650 128 2566 128 
C 2304 128 2304 458 2304 738 
L 2304 1653 
z
M 1965 870 
C 1965 317 1568 38 1216 38 
C 896 38 646 275 646 570 
C 646 761 730 1100 1101 1305 
C 1408 1478 1760 1504 1965 1504 
L 1965 870 
z
" transform="scale(0.015625)"/>
       <path id="CMR17-6c" d="M 979 4396 
L 218 4326 
L 218 4160 
C 595 4160 653 4122 653 3817 
L 653 426 
C 653 184 627 153 218 153 
L 218 -13 
C 371 0 653 0 813 0 
C 979 0 1261 0 1414 -13 
L 1414 153 
C 1005 153 979 178 979 426 
L 979 4396 
z
" transform="scale(0.015625)"/>
      </defs>
      <use xlink:href="#CMR17-4e" transform="scale(0.996264)"/>
      <use xlink:href="#CMR17-6f" transform="translate(69.07243 0) scale(0.996264)"/>
      <use xlink:href="#CMR17-72" transform="translate(114.762907 0) scale(0.996264)"/>
      <use xlink:href="#CMR17-6d" transform="translate(150.043675 0) scale(0.996264)"/>
      <use xlink:href="#CMR17-61" transform="translate(226.963265 0) scale(0.996264)"/>
      <use xlink:href="#CMR17-6c" transform="translate(272.653742 0) scale(0.996264)"/>
      <use xlink:href="#CMR17-64" transform="translate(327.600767 0) scale(0.996264)"/>
      <use xlink:href="#CMR17-69" transform="translate(378.496136 0) scale(0.996264)"/>
      <use xlink:href="#CMR17-73" transform="translate(403.367195 0) scale(0.996264)"/>
      <use xlink:href="#CMR17-74" transform="translate(439.168532 0) scale(0.996264)"/>
      <use xlink:href="#CMR17-72" transform="translate(474.4493 0) scale(0.996264)"/>
      <use xlink:href="#CMR17-69" transform="translate(509.730068 0) scale(0.996264)"/>
      <use xlink:href="#CMR17-62" transform="translate(534.601127 0) scale(0.996264)"/>
      <use xlink:href="#CMR17-75" transform="translate(585.496496 0) scale(0.996264)"/>
      <use xlink:href="#CMR17-74" transform="translate(636.391866 0) scale(0.996264)"/>
      <use xlink:href="#CMR17-69" transform="translate(671.672634 0) scale(0.996264)"/>
      <use xlink:href="#CMR17-6f" transform="translate(696.543692 0) scale(0.996264)"/>
      <use xlink:href="#CMR17-6e" transform="translate(742.234169 0) scale(0.996264)"/>
     </g>
    </g>
   </g>
  </g>
 </g>
 <defs>
  <clipPath id="p67f5bd6779">
   <rect x="110.792959" y="7.2" width="1395" height="478.08"/>
  </clipPath>
 </defs>
</svg>
