<?xml version="1.0" encoding="utf-8" standalone="no"?>
<!DOCTYPE svg PUBLIC "-//W3C//DTD SVG 1.1//EN"
  "http://www.w3.org/Graphics/SVG/1.1/DTD/svg11.dtd">
<svg xmlns:xlink="http://www.w3.org/1999/xlink" width="997.461217pt" height="725.651963pt" viewBox="0 0 997.461217 725.651963" xmlns="http://www.w3.org/2000/svg" version="1.1">
 <metadata>
  <rdf:RDF xmlns:dc="http://purl.org/dc/elements/1.1/" xmlns:cc="http://creativecommons.org/ns#" xmlns:rdf="http://www.w3.org/1999/02/22-rdf-syntax-ns#">
   <cc:Work>
    <dc:type rdf:resource="http://purl.org/dc/dcmitype/StillImage"/>
    <dc:date>2024-11-28T19:57:54.774134</dc:date>
    <dc:format>image/svg+xml</dc:format>
    <dc:creator>
     <cc:Agent>
      <dc:title>Matplotlib v3.9.2, https://matplotlib.org/</dc:title>
     </cc:Agent>
    </dc:creator>
   </cc:Work>
  </rdf:RDF>
 </metadata>
 <defs>
  <style type="text/css">*{stroke-linejoin: round; stroke-linecap: butt}</style>
 </defs>
 <g id="figure_1">
  <g id="patch_1">
   <path d="M 0 725.651963 
L 997.461217 725.651963 
L 997.461217 -0 
L 0 -0 
z
" style="fill: #ffffff"/>
  </g>
  <g id="axes_1">
   <g id="patch_2">
    <path d="M 163.98813 604.8 
L 945.18813 604.8 
L 945.18813 7.2 
L 163.98813 7.2 
z
" style="fill: #ffffff"/>
   </g>
   <g id="matplotlib.axis_1">
    <g id="xtick_1">
     <g id="line2d_1">
      <path d="M 163.98813 604.8 
L 163.98813 7.2 
" clip-path="url(#pfb0dc16761)" style="fill: none; stroke: #b0b0b0; stroke-width: 0.8; stroke-linecap: square"/>
     </g>
     <g id="line2d_2">
      <defs>
       <path id="m43b7c074b9" d="M 0 0 
L 0 3.5 
" style="stroke: #000000; stroke-width: 0.8"/>
      </defs>
      <g>
       <use xlink:href="#m43b7c074b9" x="163.98813" y="604.8" style="stroke: #000000; stroke-width: 0.8"/>
      </g>
     </g>
     <g id="text_1">
      <!-- $0$ -->
      <g transform="translate(154.850035 640.974009) scale(0.4 -0.4)">
       <defs>
        <path id="CMR17-30" d="M 2688 2025 
C 2688 2416 2682 3080 2413 3591 
C 2176 4039 1798 4198 1466 4198 
C 1158 4198 768 4058 525 3597 
C 269 3118 243 2524 243 2025 
C 243 1661 250 1106 448 619 
C 723 -39 1216 -128 1466 -128 
C 1760 -128 2208 -7 2470 600 
C 2662 1042 2688 1559 2688 2025 
z
M 1466 -26 
C 1056 -26 813 325 723 812 
C 653 1188 653 1738 653 2096 
C 653 2588 653 2997 736 3387 
C 858 3929 1216 4096 1466 4096 
C 1728 4096 2067 3923 2189 3400 
C 2272 3036 2278 2607 2278 2096 
C 2278 1680 2278 1169 2202 792 
C 2067 95 1690 -26 1466 -26 
z
" transform="scale(0.015625)"/>
       </defs>
       <use xlink:href="#CMR17-30" transform="scale(0.996264)"/>
      </g>
     </g>
    </g>
    <g id="xtick_2">
     <g id="line2d_3">
      <path d="M 320.22813 604.8 
L 320.22813 7.2 
" clip-path="url(#pfb0dc16761)" style="fill: none; stroke: #b0b0b0; stroke-width: 0.8; stroke-linecap: square"/>
     </g>
     <g id="line2d_4">
      <g>
       <use xlink:href="#m43b7c074b9" x="320.22813" y="604.8" style="stroke: #000000; stroke-width: 0.8"/>
      </g>
     </g>
     <g id="text_2">
      <!-- $T_E$ -->
      <g transform="translate(298.683602 640.974009) scale(0.4 -0.4)">
       <defs>
        <path id="CMMI12-54" d="M 2669 3910 
C 2707 4064 2720 4121 2816 4147 
C 2867 4160 3078 4160 3213 4160 
C 3853 4160 4154 4134 4154 3634 
C 4154 3537 4128 3295 4090 3057 
L 4083 2980 
C 4083 2954 4109 2916 4147 2916 
C 4211 2916 4211 2948 4230 3050 
L 4416 4184 
C 4429 4243 4429 4256 4429 4275 
C 4429 4345 4390 4345 4262 4345 
L 762 4345 
C 614 4345 608 4339 570 4224 
L 179 3070 
C 173 3056 154 2986 154 2980 
C 154 2948 179 2916 218 2916 
C 269 2916 282 2941 307 3024 
C 576 3801 710 4160 1562 4160 
L 1990 4160 
C 2144 4160 2208 4160 2208 4089 
C 2208 4069 2208 4057 2176 3941 
L 1318 499 
C 1254 249 1242 185 563 185 
C 403 185 358 185 358 64 
C 358 0 429 0 461 0 
C 621 0 787 0 947 0 
L 1946 0 
C 2106 0 2278 0 2438 0 
C 2509 0 2573 0 2573 121 
C 2573 185 2528 185 2362 185 
C 1786 185 1786 243 1786 339 
C 1786 346 1786 391 1811 494 
L 2669 3910 
z
" transform="scale(0.015625)"/>
        <path id="CMMI12-45" d="M 4448 1489 
C 4454 1508 4474 1554 4474 1579 
C 4474 1611 4448 1643 4410 1643 
C 4384 1643 4371 1637 4352 1617 
C 4339 1611 4339 1598 4282 1469 
C 3904 570 3629 185 2605 185 
L 1670 185 
C 1581 185 1568 185 1530 192 
C 1459 198 1453 211 1453 262 
C 1453 307 1466 345 1478 403 
L 1920 2176 
L 2554 2176 
C 3053 2176 3091 2066 3091 1874 
C 3091 1810 3091 1752 3046 1560 
C 3034 1534 3027 1508 3027 1489 
C 3027 1444 3059 1425 3098 1425 
C 3155 1425 3162 1469 3187 1559 
L 3552 3042 
C 3552 3073 3526 3105 3488 3105 
C 3430 3105 3424 3080 3398 2990 
C 3270 2501 3142 2361 2573 2361 
L 1965 2361 
L 2362 3930 
C 2419 4154 2432 4154 2694 4154 
L 3610 4154 
C 4397 4154 4557 3943 4557 3458 
C 4557 3451 4557 3273 4531 3062 
C 4525 3036 4518 2998 4518 2985 
C 4518 2934 4550 2915 4589 2915 
C 4634 2915 4659 2941 4672 3055 
L 4806 4174 
C 4806 4195 4819 4263 4819 4277 
C 4819 4352 4762 4352 4646 4352 
L 1523 4352 
C 1402 4352 1338 4352 1338 4229 
C 1338 4154 1382 4154 1491 4154 
C 1888 4154 1888 4114 1888 4052 
C 1888 4020 1882 3994 1862 3924 
L 998 473 
C 941 249 928 185 480 185 
C 358 185 294 185 294 70 
C 294 0 333 0 461 0 
L 3674 0 
C 3814 0 3821 6 3866 110 
L 4448 1489 
z
" transform="scale(0.015625)"/>
       </defs>
       <use xlink:href="#CMMI12-54" transform="scale(0.996264)"/>
       <use xlink:href="#CMMI12-45" transform="translate(57.175044 -14.943915) scale(0.697382)"/>
      </g>
     </g>
    </g>
    <g id="xtick_3">
     <g id="line2d_5">
      <path d="M 476.46813 604.8 
L 476.46813 7.2 
" clip-path="url(#pfb0dc16761)" style="fill: none; stroke: #b0b0b0; stroke-width: 0.8; stroke-linecap: square"/>
     </g>
     <g id="line2d_6">
      <g>
       <use xlink:href="#m43b7c074b9" x="476.46813" y="604.8" style="stroke: #000000; stroke-width: 0.8"/>
      </g>
     </g>
     <g id="text_3">
      <!-- $2\cdot T_E$ -->
      <g transform="translate(431.395043 640.974009) scale(0.4 -0.4)">
       <defs>
        <path id="CMR17-32" d="M 2669 989 
L 2554 989 
C 2490 536 2438 459 2413 420 
C 2381 369 1920 369 1830 369 
L 602 369 
C 832 619 1280 1072 1824 1597 
C 2214 1967 2669 2402 2669 3035 
C 2669 3790 2067 4224 1395 4224 
C 691 4224 262 3604 262 3030 
C 262 2780 448 2748 525 2748 
C 589 2748 781 2787 781 3010 
C 781 3207 614 3264 525 3264 
C 486 3264 448 3258 422 3245 
C 544 3790 915 4058 1306 4058 
C 1862 4058 2227 3617 2227 3035 
C 2227 2479 1901 2000 1536 1584 
L 262 146 
L 262 0 
L 2515 0 
L 2669 989 
z
" transform="scale(0.015625)"/>
        <path id="CMSY10-1" d="M 1229 1619 
C 1229 1805 1075 1958 890 1958 
C 704 1958 550 1805 550 1619 
C 550 1433 704 1280 890 1280 
C 1075 1280 1229 1433 1229 1619 
z
" transform="scale(0.015625)"/>
       </defs>
       <use xlink:href="#CMR17-32" transform="scale(0.996264)"/>
       <use xlink:href="#CMSY10-1" transform="translate(67.829684 0) scale(0.996264)"/>
       <use xlink:href="#CMMI12-54" transform="translate(117.642976 0) scale(0.996264)"/>
       <use xlink:href="#CMMI12-45" transform="translate(174.818019 -14.943915) scale(0.697382)"/>
      </g>
     </g>
    </g>
    <g id="xtick_4">
     <g id="line2d_7">
      <path d="M 632.70813 604.8 
L 632.70813 7.2 
" clip-path="url(#pfb0dc16761)" style="fill: none; stroke: #b0b0b0; stroke-width: 0.8; stroke-linecap: square"/>
     </g>
     <g id="line2d_8">
      <g>
       <use xlink:href="#m43b7c074b9" x="632.70813" y="604.8" style="stroke: #000000; stroke-width: 0.8"/>
      </g>
     </g>
     <g id="text_4">
      <!-- $3\cdot T_E$ -->
      <g transform="translate(587.635043 640.974009) scale(0.4 -0.4)">
       <defs>
        <path id="CMR17-33" d="M 1414 2157 
C 1984 2157 2234 1662 2234 1090 
C 2234 320 1824 25 1453 25 
C 1114 25 563 194 390 693 
C 422 680 454 680 486 680 
C 640 680 755 782 755 948 
C 755 1133 614 1216 486 1216 
C 378 1216 211 1165 211 926 
C 211 335 787 -128 1466 -128 
C 2176 -128 2720 430 2720 1085 
C 2720 1707 2208 2157 1600 2227 
C 2086 2328 2554 2756 2554 3329 
C 2554 3820 2048 4179 1472 4179 
C 890 4179 378 3829 378 3329 
C 378 3110 544 3072 627 3072 
C 762 3072 877 3155 877 3321 
C 877 3486 762 3569 627 3569 
C 602 3569 570 3569 544 3557 
C 730 3959 1235 4032 1459 4032 
C 1683 4032 2106 3925 2106 3320 
C 2106 3143 2080 2828 1862 2550 
C 1670 2304 1453 2304 1242 2284 
C 1210 2284 1062 2269 1037 2269 
C 992 2263 966 2257 966 2208 
C 966 2163 973 2157 1101 2157 
L 1414 2157 
z
" transform="scale(0.015625)"/>
       </defs>
       <use xlink:href="#CMR17-33" transform="scale(0.996264)"/>
       <use xlink:href="#CMSY10-1" transform="translate(67.829684 0) scale(0.996264)"/>
       <use xlink:href="#CMMI12-54" transform="translate(117.642976 0) scale(0.996264)"/>
       <use xlink:href="#CMMI12-45" transform="translate(174.818019 -14.943915) scale(0.697382)"/>
      </g>
     </g>
    </g>
    <g id="xtick_5">
     <g id="line2d_9">
      <path d="M 788.94813 604.8 
L 788.94813 7.2 
" clip-path="url(#pfb0dc16761)" style="fill: none; stroke: #b0b0b0; stroke-width: 0.8; stroke-linecap: square"/>
     </g>
     <g id="line2d_10">
      <g>
       <use xlink:href="#m43b7c074b9" x="788.94813" y="604.8" style="stroke: #000000; stroke-width: 0.8"/>
      </g>
     </g>
     <g id="text_5">
      <!-- $4\cdot T_E$ -->
      <g transform="translate(743.875043 640.974009) scale(0.4 -0.4)">
       <defs>
        <path id="CMR17-34" d="M 2150 4122 
C 2150 4256 2144 4256 2029 4256 
L 128 1254 
L 128 1088 
L 1779 1088 
L 1779 457 
C 1779 224 1766 160 1318 160 
L 1197 160 
L 1197 0 
C 1402 0 1747 0 1965 0 
C 2182 0 2528 0 2733 0 
L 2733 160 
L 2611 160 
C 2163 160 2150 224 2150 457 
L 2150 1088 
L 2803 1088 
L 2803 1254 
L 2150 1254 
L 2150 4122 
z
M 1798 3703 
L 1798 1254 
L 256 1254 
L 1798 3703 
z
" transform="scale(0.015625)"/>
       </defs>
       <use xlink:href="#CMR17-34" transform="scale(0.996264)"/>
       <use xlink:href="#CMSY10-1" transform="translate(67.829684 0) scale(0.996264)"/>
       <use xlink:href="#CMMI12-54" transform="translate(117.642976 0) scale(0.996264)"/>
       <use xlink:href="#CMMI12-45" transform="translate(174.818019 -14.943915) scale(0.697382)"/>
      </g>
     </g>
    </g>
    <g id="xtick_6">
     <g id="line2d_11">
      <path d="M 945.18813 604.8 
L 945.18813 7.2 
" clip-path="url(#pfb0dc16761)" style="fill: none; stroke: #b0b0b0; stroke-width: 0.8; stroke-linecap: square"/>
     </g>
     <g id="line2d_12">
      <g>
       <use xlink:href="#m43b7c074b9" x="945.18813" y="604.8" style="stroke: #000000; stroke-width: 0.8"/>
      </g>
     </g>
     <g id="text_6">
      <!-- $5\cdot T_E$ -->
      <g transform="translate(900.115043 640.974009) scale(0.4 -0.4)">
       <defs>
        <path id="CMR17-35" d="M 730 3692 
C 794 3666 1056 3584 1325 3584 
C 1920 3584 2246 3911 2432 4100 
C 2432 4157 2432 4192 2394 4192 
C 2387 4192 2374 4192 2323 4163 
C 2099 4058 1837 3973 1517 3973 
C 1325 3973 1037 3999 723 4139 
C 653 4171 640 4171 634 4171 
C 602 4171 595 4164 595 4037 
L 595 2203 
C 595 2089 595 2057 659 2057 
C 691 2057 704 2070 736 2114 
C 941 2401 1222 2522 1542 2522 
C 1766 2522 2246 2382 2246 1289 
C 2246 1085 2246 715 2054 421 
C 1894 159 1645 25 1370 25 
C 947 25 518 320 403 814 
C 429 807 480 795 506 795 
C 589 795 749 840 749 1038 
C 749 1210 627 1280 506 1280 
C 358 1280 262 1190 262 1011 
C 262 454 704 -128 1382 -128 
C 2042 -128 2669 440 2669 1264 
C 2669 2030 2170 2624 1549 2624 
C 1222 2624 947 2503 730 2274 
L 730 3692 
z
" transform="scale(0.015625)"/>
       </defs>
       <use xlink:href="#CMR17-35" transform="scale(0.996264)"/>
       <use xlink:href="#CMSY10-1" transform="translate(67.829684 0) scale(0.996264)"/>
       <use xlink:href="#CMMI12-54" transform="translate(117.642976 0) scale(0.996264)"/>
       <use xlink:href="#CMMI12-45" transform="translate(174.818019 -14.943915) scale(0.697382)"/>
      </g>
     </g>
    </g>
    <g id="text_7">
     <!-- $\Delta t\:\unit{[\s]}$ -->
     <g transform="translate(499.631004 706.040331) scale(0.5 -0.5)">
      <defs>
       <path id="CMR17-1" d="M 2598 4403 
C 2547 4512 2522 4512 2470 4512 
C 2394 4512 2387 4499 2342 4409 
L 269 109 
C 262 96 237 38 237 32 
C 237 6 243 0 358 0 
L 4576 0 
C 4691 0 4698 6 4698 32 
C 4698 38 4672 96 4666 109 
L 2598 4403 
z
M 2310 4038 
L 4083 358 
L 531 358 
L 2310 4038 
z
" transform="scale(0.015625)"/>
       <path id="CMMI12-74" d="M 1286 2566 
L 1875 2566 
C 1997 2566 2061 2566 2061 2681 
C 2061 2752 2022 2752 1894 2752 
L 1331 2752 
L 1568 3692 
C 1594 3781 1594 3794 1594 3840 
C 1594 3943 1510 4000 1427 4000 
C 1376 4000 1229 3981 1178 3775 
L 928 2752 
L 326 2752 
C 198 2752 141 2752 141 2630 
C 141 2566 186 2566 307 2566 
L 877 2566 
L 454 881 
C 403 658 384 594 384 511 
C 384 211 595 -64 954 -64 
C 1600 -64 1946 868 1946 912 
C 1946 951 1920 970 1882 970 
C 1869 970 1843 970 1830 944 
C 1824 938 1818 931 1773 829 
C 1638 511 1344 64 973 64 
C 781 64 768 224 768 364 
C 768 370 768 492 787 568 
L 1286 2566 
z
" transform="scale(0.015625)"/>
       <path id="CMR17-5b" d="M 1504 -1600 
L 1504 -1377 
L 902 -1377 
L 902 4544 
L 1504 4544 
L 1504 4767 
L 678 4767 
L 678 -1600 
L 1504 -1600 
z
" transform="scale(0.015625)"/>
       <path id="CMR17-73" d="M 1978 2697 
C 1978 2813 1971 2819 1933 2819 
C 1907 2819 1901 2813 1824 2717 
C 1805 2691 1747 2626 1728 2601 
C 1523 2819 1235 2819 1126 2819 
C 416 2819 160 2447 160 2076 
C 160 1498 813 1365 998 1325 
C 1402 1243 1542 1217 1677 1101 
C 1760 1025 1901 884 1901 654 
C 1901 384 1747 38 1158 38 
C 602 38 403 460 288 1021 
C 269 1110 269 1117 218 1117 
C 166 1117 160 1110 160 983 
L 160 63 
C 160 -51 166 -58 205 -58 
C 237 -58 243 -51 275 0 
C 314 57 410 211 448 276 
C 576 103 800 -64 1158 -64 
C 1792 -64 2131 283 2131 784 
C 2131 1112 1958 1285 1875 1362 
C 1683 1561 1459 1606 1190 1657 
C 838 1735 390 1825 390 2217 
C 390 2383 480 2737 1126 2737 
C 1811 2737 1850 2094 1862 1888 
C 1869 1856 1901 1849 1920 1849 
C 1978 1849 1978 1869 1978 1978 
L 1978 2697 
z
" transform="scale(0.015625)"/>
       <path id="CMR17-5d" d="M 915 4767 
L 90 4767 
L 90 4544 
L 691 4544 
L 691 -1377 
L 90 -1377 
L 90 -1600 
L 915 -1600 
L 915 4767 
z
" transform="scale(0.015625)"/>
      </defs>
      <use xlink:href="#CMR17-1" transform="scale(0.996264)"/>
      <use xlink:href="#CMMI12-74" transform="translate(76.91959 0) scale(0.996264)"/>
      <use xlink:href="#CMR17-5b" transform="translate(134.285127 0) scale(0.996264)"/>
      <use xlink:href="#CMR17-73" transform="translate(159.156186 0) scale(0.996264)"/>
      <use xlink:href="#CMR17-5d" transform="translate(194.957523 0) scale(0.996264)"/>
     </g>
    </g>
   </g>
   <g id="matplotlib.axis_2">
    <g id="ytick_1">
     <g id="line2d_13">
      <path d="M 163.98813 577.584565 
L 945.18813 577.584565 
" clip-path="url(#pfb0dc16761)" style="fill: none; stroke: #b0b0b0; stroke-width: 0.8; stroke-linecap: square"/>
     </g>
     <g id="line2d_14">
      <defs>
       <path id="m8fd599deb7" d="M 0 0 
L -3.5 0 
" style="stroke: #000000; stroke-width: 0.8"/>
      </defs>
      <g>
       <use xlink:href="#m8fd599deb7" x="163.98813" y="577.584565" style="stroke: #000000; stroke-width: 0.8"/>
      </g>
     </g>
     <g id="text_8">
      <!-- $\mathdefault{−5.0}$ -->
      <g transform="translate(77.101888 591.421569) scale(0.4 -0.4)">
       <defs>
        <path id="CMSY10-0" d="M 4218 1472 
C 4326 1472 4442 1472 4442 1600 
C 4442 1728 4326 1728 4218 1728 
L 755 1728 
C 646 1728 531 1728 531 1600 
C 531 1472 646 1472 755 1472 
L 4218 1472 
z
" transform="scale(0.015625)"/>
        <path id="CMMI12-3a" d="M 1178 307 
C 1178 492 1024 619 870 619 
C 685 619 557 466 557 313 
C 557 128 710 0 864 0 
C 1050 0 1178 153 1178 307 
z
" transform="scale(0.015625)"/>
       </defs>
       <use xlink:href="#CMSY10-0" transform="scale(0.996264)"/>
       <use xlink:href="#CMR17-35" transform="translate(77.487468 0) scale(0.996264)"/>
       <use xlink:href="#CMMI12-3a" transform="translate(123.177945 0) scale(0.996264)"/>
       <use xlink:href="#CMR17-30" transform="translate(150.275122 0) scale(0.996264)"/>
      </g>
     </g>
    </g>
    <g id="ytick_2">
     <g id="line2d_15">
      <path d="M 163.98813 478.807636 
L 945.18813 478.807636 
" clip-path="url(#pfb0dc16761)" style="fill: none; stroke: #b0b0b0; stroke-width: 0.8; stroke-linecap: square"/>
     </g>
     <g id="line2d_16">
      <g>
       <use xlink:href="#m8fd599deb7" x="163.98813" y="478.807636" style="stroke: #000000; stroke-width: 0.8"/>
      </g>
     </g>
     <g id="text_9">
      <!-- $\mathdefault{−2.5}$ -->
      <g transform="translate(77.101888 492.64464) scale(0.4 -0.4)">
       <use xlink:href="#CMSY10-0" transform="scale(0.996264)"/>
       <use xlink:href="#CMR17-32" transform="translate(77.487468 0) scale(0.996264)"/>
       <use xlink:href="#CMMI12-3a" transform="translate(123.177945 0) scale(0.996264)"/>
       <use xlink:href="#CMR17-35" transform="translate(150.275122 0) scale(0.996264)"/>
      </g>
     </g>
    </g>
    <g id="ytick_3">
     <g id="line2d_17">
      <path d="M 163.98813 380.030708 
L 945.18813 380.030708 
" clip-path="url(#pfb0dc16761)" style="fill: none; stroke: #b0b0b0; stroke-width: 0.8; stroke-linecap: square"/>
     </g>
     <g id="line2d_18">
      <g>
       <use xlink:href="#m8fd599deb7" x="163.98813" y="380.030708" style="stroke: #000000; stroke-width: 0.8"/>
      </g>
     </g>
     <g id="text_10">
      <!-- $\mathdefault{0.0}$ -->
      <g transform="translate(108.096878 393.867712) scale(0.4 -0.4)">
       <use xlink:href="#CMR17-30" transform="scale(0.996264)"/>
       <use xlink:href="#CMMI12-3a" transform="translate(45.690477 0) scale(0.996264)"/>
       <use xlink:href="#CMR17-30" transform="translate(72.787654 0) scale(0.996264)"/>
      </g>
     </g>
    </g>
    <g id="ytick_4">
     <g id="line2d_19">
      <path d="M 163.98813 281.253779 
L 945.18813 281.253779 
" clip-path="url(#pfb0dc16761)" style="fill: none; stroke: #b0b0b0; stroke-width: 0.8; stroke-linecap: square"/>
     </g>
     <g id="line2d_20">
      <g>
       <use xlink:href="#m8fd599deb7" x="163.98813" y="281.253779" style="stroke: #000000; stroke-width: 0.8"/>
      </g>
     </g>
     <g id="text_11">
      <!-- $\mathdefault{2.5}$ -->
      <g transform="translate(108.096878 295.090784) scale(0.4 -0.4)">
       <use xlink:href="#CMR17-32" transform="scale(0.996264)"/>
       <use xlink:href="#CMMI12-3a" transform="translate(45.690477 0) scale(0.996264)"/>
       <use xlink:href="#CMR17-35" transform="translate(72.787654 0) scale(0.996264)"/>
      </g>
     </g>
    </g>
    <g id="ytick_5">
     <g id="line2d_21">
      <path d="M 163.98813 182.476851 
L 945.18813 182.476851 
" clip-path="url(#pfb0dc16761)" style="fill: none; stroke: #b0b0b0; stroke-width: 0.8; stroke-linecap: square"/>
     </g>
     <g id="line2d_22">
      <g>
       <use xlink:href="#m8fd599deb7" x="163.98813" y="182.476851" style="stroke: #000000; stroke-width: 0.8"/>
      </g>
     </g>
     <g id="text_12">
      <!-- $\mathdefault{5.0}$ -->
      <g transform="translate(108.096878 196.313855) scale(0.4 -0.4)">
       <use xlink:href="#CMR17-35" transform="scale(0.996264)"/>
       <use xlink:href="#CMMI12-3a" transform="translate(45.690477 0) scale(0.996264)"/>
       <use xlink:href="#CMR17-30" transform="translate(72.787654 0) scale(0.996264)"/>
      </g>
     </g>
    </g>
    <g id="ytick_6">
     <g id="line2d_23">
      <path d="M 163.98813 83.699922 
L 945.18813 83.699922 
" clip-path="url(#pfb0dc16761)" style="fill: none; stroke: #b0b0b0; stroke-width: 0.8; stroke-linecap: square"/>
     </g>
     <g id="line2d_24">
      <g>
       <use xlink:href="#m8fd599deb7" x="163.98813" y="83.699922" style="stroke: #000000; stroke-width: 0.8"/>
      </g>
     </g>
     <g id="text_13">
      <!-- $\mathdefault{7.5}$ -->
      <g transform="translate(108.096878 97.536927) scale(0.4 -0.4)">
       <defs>
        <path id="CMR17-37" d="M 2886 3941 
L 2886 4081 
L 1382 4081 
C 634 4081 621 4165 595 4288 
L 480 4288 
L 294 3094 
L 410 3094 
C 429 3215 474 3540 550 3661 
C 589 3712 1062 3712 1171 3712 
L 2579 3712 
L 1869 2661 
C 1395 1954 1069 999 1069 165 
C 1069 89 1069 -128 1299 -128 
C 1530 -128 1530 89 1530 171 
L 1530 465 
C 1530 1508 1709 2196 2003 2636 
L 2886 3941 
z
" transform="scale(0.015625)"/>
       </defs>
       <use xlink:href="#CMR17-37" transform="scale(0.996264)"/>
       <use xlink:href="#CMMI12-3a" transform="translate(45.690477 0) scale(0.996264)"/>
       <use xlink:href="#CMR17-35" transform="translate(72.787654 0) scale(0.996264)"/>
      </g>
     </g>
    </g>
    <g id="text_14">
     <!-- $u^\prime\:\unit{[\m/\s]}$ -->
     <g transform="translate(44.648588 383.267908) rotate(-90) scale(0.5 -0.5)">
      <defs>
       <path id="CMMI12-75" d="M 2182 370 
C 2266 13 2573 -64 2726 -64 
C 2931 -64 3085 70 3187 287 
C 3296 517 3379 894 3379 913 
C 3379 945 3354 971 3315 971 
C 3258 971 3251 939 3226 843 
C 3110 402 2995 64 2739 64 
C 2547 64 2547 275 2547 358 
C 2547 505 2566 568 2630 837 
C 2675 1009 2720 1181 2758 1360 
L 3021 2401 
C 3066 2561 3066 2574 3066 2593 
C 3066 2689 2989 2753 2893 2753 
C 2707 2753 2662 2593 2624 2433 
C 2560 2184 2214 811 2170 588 
C 2163 588 1914 64 1446 64 
C 1114 64 1050 351 1050 588 
C 1050 952 1229 1462 1395 1890 
C 1472 2095 1504 2178 1504 2305 
C 1504 2580 1306 2816 998 2816 
C 410 2816 173 1890 173 1839 
C 173 1814 198 1782 243 1782 
C 301 1782 307 1807 333 1896 
C 486 2441 736 2682 979 2682 
C 1043 2682 1146 2682 1146 2478 
C 1146 2312 1075 2127 979 1884 
C 698 1124 666 881 666 690 
C 666 38 1158 -64 1421 -64 
C 1830 -64 2054 217 2182 370 
z
" transform="scale(0.015625)"/>
       <path id="CMSY10-30" d="M 1619 3040 
C 1651 3117 1677 3174 1677 3238 
C 1677 3424 1510 3578 1312 3578 
C 1133 3578 1018 3456 973 3290 
L 211 493 
C 211 480 186 410 186 403 
C 186 333 352 288 403 288 
C 442 288 448 307 486 390 
L 1619 3040 
z
" transform="scale(0.015625)"/>
       <path id="CMR17-6d" d="M 4326 1933 
C 4326 2252 4269 2790 3507 2790 
C 3072 2790 2771 2496 2656 2151 
L 2650 2151 
C 2573 2676 2195 2790 1837 2790 
C 1331 2790 1069 2400 973 2144 
L 966 2144 
L 966 2790 
L 211 2720 
L 211 2554 
C 589 2554 646 2515 646 2208 
L 646 428 
C 646 184 621 153 211 153 
L 211 -13 
C 365 0 646 0 813 0 
C 979 0 1267 0 1421 -13 
L 1421 153 
C 1011 153 986 178 986 428 
L 986 1658 
C 986 2247 1344 2688 1792 2688 
C 2266 2688 2317 2266 2317 1958 
L 2317 428 
C 2317 184 2291 153 1882 153 
L 1882 -13 
C 2035 0 2317 0 2483 0 
C 2650 0 2938 0 3091 -13 
L 3091 153 
C 2682 153 2656 178 2656 428 
L 2656 1658 
C 2656 2247 3014 2688 3462 2688 
C 3936 2688 3987 2266 3987 1958 
L 3987 428 
C 3987 184 3962 153 3552 153 
L 3552 -13 
C 3706 0 3987 0 4154 0 
C 4320 0 4608 0 4762 -13 
L 4762 153 
C 4352 153 4326 178 4326 428 
L 4326 1933 
z
" transform="scale(0.015625)"/>
       <path id="CMMI12-3d" d="M 2746 4562 
C 2746 4569 2784 4666 2784 4678 
C 2784 4755 2720 4800 2669 4800 
C 2637 4800 2579 4800 2528 4659 
L 384 -1363 
C 384 -1370 346 -1465 346 -1478 
C 346 -1555 410 -1600 461 -1600 
C 499 -1600 557 -1593 602 -1459 
L 2746 4562 
z
" transform="scale(0.015625)"/>
      </defs>
      <use xlink:href="#CMMI12-75" transform="scale(0.996264)"/>
      <use xlink:href="#CMSY10-30" transform="translate(55.52033 36.153639) scale(0.697382)"/>
      <use xlink:href="#CMR17-5b" transform="translate(97.335629 0) scale(0.996264)"/>
      <use xlink:href="#CMR17-6d" transform="translate(122.206688 0) scale(0.996264)"/>
      <use xlink:href="#CMMI12-3d" transform="translate(199.126278 0) scale(0.996264)"/>
      <use xlink:href="#CMR17-73" transform="translate(247.901196 0) scale(0.996264)"/>
      <use xlink:href="#CMR17-5d" transform="translate(283.702534 0) scale(0.996264)"/>
     </g>
    </g>
   </g>
   <g id="line2d_25">
    <path d="M 163.98813 71.928589 
L 165.442892 54.571187 
L 166.890381 47.040079 
L 168.352417 62.046827 
L 171.261941 86.569088 
L 172.709429 115.205594 
L 174.171465 129.207331 
L 175.626228 93.808398 
L 177.08099 66.999992 
L 178.535752 57.069248 
L 179.98324 62.046827 
L 181.445276 136.130278 
L 182.900038 187.521681 
L 184.3548 176.599185 
L 185.802289 161.076668 
L 187.264325 167.762376 
L 188.719087 187.521681 
L 190.173849 208.961229 
L 191.621337 215.289128 
L 193.076099 213.185053 
L 194.538135 200.449831 
L 195.992898 178.794597 
L 197.44766 169.979946 
L 200.357184 211.075854 
L 201.811946 208.961229 
L 203.266708 183.168993 
L 204.714197 149.822131 
L 206.176233 136.130278 
L 207.630995 136.130278 
L 209.085757 149.822131 
L 210.533245 133.828455 
L 211.988007 81.713135 
L 213.450043 59.561125 
L 214.904806 79.275969 
L 216.359568 88.988171 
L 217.807056 79.275969 
L 219.269092 71.928589 
L 220.723854 86.569088 
L 222.178616 86.569088 
L 223.626105 76.832923 
L 225.080867 71.928589 
L 226.542903 62.046827 
L 227.997665 57.069248 
L 229.452427 76.832923 
L 230.899915 86.569088 
L 233.816713 41.988192 
L 235.271476 52.066947 
L 238.181 110.491924 
L 239.635762 119.896052 
L 241.090524 133.828455 
L 242.538013 149.822131 
L 243.992775 147.554375 
L 245.454811 98.604662 
L 246.909573 62.046827 
L 249.811823 96.209392 
L 251.273859 93.808398 
L 252.728621 84.144126 
L 255.630872 88.988171 
L 257.092908 88.988171 
L 258.54767 74.383694 
L 260.002432 74.383694 
L 261.457194 79.275969 
L 262.904683 66.999992 
L 264.366719 57.069248 
L 265.821481 41.988192 
L 267.276243 34.363636 
L 268.723731 66.999992 
L 270.185767 117.553838 
L 271.640529 152.084312 
L 273.095291 158.837094 
L 274.54278 154.340769 
L 275.997542 156.591642 
L 277.459578 145.280889 
L 278.91434 131.520758 
L 280.369102 143.001829 
L 281.816591 176.599185 
L 283.278627 196.161952 
L 284.733389 200.449831 
L 286.188151 200.449831 
L 287.635639 204.716157 
L 289.097675 213.185053 
L 290.552437 229.870239 
L 292.007199 229.870239 
L 293.461962 219.4813 
L 294.90945 219.4813 
L 296.371486 231.932488 
L 297.826248 240.129562 
L 300.728498 231.932488 
L 302.190534 252.271846 
L 303.645297 283.768447 
L 305.100059 291.445903 
L 306.547547 276.012988 
L 308.002309 248.244865 
L 309.464345 231.932488 
L 310.919107 233.989462 
L 312.373869 238.088037 
L 313.821358 236.041387 
L 315.283394 238.088037 
L 316.738156 248.244865 
L 318.192918 262.251276 
L 319.640406 281.836911 
L 321.102442 293.353286 
L 322.557205 289.533926 
L 324.011967 272.105906 
L 325.459455 277.959257 
L 326.914217 295.255694 
L 328.376253 299.046306 
L 329.831015 266.207983 
L 331.285777 215.289128 
L 332.733266 225.730367 
L 334.195302 276.012988 
L 335.650064 308.439166 
L 337.104826 312.163269 
L 338.552314 295.255694 
L 340.007076 274.061899 
L 341.469112 246.223688 
L 342.923875 231.932488 
L 344.378637 240.129562 
L 345.826125 227.80294 
L 347.288161 202.585554 
L 348.742923 189.689965 
L 350.197685 200.449831 
L 351.645174 217.387775 
L 353.10721 225.730367 
L 354.561972 213.185053 
L 356.016734 206.84148 
L 357.464222 223.65252 
L 358.918984 252.271846 
L 360.38102 272.105906 
L 361.835783 285.695122 
L 363.290545 295.255694 
L 364.738033 308.439166 
L 366.200069 323.222808 
L 367.654831 332.31144 
L 369.109593 326.872083 
L 370.557082 317.714047 
L 372.019118 310.303557 
L 373.47388 300.934395 
L 374.928642 299.046306 
L 376.383404 302.817739 
L 377.830892 304.696295 
L 379.292928 293.353286 
L 380.74769 274.061899 
L 382.202453 270.144832 
L 383.649941 279.900476 
L 385.111977 281.836911 
L 388.021501 262.251276 
L 389.46899 266.207983 
L 390.923752 281.836911 
L 392.385788 295.255694 
L 393.84055 302.817739 
L 395.295312 289.533926 
L 396.7428 264.232211 
L 398.204836 250.260918 
L 401.114361 229.870239 
L 402.561849 236.041387 
L 404.023885 236.041387 
L 405.478647 244.197386 
L 406.933409 256.27878 
L 408.388171 225.730367 
L 409.83566 161.076668 
L 411.297696 149.822131 
L 412.752458 180.984585 
L 414.20722 189.689965 
L 417.116744 198.308529 
L 418.571506 183.168993 
L 420.026268 178.794597 
L 421.473757 189.689965 
L 424.390555 219.4813 
L 425.845317 231.932488 
L 427.300079 227.80294 
L 428.747568 233.989462 
L 431.664366 266.207983 
L 433.119128 268.178895 
L 434.566616 264.232211 
L 436.028652 264.232211 
L 438.938176 279.900476 
L 440.385665 285.695122 
L 441.840427 287.616898 
L 443.302463 285.695122 
L 446.211987 270.144832 
L 447.659475 283.768447 
L 449.121511 308.439166 
L 450.576274 330.502929 
L 452.031036 346.615599 
L 453.478524 358.895342 
L 454.933286 369.248147 
L 457.850084 386.154893 
L 459.304846 396.093706 
L 460.752335 402.635437 
L 462.214371 397.735477 
L 463.669133 370.958272 
L 465.123895 348.383224 
L 466.571383 334.115387 
L 468.033419 325.049743 
L 469.488182 321.391239 
L 470.942944 332.31144 
L 472.390432 344.843375 
L 473.845194 334.115387 
L 475.30723 300.934395 
L 478.216754 250.260918 
L 479.664243 204.716157 
L 481.126279 194.010097 
L 482.581041 225.730367 
L 484.035803 250.260918 
L 485.483291 270.144832 
L 486.938054 281.836911 
L 488.400089 291.445903 
L 489.854852 297.153432 
L 494.219138 308.439166 
L 495.6739 300.934395 
L 497.128662 279.900476 
L 498.576151 256.27878 
L 500.038187 250.260918 
L 502.947711 299.046306 
L 504.395199 293.353286 
L 505.849961 283.768447 
L 507.311997 287.616898 
L 508.76676 295.255694 
L 510.221522 293.353286 
L 511.66901 283.768447 
L 513.131046 277.959257 
L 514.585808 281.836911 
L 516.04057 291.445903 
L 517.488059 295.255694 
L 518.950095 295.255694 
L 520.404857 289.533926 
L 521.859619 276.012988 
L 523.314381 260.265444 
L 524.761869 270.144832 
L 526.223905 287.616898 
L 527.678667 297.153432 
L 529.13343 276.012988 
L 530.580918 236.041387 
L 532.042954 211.075854 
L 533.497716 204.716157 
L 534.952478 219.4813 
L 536.399967 231.932488 
L 537.854729 238.088037 
L 539.316765 238.088037 
L 540.771527 225.730367 
L 542.226289 223.65252 
L 543.673777 225.730367 
L 545.135813 240.129562 
L 546.590575 244.197386 
L 548.045338 231.932488 
L 549.492826 200.449831 
L 550.954862 172.191786 
L 552.409624 178.794597 
L 553.864386 196.161952 
L 555.311874 189.689965 
L 556.766637 167.762376 
L 559.683435 119.896052 
L 561.138197 96.209392 
L 562.585685 96.209392 
L 564.047721 129.207331 
L 565.502483 156.591642 
L 566.957245 172.191786 
L 569.859496 154.340769 
L 571.321532 161.076668 
L 574.231056 161.076668 
L 575.678545 158.837094 
L 577.140581 143.001829 
L 578.595343 138.426521 
L 580.050105 174.398198 
L 581.497593 187.521681 
L 582.959629 176.599185 
L 585.869153 149.822131 
L 587.316642 147.554375 
L 590.23344 200.449831 
L 591.688202 219.4813 
L 593.142964 233.989462 
L 594.590453 240.129562 
L 596.052488 238.088037 
L 597.507251 238.088037 
L 598.962013 244.197386 
L 600.409501 252.271846 
L 601.864263 270.144832 
L 604.781061 321.391239 
L 606.235824 323.222808 
L 607.683312 308.439166 
L 609.145348 291.445903 
L 610.60011 272.105906 
L 613.50236 221.569547 
L 614.964396 227.80294 
L 616.419159 250.260918 
L 619.321409 270.144832 
L 620.776171 283.768447 
L 622.238207 285.695122 
L 623.692969 291.445903 
L 625.147731 308.439166 
L 626.59522 337.709571 
L 628.057256 357.154434 
L 629.512018 360.631729 
L 630.96678 358.895342 
L 632.414268 369.248147 
L 633.876304 381.128064 
L 635.331066 384.48358 
L 636.785829 369.248147 
L 639.688079 323.222808 
L 641.150115 317.714047 
L 642.604877 343.066706 
L 644.059639 295.255694 
L 645.507128 183.168993 
L 646.969164 147.554375 
L 648.423926 154.340769 
L 649.878688 158.837094 
L 651.326176 158.837094 
L 652.780938 161.076668 
L 654.242974 161.076668 
L 655.697737 167.762376 
L 658.599987 194.010097 
L 660.062023 202.585554 
L 661.516785 240.129562 
L 662.971547 323.222808 
L 664.419036 377.755441 
L 665.881072 369.248147 
L 667.335834 330.502929 
L 668.790596 299.046306 
L 670.238084 293.353286 
L 671.692846 299.046306 
L 673.154882 299.046306 
L 674.609644 291.445903 
L 676.064407 268.178895 
L 677.511895 260.265444 
L 680.428693 283.768447 
L 681.883455 277.959257 
L 683.330944 266.207983 
L 684.785706 270.144832 
L 686.247742 283.768447 
L 687.702504 289.533926 
L 689.157266 297.153432 
L 690.604754 308.439166 
L 692.06679 315.868384 
L 693.521552 334.115387 
L 694.976315 355.409113 
L 696.423803 369.248147 
L 697.885839 376.06261 
L 699.340601 372.664063 
L 700.795363 364.09151 
L 702.242852 353.659311 
L 703.697614 360.631729 
L 705.15965 374.365488 
L 708.069174 384.48358 
L 709.516662 386.154893 
L 710.978698 384.48358 
L 712.43346 376.06261 
L 713.888223 372.664063 
L 715.335711 372.664063 
L 716.790473 384.48358 
L 718.252509 397.735477 
L 719.707271 412.323446 
L 721.162033 425.011232 
L 722.609522 434.357667 
L 724.071558 437.441321 
L 726.981082 434.357667 
L 728.42857 438.977176 
L 729.890606 440.509107 
L 731.345368 432.809947 
L 732.80013 421.863599 
L 734.247619 407.498055 
L 735.702381 386.154893 
L 737.164417 360.631729 
L 738.619179 343.066706 
L 740.073941 350.146365 
L 741.52143 367.533653 
L 742.983465 370.958272 
L 744.438228 353.659311 
L 745.89299 350.146365 
L 747.340478 360.631729 
L 748.802514 377.755441 
L 750.257276 397.735477 
L 751.712038 409.110663 
L 753.166801 413.923696 
L 754.614289 412.323446 
L 757.531087 418.699841 
L 758.985849 417.111836 
L 760.433337 410.719052 
L 761.895373 401.006289 
L 763.350136 394.447825 
L 764.804898 381.128064 
L 766.252386 360.631729 
L 767.707148 346.615599 
L 769.169184 335.914739 
L 770.623946 319.55496 
L 772.078708 317.714047 
L 773.526197 344.843375 
L 774.988233 343.066706 
L 776.442995 308.439166 
L 777.897757 289.533926 
L 779.345245 287.616898 
L 782.262043 330.502929 
L 783.716806 346.615599 
L 785.164294 351.9051 
L 786.619056 348.383224 
L 788.081092 335.914739 
L 789.535854 326.872083 
L 790.990616 308.439166 
L 792.438105 295.255694 
L 793.900141 285.695122 
L 795.354903 283.768447 
L 796.809665 285.695122 
L 798.257153 297.153432 
L 799.711915 310.303557 
L 802.628714 348.383224 
L 804.083476 369.248147 
L 805.530964 386.154893 
L 806.993 397.735477 
L 808.447762 407.498055 
L 809.902524 415.51984 
L 811.350013 425.011232 
L 812.812049 428.142702 
L 814.266811 423.43943 
L 815.721573 421.863599 
L 817.169061 421.863599 
L 818.623823 413.923696 
L 820.085859 404.260554 
L 821.540622 392.797725 
L 822.995384 384.48358 
L 824.442872 374.365488 
L 825.904908 369.248147 
L 828.814432 355.409113 
L 830.261921 350.146365 
L 831.716683 358.895342 
L 833.178719 365.814823 
L 834.633481 369.248147 
L 836.088243 357.154434 
L 837.535731 341.285478 
L 838.997767 326.872083 
L 841.907292 330.502929 
L 843.35478 337.709571 
L 844.816816 358.895342 
L 846.271578 389.484751 
L 847.72634 396.093706 
L 849.173829 369.248147 
L 850.628591 357.154434 
L 852.090627 365.814823 
L 853.545389 360.631729 
L 855.000151 344.843375 
L 856.447639 339.499844 
L 857.909675 341.285478 
L 859.364437 346.615599 
L 862.266688 374.365488 
L 863.728724 382.807972 
L 865.183486 387.821952 
L 866.638248 396.093706 
L 869.540499 425.011232 
L 871.002535 443.561184 
L 872.457297 458.588019 
L 873.912059 465.957588 
L 875.359547 470.333868 
L 876.821583 476.116416 
L 878.276345 483.260923 
L 881.178596 505.511315 
L 882.633358 512.277096 
L 884.095394 513.619728 
L 885.550156 506.871541 
L 887.004918 498.657101 
L 888.452407 494.501592 
L 889.914442 488.910347 
L 891.369205 481.839393 
L 892.823967 480.414168 
L 894.271455 488.910347 
L 897.188253 516.294583 
L 898.643015 525.547231 
L 900.090504 532.05362 
L 901.545266 537.197753 
L 903.007302 541.020653 
L 904.462064 541.020653 
L 905.916826 539.749694 
L 907.364314 537.197753 
L 910.281113 537.197753 
L 911.735875 534.632354 
L 913.183363 528.159956 
L 914.638125 525.547231 
L 916.100161 524.235766 
L 917.554923 525.547231 
L 919.009685 528.159956 
L 920.457174 532.05362 
L 923.373972 534.632354 
L 924.828734 533.344666 
L 926.276222 533.344666 
L 927.738258 534.632354 
L 929.193021 538.475417 
L 933.550033 553.548638 
L 935.012069 556.014971 
L 937.921593 563.336574 
L 939.369082 565.751512 
L 940.831118 570.543181 
L 945.18813 577.636364 
L 945.18813 577.636364 
" clip-path="url(#pfb0dc16761)" style="fill: none; stroke: #000000; stroke-width: 1.2; stroke-linecap: square"/>
   </g>
   <g id="patch_3">
    <path d="M 163.98813 604.8 
L 163.98813 7.2 
" style="fill: none; stroke: #000000; stroke-width: 0.8; stroke-linejoin: miter; stroke-linecap: square"/>
   </g>
   <g id="patch_4">
    <path d="M 945.18813 604.8 
L 945.18813 7.2 
" style="fill: none; stroke: #000000; stroke-width: 0.8; stroke-linejoin: miter; stroke-linecap: square"/>
   </g>
   <g id="patch_5">
    <path d="M 163.98813 604.8 
L 945.18813 604.8 
" style="fill: none; stroke: #000000; stroke-width: 0.8; stroke-linejoin: miter; stroke-linecap: square"/>
   </g>
   <g id="patch_6">
    <path d="M 163.98813 7.2 
L 945.18813 7.2 
" style="fill: none; stroke: #000000; stroke-width: 0.8; stroke-linejoin: miter; stroke-linecap: square"/>
   </g>
  </g>
 </g>
 <defs>
  <clipPath id="pfb0dc16761">
   <rect x="163.98813" y="7.2" width="781.2" height="597.6"/>
  </clipPath>
 </defs>
</svg>
