<?xml version="1.0" encoding="utf-8" standalone="no"?>
<!DOCTYPE svg PUBLIC "-//W3C//DTD SVG 1.1//EN"
  "http://www.w3.org/Graphics/SVG/1.1/DTD/svg11.dtd">
<svg xmlns:xlink="http://www.w3.org/1999/xlink" width="985.286512pt" height="570.474465pt" viewBox="0 0 985.286512 570.474465" xmlns="http://www.w3.org/2000/svg" version="1.1">
 <metadata>
  <rdf:RDF xmlns:dc="http://purl.org/dc/elements/1.1/" xmlns:cc="http://creativecommons.org/ns#" xmlns:rdf="http://www.w3.org/1999/02/22-rdf-syntax-ns#">
   <cc:Work>
    <dc:type rdf:resource="http://purl.org/dc/dcmitype/StillImage"/>
    <dc:date>2024-11-22T10:22:38.276943</dc:date>
    <dc:format>image/svg+xml</dc:format>
    <dc:creator>
     <cc:Agent>
      <dc:title>Matplotlib v3.9.2, https://matplotlib.org/</dc:title>
     </cc:Agent>
    </dc:creator>
   </cc:Work>
  </rdf:RDF>
 </metadata>
 <defs>
  <style type="text/css">*{stroke-linejoin: round; stroke-linecap: butt}</style>
 </defs>
 <g id="figure_1">
  <g id="patch_1">
   <path d="M 0 570.474465 
L 985.286512 570.474465 
L 985.286512 0 
L 0 0 
z
" style="fill: #ffffff"/>
  </g>
  <g id="axes_1">
   <g id="patch_2">
    <path d="M 85.286512 492.198498 
L 978.086512 492.198498 
L 978.086512 14.118498 
L 85.286512 14.118498 
z
" style="fill: #ffffff"/>
   </g>
   <g id="matplotlib.axis_1">
    <g id="xtick_1">
     <g id="line2d_1">
      <path d="M 85.286512 492.198498 
L 85.286512 14.118498 
" clip-path="url(#pf1e85334a2)" style="fill: none; stroke: #b0b0b0; stroke-width: 0.8; stroke-linecap: square"/>
     </g>
     <g id="line2d_2">
      <defs>
       <path id="m1c38ddc35f" d="M 0 0 
L 0 3.5 
" style="stroke: #000000; stroke-width: 0.8"/>
      </defs>
      <g>
       <use xlink:href="#m1c38ddc35f" x="85.286512" y="492.198498" style="stroke: #000000; stroke-width: 0.8"/>
      </g>
     </g>
     <g id="text_1">
      <!-- $\mathdefault{4.000}$ -->
      <g transform="translate(64.300603 514.535495) scale(0.2 -0.2)">
       <defs>
        <path id="CMR17-34" d="M 2150 4122 
C 2150 4256 2144 4256 2029 4256 
L 128 1254 
L 128 1088 
L 1779 1088 
L 1779 457 
C 1779 224 1766 160 1318 160 
L 1197 160 
L 1197 0 
C 1402 0 1747 0 1965 0 
C 2182 0 2528 0 2733 0 
L 2733 160 
L 2611 160 
C 2163 160 2150 224 2150 457 
L 2150 1088 
L 2803 1088 
L 2803 1254 
L 2150 1254 
L 2150 4122 
z
M 1798 3703 
L 1798 1254 
L 256 1254 
L 1798 3703 
z
" transform="scale(0.015625)"/>
        <path id="CMMI12-3a" d="M 1178 307 
C 1178 492 1024 619 870 619 
C 685 619 557 466 557 313 
C 557 128 710 0 864 0 
C 1050 0 1178 153 1178 307 
z
" transform="scale(0.015625)"/>
        <path id="CMR17-30" d="M 2688 2025 
C 2688 2416 2682 3080 2413 3591 
C 2176 4039 1798 4198 1466 4198 
C 1158 4198 768 4058 525 3597 
C 269 3118 243 2524 243 2025 
C 243 1661 250 1106 448 619 
C 723 -39 1216 -128 1466 -128 
C 1760 -128 2208 -7 2470 600 
C 2662 1042 2688 1559 2688 2025 
z
M 1466 -26 
C 1056 -26 813 325 723 812 
C 653 1188 653 1738 653 2096 
C 653 2588 653 2997 736 3387 
C 858 3929 1216 4096 1466 4096 
C 1728 4096 2067 3923 2189 3400 
C 2272 3036 2278 2607 2278 2096 
C 2278 1680 2278 1169 2202 792 
C 2067 95 1690 -26 1466 -26 
z
" transform="scale(0.015625)"/>
       </defs>
       <use xlink:href="#CMR17-34" transform="scale(0.996264)"/>
       <use xlink:href="#CMMI12-3a" transform="translate(45.690477 0) scale(0.996264)"/>
       <use xlink:href="#CMR17-30" transform="translate(72.787654 0) scale(0.996264)"/>
       <use xlink:href="#CMR17-30" transform="translate(118.478131 0) scale(0.996264)"/>
       <use xlink:href="#CMR17-30" transform="translate(164.168608 0) scale(0.996264)"/>
      </g>
     </g>
    </g>
    <g id="xtick_2">
     <g id="line2d_3">
      <path d="M 251.775735 492.198498 
L 251.775735 14.118498 
" clip-path="url(#pf1e85334a2)" style="fill: none; stroke: #b0b0b0; stroke-width: 0.8; stroke-linecap: square"/>
     </g>
     <g id="line2d_4">
      <g>
       <use xlink:href="#m1c38ddc35f" x="251.775735" y="492.198498" style="stroke: #000000; stroke-width: 0.8"/>
      </g>
     </g>
     <g id="text_2">
      <!-- $\mathdefault{4.002}$ -->
      <g transform="translate(230.789826 514.535495) scale(0.2 -0.2)">
       <defs>
        <path id="CMR17-32" d="M 2669 989 
L 2554 989 
C 2490 536 2438 459 2413 420 
C 2381 369 1920 369 1830 369 
L 602 369 
C 832 619 1280 1072 1824 1597 
C 2214 1967 2669 2402 2669 3035 
C 2669 3790 2067 4224 1395 4224 
C 691 4224 262 3604 262 3030 
C 262 2780 448 2748 525 2748 
C 589 2748 781 2787 781 3010 
C 781 3207 614 3264 525 3264 
C 486 3264 448 3258 422 3245 
C 544 3790 915 4058 1306 4058 
C 1862 4058 2227 3617 2227 3035 
C 2227 2479 1901 2000 1536 1584 
L 262 146 
L 262 0 
L 2515 0 
L 2669 989 
z
" transform="scale(0.015625)"/>
       </defs>
       <use xlink:href="#CMR17-34" transform="scale(0.996264)"/>
       <use xlink:href="#CMMI12-3a" transform="translate(45.690477 0) scale(0.996264)"/>
       <use xlink:href="#CMR17-30" transform="translate(72.787654 0) scale(0.996264)"/>
       <use xlink:href="#CMR17-30" transform="translate(118.478131 0) scale(0.996264)"/>
       <use xlink:href="#CMR17-32" transform="translate(164.168608 0) scale(0.996264)"/>
      </g>
     </g>
    </g>
    <g id="xtick_3">
     <g id="line2d_5">
      <path d="M 418.264958 492.198498 
L 418.264958 14.118498 
" clip-path="url(#pf1e85334a2)" style="fill: none; stroke: #b0b0b0; stroke-width: 0.8; stroke-linecap: square"/>
     </g>
     <g id="line2d_6">
      <g>
       <use xlink:href="#m1c38ddc35f" x="418.264958" y="492.198498" style="stroke: #000000; stroke-width: 0.8"/>
      </g>
     </g>
     <g id="text_3">
      <!-- $\mathdefault{4.004}$ -->
      <g transform="translate(397.27905 514.535495) scale(0.2 -0.2)">
       <use xlink:href="#CMR17-34" transform="scale(0.996264)"/>
       <use xlink:href="#CMMI12-3a" transform="translate(45.690477 0) scale(0.996264)"/>
       <use xlink:href="#CMR17-30" transform="translate(72.787654 0) scale(0.996264)"/>
       <use xlink:href="#CMR17-30" transform="translate(118.478131 0) scale(0.996264)"/>
       <use xlink:href="#CMR17-34" transform="translate(164.168608 0) scale(0.996264)"/>
      </g>
     </g>
    </g>
    <g id="xtick_4">
     <g id="line2d_7">
      <path d="M 584.754181 492.198498 
L 584.754181 14.118498 
" clip-path="url(#pf1e85334a2)" style="fill: none; stroke: #b0b0b0; stroke-width: 0.8; stroke-linecap: square"/>
     </g>
     <g id="line2d_8">
      <g>
       <use xlink:href="#m1c38ddc35f" x="584.754181" y="492.198498" style="stroke: #000000; stroke-width: 0.8"/>
      </g>
     </g>
     <g id="text_4">
      <!-- $\mathdefault{4.006}$ -->
      <g transform="translate(563.768273 514.535495) scale(0.2 -0.2)">
       <defs>
        <path id="CMR17-36" d="M 678 2176 
C 678 3690 1395 4032 1811 4032 
C 1946 4032 2272 4009 2400 3776 
C 2298 3776 2106 3776 2106 3553 
C 2106 3381 2246 3323 2336 3323 
C 2394 3323 2566 3348 2566 3560 
C 2566 3954 2246 4179 1805 4179 
C 1043 4179 243 3390 243 1984 
C 243 253 966 -128 1478 -128 
C 2099 -128 2688 427 2688 1283 
C 2688 2081 2170 2662 1517 2662 
C 1126 2662 838 2407 678 1960 
L 678 2176 
z
M 1478 25 
C 691 25 691 1200 691 1436 
C 691 1896 909 2560 1504 2560 
C 1613 2560 1926 2560 2138 2120 
C 2253 1870 2253 1609 2253 1289 
C 2253 944 2253 690 2118 434 
C 1978 171 1773 25 1478 25 
z
" transform="scale(0.015625)"/>
       </defs>
       <use xlink:href="#CMR17-34" transform="scale(0.996264)"/>
       <use xlink:href="#CMMI12-3a" transform="translate(45.690477 0) scale(0.996264)"/>
       <use xlink:href="#CMR17-30" transform="translate(72.787654 0) scale(0.996264)"/>
       <use xlink:href="#CMR17-30" transform="translate(118.478131 0) scale(0.996264)"/>
       <use xlink:href="#CMR17-36" transform="translate(164.168608 0) scale(0.996264)"/>
      </g>
     </g>
    </g>
    <g id="xtick_5">
     <g id="line2d_9">
      <path d="M 751.243405 492.198498 
L 751.243405 14.118498 
" clip-path="url(#pf1e85334a2)" style="fill: none; stroke: #b0b0b0; stroke-width: 0.8; stroke-linecap: square"/>
     </g>
     <g id="line2d_10">
      <g>
       <use xlink:href="#m1c38ddc35f" x="751.243405" y="492.198498" style="stroke: #000000; stroke-width: 0.8"/>
      </g>
     </g>
     <g id="text_5">
      <!-- $\mathdefault{4.008}$ -->
      <g transform="translate(730.257496 514.535495) scale(0.2 -0.2)">
       <defs>
        <path id="CMR17-38" d="M 1741 2264 
C 2144 2467 2554 2773 2554 3263 
C 2554 3841 1990 4179 1472 4179 
C 890 4179 378 3759 378 3180 
C 378 3021 416 2747 666 2505 
C 730 2442 998 2251 1171 2130 
C 883 1983 211 1634 211 934 
C 211 279 838 -128 1459 -128 
C 2144 -128 2720 362 2720 1010 
C 2720 1590 2330 1857 2074 2029 
L 1741 2264 
z
M 902 2822 
C 851 2854 595 3051 595 3351 
C 595 3739 998 4032 1459 4032 
C 1965 4032 2336 3676 2336 3262 
C 2336 2669 1670 2331 1638 2331 
C 1632 2331 1626 2331 1574 2370 
L 902 2822 
z
M 2080 1519 
C 2176 1449 2483 1240 2483 851 
C 2483 381 2010 25 1472 25 
C 890 25 448 438 448 940 
C 448 1443 838 1862 1280 2060 
L 2080 1519 
z
" transform="scale(0.015625)"/>
       </defs>
       <use xlink:href="#CMR17-34" transform="scale(0.996264)"/>
       <use xlink:href="#CMMI12-3a" transform="translate(45.690477 0) scale(0.996264)"/>
       <use xlink:href="#CMR17-30" transform="translate(72.787654 0) scale(0.996264)"/>
       <use xlink:href="#CMR17-30" transform="translate(118.478131 0) scale(0.996264)"/>
       <use xlink:href="#CMR17-38" transform="translate(164.168608 0) scale(0.996264)"/>
      </g>
     </g>
    </g>
    <g id="xtick_6">
     <g id="line2d_11">
      <path d="M 917.732628 492.198498 
L 917.732628 14.118498 
" clip-path="url(#pf1e85334a2)" style="fill: none; stroke: #b0b0b0; stroke-width: 0.8; stroke-linecap: square"/>
     </g>
     <g id="line2d_12">
      <g>
       <use xlink:href="#m1c38ddc35f" x="917.732628" y="492.198498" style="stroke: #000000; stroke-width: 0.8"/>
      </g>
     </g>
     <g id="text_6">
      <!-- $\mathdefault{4.010}$ -->
      <g transform="translate(896.746719 514.535495) scale(0.2 -0.2)">
       <defs>
        <path id="CMR17-31" d="M 1702 4058 
C 1702 4192 1696 4192 1606 4192 
C 1357 3916 979 3827 621 3827 
C 602 3827 570 3827 563 3808 
C 557 3795 557 3782 557 3648 
C 755 3648 1088 3686 1344 3839 
L 1344 461 
C 1344 236 1331 160 781 160 
L 589 160 
L 589 0 
C 896 0 1216 0 1523 0 
C 1830 0 2150 0 2458 0 
L 2458 160 
L 2266 160 
C 1715 160 1702 230 1702 458 
L 1702 4058 
z
" transform="scale(0.015625)"/>
       </defs>
       <use xlink:href="#CMR17-34" transform="scale(0.996264)"/>
       <use xlink:href="#CMMI12-3a" transform="translate(45.690477 0) scale(0.996264)"/>
       <use xlink:href="#CMR17-30" transform="translate(72.787654 0) scale(0.996264)"/>
       <use xlink:href="#CMR17-31" transform="translate(118.478131 0) scale(0.996264)"/>
       <use xlink:href="#CMR17-30" transform="translate(164.168608 0) scale(0.996264)"/>
      </g>
     </g>
    </g>
    <g id="text_7">
     <!-- $t\:\unit{[\s]}$ -->
     <g transform="translate(513.822912 557.068656) scale(0.25 -0.25)">
      <defs>
       <path id="CMMI12-74" d="M 1286 2566 
L 1875 2566 
C 1997 2566 2061 2566 2061 2681 
C 2061 2752 2022 2752 1894 2752 
L 1331 2752 
L 1568 3692 
C 1594 3781 1594 3794 1594 3840 
C 1594 3943 1510 4000 1427 4000 
C 1376 4000 1229 3981 1178 3775 
L 928 2752 
L 326 2752 
C 198 2752 141 2752 141 2630 
C 141 2566 186 2566 307 2566 
L 877 2566 
L 454 881 
C 403 658 384 594 384 511 
C 384 211 595 -64 954 -64 
C 1600 -64 1946 868 1946 912 
C 1946 951 1920 970 1882 970 
C 1869 970 1843 970 1830 944 
C 1824 938 1818 931 1773 829 
C 1638 511 1344 64 973 64 
C 781 64 768 224 768 364 
C 768 370 768 492 787 568 
L 1286 2566 
z
" transform="scale(0.015625)"/>
       <path id="CMR17-5b" d="M 1504 -1600 
L 1504 -1377 
L 902 -1377 
L 902 4544 
L 1504 4544 
L 1504 4767 
L 678 4767 
L 678 -1600 
L 1504 -1600 
z
" transform="scale(0.015625)"/>
       <path id="CMR17-73" d="M 1978 2697 
C 1978 2813 1971 2819 1933 2819 
C 1907 2819 1901 2813 1824 2717 
C 1805 2691 1747 2626 1728 2601 
C 1523 2819 1235 2819 1126 2819 
C 416 2819 160 2447 160 2076 
C 160 1498 813 1365 998 1325 
C 1402 1243 1542 1217 1677 1101 
C 1760 1025 1901 884 1901 654 
C 1901 384 1747 38 1158 38 
C 602 38 403 460 288 1021 
C 269 1110 269 1117 218 1117 
C 166 1117 160 1110 160 983 
L 160 63 
C 160 -51 166 -58 205 -58 
C 237 -58 243 -51 275 0 
C 314 57 410 211 448 276 
C 576 103 800 -64 1158 -64 
C 1792 -64 2131 283 2131 784 
C 2131 1112 1958 1285 1875 1362 
C 1683 1561 1459 1606 1190 1657 
C 838 1735 390 1825 390 2217 
C 390 2383 480 2737 1126 2737 
C 1811 2737 1850 2094 1862 1888 
C 1869 1856 1901 1849 1920 1849 
C 1978 1849 1978 1869 1978 1978 
L 1978 2697 
z
" transform="scale(0.015625)"/>
       <path id="CMR17-5d" d="M 915 4767 
L 90 4767 
L 90 4544 
L 691 4544 
L 691 -1377 
L 90 -1377 
L 90 -1600 
L 915 -1600 
L 915 4767 
z
" transform="scale(0.015625)"/>
      </defs>
      <use xlink:href="#CMMI12-74" transform="scale(0.996264)"/>
      <use xlink:href="#CMR17-5b" transform="translate(57.365537 0) scale(0.996264)"/>
      <use xlink:href="#CMR17-73" transform="translate(82.236596 0) scale(0.996264)"/>
      <use xlink:href="#CMR17-5d" transform="translate(118.037933 0) scale(0.996264)"/>
     </g>
    </g>
   </g>
   <g id="matplotlib.axis_2">
    <g id="ytick_1">
     <g id="line2d_13">
      <path d="M 85.286512 492.198498 
L 978.086512 492.198498 
" clip-path="url(#pf1e85334a2)" style="fill: none; stroke: #b0b0b0; stroke-width: 0.8; stroke-linecap: square"/>
     </g>
     <g id="line2d_14">
      <defs>
       <path id="mde21b96481" d="M 0 0 
L -3.5 0 
" style="stroke: #000000; stroke-width: 0.8"/>
      </defs>
      <g>
       <use xlink:href="#mde21b96481" x="85.286512" y="492.198498" style="stroke: #000000; stroke-width: 0.8"/>
      </g>
     </g>
     <g id="text_8">
      <!-- $\mathdefault{−6}$ -->
      <g transform="translate(52.150929 499.116997) scale(0.2 -0.2)">
       <defs>
        <path id="CMSY10-0" d="M 4218 1472 
C 4326 1472 4442 1472 4442 1600 
C 4442 1728 4326 1728 4218 1728 
L 755 1728 
C 646 1728 531 1728 531 1600 
C 531 1472 646 1472 755 1472 
L 4218 1472 
z
" transform="scale(0.015625)"/>
       </defs>
       <use xlink:href="#CMSY10-0" transform="scale(0.996264)"/>
       <use xlink:href="#CMR17-36" transform="translate(77.487468 0) scale(0.996264)"/>
      </g>
     </g>
    </g>
    <g id="ytick_2">
     <g id="line2d_15">
      <path d="M 85.286512 396.582498 
L 978.086512 396.582498 
" clip-path="url(#pf1e85334a2)" style="fill: none; stroke: #b0b0b0; stroke-width: 0.8; stroke-linecap: square"/>
     </g>
     <g id="line2d_16">
      <g>
       <use xlink:href="#mde21b96481" x="85.286512" y="396.582498" style="stroke: #000000; stroke-width: 0.8"/>
      </g>
     </g>
     <g id="text_9">
      <!-- $\mathdefault{−4}$ -->
      <g transform="translate(52.150929 403.500997) scale(0.2 -0.2)">
       <use xlink:href="#CMSY10-0" transform="scale(0.996264)"/>
       <use xlink:href="#CMR17-34" transform="translate(77.487468 0) scale(0.996264)"/>
      </g>
     </g>
    </g>
    <g id="ytick_3">
     <g id="line2d_17">
      <path d="M 85.286512 300.966498 
L 978.086512 300.966498 
" clip-path="url(#pf1e85334a2)" style="fill: none; stroke: #b0b0b0; stroke-width: 0.8; stroke-linecap: square"/>
     </g>
     <g id="line2d_18">
      <g>
       <use xlink:href="#mde21b96481" x="85.286512" y="300.966498" style="stroke: #000000; stroke-width: 0.8"/>
      </g>
     </g>
     <g id="text_10">
      <!-- $\mathdefault{−2}$ -->
      <g transform="translate(52.150929 307.884997) scale(0.2 -0.2)">
       <use xlink:href="#CMSY10-0" transform="scale(0.996264)"/>
       <use xlink:href="#CMR17-32" transform="translate(77.487468 0) scale(0.996264)"/>
      </g>
     </g>
    </g>
    <g id="ytick_4">
     <g id="line2d_19">
      <path d="M 85.286512 205.350498 
L 978.086512 205.350498 
" clip-path="url(#pf1e85334a2)" style="fill: none; stroke: #b0b0b0; stroke-width: 0.8; stroke-linecap: square"/>
     </g>
     <g id="line2d_20">
      <g>
       <use xlink:href="#mde21b96481" x="85.286512" y="205.350498" style="stroke: #000000; stroke-width: 0.8"/>
      </g>
     </g>
     <g id="text_11">
      <!-- $\mathdefault{0}$ -->
      <g transform="translate(67.648416 212.268997) scale(0.2 -0.2)">
       <use xlink:href="#CMR17-30" transform="scale(0.996264)"/>
      </g>
     </g>
    </g>
    <g id="ytick_5">
     <g id="line2d_21">
      <path d="M 85.286512 109.734498 
L 978.086512 109.734498 
" clip-path="url(#pf1e85334a2)" style="fill: none; stroke: #b0b0b0; stroke-width: 0.8; stroke-linecap: square"/>
     </g>
     <g id="line2d_22">
      <g>
       <use xlink:href="#mde21b96481" x="85.286512" y="109.734498" style="stroke: #000000; stroke-width: 0.8"/>
      </g>
     </g>
     <g id="text_12">
      <!-- $\mathdefault{2}$ -->
      <g transform="translate(67.648416 116.652997) scale(0.2 -0.2)">
       <use xlink:href="#CMR17-32" transform="scale(0.996264)"/>
      </g>
     </g>
    </g>
    <g id="ytick_6">
     <g id="line2d_23">
      <path d="M 85.286512 14.118498 
L 978.086512 14.118498 
" clip-path="url(#pf1e85334a2)" style="fill: none; stroke: #b0b0b0; stroke-width: 0.8; stroke-linecap: square"/>
     </g>
     <g id="line2d_24">
      <g>
       <use xlink:href="#mde21b96481" x="85.286512" y="14.118498" style="stroke: #000000; stroke-width: 0.8"/>
      </g>
     </g>
     <g id="text_13">
      <!-- $\mathdefault{4}$ -->
      <g transform="translate(67.648416 21.036997) scale(0.2 -0.2)">
       <use xlink:href="#CMR17-34" transform="scale(0.996264)"/>
      </g>
     </g>
    </g>
    <g id="text_14">
     <!-- $u^\prime\:\unit{[\m/\s]}$ -->
     <g transform="translate(25.924279 291.91697) rotate(-90) scale(0.25 -0.25)">
      <defs>
       <path id="CMMI12-75" d="M 2182 370 
C 2266 13 2573 -64 2726 -64 
C 2931 -64 3085 70 3187 287 
C 3296 517 3379 894 3379 913 
C 3379 945 3354 971 3315 971 
C 3258 971 3251 939 3226 843 
C 3110 402 2995 64 2739 64 
C 2547 64 2547 275 2547 358 
C 2547 505 2566 568 2630 837 
C 2675 1009 2720 1181 2758 1360 
L 3021 2401 
C 3066 2561 3066 2574 3066 2593 
C 3066 2689 2989 2753 2893 2753 
C 2707 2753 2662 2593 2624 2433 
C 2560 2184 2214 811 2170 588 
C 2163 588 1914 64 1446 64 
C 1114 64 1050 351 1050 588 
C 1050 952 1229 1462 1395 1890 
C 1472 2095 1504 2178 1504 2305 
C 1504 2580 1306 2816 998 2816 
C 410 2816 173 1890 173 1839 
C 173 1814 198 1782 243 1782 
C 301 1782 307 1807 333 1896 
C 486 2441 736 2682 979 2682 
C 1043 2682 1146 2682 1146 2478 
C 1146 2312 1075 2127 979 1884 
C 698 1124 666 881 666 690 
C 666 38 1158 -64 1421 -64 
C 1830 -64 2054 217 2182 370 
z
" transform="scale(0.015625)"/>
       <path id="CMSY10-30" d="M 1619 3040 
C 1651 3117 1677 3174 1677 3238 
C 1677 3424 1510 3578 1312 3578 
C 1133 3578 1018 3456 973 3290 
L 211 493 
C 211 480 186 410 186 403 
C 186 333 352 288 403 288 
C 442 288 448 307 486 390 
L 1619 3040 
z
" transform="scale(0.015625)"/>
       <path id="CMR17-6d" d="M 4326 1933 
C 4326 2252 4269 2790 3507 2790 
C 3072 2790 2771 2496 2656 2151 
L 2650 2151 
C 2573 2676 2195 2790 1837 2790 
C 1331 2790 1069 2400 973 2144 
L 966 2144 
L 966 2790 
L 211 2720 
L 211 2554 
C 589 2554 646 2515 646 2208 
L 646 428 
C 646 184 621 153 211 153 
L 211 -13 
C 365 0 646 0 813 0 
C 979 0 1267 0 1421 -13 
L 1421 153 
C 1011 153 986 178 986 428 
L 986 1658 
C 986 2247 1344 2688 1792 2688 
C 2266 2688 2317 2266 2317 1958 
L 2317 428 
C 2317 184 2291 153 1882 153 
L 1882 -13 
C 2035 0 2317 0 2483 0 
C 2650 0 2938 0 3091 -13 
L 3091 153 
C 2682 153 2656 178 2656 428 
L 2656 1658 
C 2656 2247 3014 2688 3462 2688 
C 3936 2688 3987 2266 3987 1958 
L 3987 428 
C 3987 184 3962 153 3552 153 
L 3552 -13 
C 3706 0 3987 0 4154 0 
C 4320 0 4608 0 4762 -13 
L 4762 153 
C 4352 153 4326 178 4326 428 
L 4326 1933 
z
" transform="scale(0.015625)"/>
       <path id="CMMI12-3d" d="M 2746 4562 
C 2746 4569 2784 4666 2784 4678 
C 2784 4755 2720 4800 2669 4800 
C 2637 4800 2579 4800 2528 4659 
L 384 -1363 
C 384 -1370 346 -1465 346 -1478 
C 346 -1555 410 -1600 461 -1600 
C 499 -1600 557 -1593 602 -1459 
L 2746 4562 
z
" transform="scale(0.015625)"/>
      </defs>
      <use xlink:href="#CMMI12-75" transform="scale(0.996264)"/>
      <use xlink:href="#CMSY10-30" transform="translate(55.52033 36.153639) scale(0.697382)"/>
      <use xlink:href="#CMR17-5b" transform="translate(97.335629 0) scale(0.996264)"/>
      <use xlink:href="#CMR17-6d" transform="translate(122.206688 0) scale(0.996264)"/>
      <use xlink:href="#CMMI12-3d" transform="translate(199.126278 0) scale(0.996264)"/>
      <use xlink:href="#CMR17-73" transform="translate(247.901196 0) scale(0.996264)"/>
      <use xlink:href="#CMR17-5d" transform="translate(283.702534 0) scale(0.996264)"/>
     </g>
    </g>
   </g>
   <g id="line2d_25">
    <path d="M 83.621619 342.175365 
L 85.286512 342.175365 
L 90.289513 357.181928 
L 91.954405 363.739746 
L 93.619297 375.052893 
L 96.915784 427.150442 
L 98.580676 448.693692 
L 100.253893 451.50192 
L 101.918785 431.52767 
L 103.583677 400.148196 
L 106.921786 323.351911 
L 111.924787 244.424685 
L 113.589679 234.668592 
L 115.254572 240.53722 
L 116.919464 248.292319 
L 118.592681 261.673893 
L 120.257573 263.565971 
L 121.922465 254.056673 
L 125.218952 222.795198 
L 128.557061 171.318537 
L 130.221953 158.468803 
L 131.886845 164.918245 
L 135.224954 194.372859 
L 136.889846 210.73847 
L 140.219631 230.730934 
L 141.892847 236.629743 
L 143.55774 238.585966 
L 145.222632 242.483369 
L 151.890525 272.954075 
L 153.52212 278.529311 
L 155.187012 291.37216 
L 158.525121 326.814401 
L 160.190013 343.860171 
L 161.854905 357.181928 
L 163.519798 368.613437 
L 165.193014 378.247385 
L 166.857906 390.860259 
L 168.522799 393.972455 
L 171.860908 358.827799 
L 173.5258 333.685716 
L 175.190692 305.768918 
L 176.863909 293.187956 
L 178.528801 305.768918 
L 180.193693 330.258972 
L 181.825288 357.181928 
L 183.49018 370.229673 
L 185.155072 370.229673 
L 186.819964 368.613437 
L 188.493181 371.841529 
L 190.158073 368.613437 
L 193.496182 331.97451 
L 195.161074 321.614124 
L 196.825967 314.617246 
L 198.490859 309.321951 
L 200.164076 307.547739 
L 201.828968 309.321951 
L 203.49386 309.321951 
L 206.831969 291.37216 
L 208.496861 285.896409 
L 210.161753 278.529311 
L 211.793348 272.954075 
L 213.45824 265.453258 
L 216.796349 265.453258 
L 218.461241 272.954075 
L 220.126133 282.222321 
L 221.791026 289.551531 
L 223.464242 298.60758 
L 225.129135 303.985536 
L 226.794027 307.547739 
L 228.467244 312.856707 
L 230.132136 316.373268 
L 231.797028 321.614124 
L 235.135137 335.392452 
L 236.800029 340.486222 
L 238.464921 347.216565 
L 240.096516 358.827799 
L 241.761408 366.9931 
L 243.4263 370.229673 
L 245.091192 366.9931 
L 248.429301 343.860171 
L 251.76741 326.814401 
L 253.432303 319.871594 
L 255.097195 321.614124 
L 256.762087 325.085415 
L 258.435304 330.258972 
L 260.100196 331.97451 
L 261.765088 331.97451 
L 263.42998 335.392452 
L 265.103197 340.486222 
L 268.432982 353.877377 
L 271.729468 357.181928 
L 275.067577 353.877377 
L 276.732469 345.540512 
L 278.397362 342.175365 
L 280.062254 337.09477 
L 281.735471 333.685716 
L 283.400363 335.392452 
L 285.065255 333.685716 
L 286.730147 335.392452 
L 290.068256 345.540512 
L 291.733148 348.888335 
L 293.406365 350.555634 
L 295.071257 350.555634 
L 296.73615 347.216565 
L 298.367744 345.540512 
L 303.362421 345.540512 
L 306.70053 355.531816 
L 308.365422 365.368517 
L 310.038638 376.652166 
L 311.703531 384.586764 
L 313.368423 393.972455 
L 316.706532 403.211881 
L 318.371424 406.259565 
L 320.036316 413.809079 
L 321.701209 416.801181 
L 323.374425 422.738385 
L 325.039317 431.52767 
L 326.70421 441.60738 
L 328.335804 445.870467 
L 333.338805 432.979083 
L 335.003698 431.52767 
L 336.66859 427.150442 
L 338.333482 427.150442 
L 340.006699 425.683616 
L 341.671591 427.150442 
L 343.336483 435.87043 
L 346.674592 461.214196 
L 348.339484 465.321511 
L 350.004377 448.693692 
L 351.677593 430.072514 
L 353.342485 425.683616 
L 355.007378 430.072514 
L 356.67227 441.60738 
L 358.303864 450.099654 
L 359.968757 445.870467 
L 361.633649 425.683616 
L 363.306865 384.586764 
L 364.971758 326.814401 
L 366.63665 278.529311 
L 368.301542 234.668592 
L 369.974759 164.918245 
L 371.639651 120.980705 
L 373.304543 125.475422 
L 374.97776 125.475422 
L 376.642652 111.922872 
L 378.307544 107.359441 
L 379.972437 109.644027 
L 381.645653 120.980705 
L 383.310546 114.195922 
L 384.975438 120.980705 
L 386.607032 173.441131 
L 388.271924 220.798578 
L 389.936817 259.776895 
L 391.610033 282.222321 
L 393.274926 257.875016 
L 394.939818 192.30361 
L 396.60471 138.823578 
L 398.277927 162.773856 
L 399.942819 230.730934 
L 401.607711 267.335713 
L 403.272604 267.335713 
L 404.94582 250.218632 
L 406.610712 234.668592 
L 409.948821 222.795198 
L 411.613714 212.760758 
L 413.278606 206.678299 
L 414.943498 220.798578 
L 416.575092 248.292319 
L 418.239985 259.776895 
L 419.904877 267.335713 
L 421.578094 278.529311 
L 424.907878 296.805692 
L 426.57277 300.404779 
L 428.245987 294.999147 
L 429.910879 294.999147 
L 431.575771 316.373268 
L 433.248988 345.540512 
L 434.91388 343.860171 
L 436.578773 331.97451 
L 438.243665 350.555634 
L 439.916882 384.586764 
L 441.581774 400.148196 
L 443.246666 404.737707 
L 449.872937 410.801157 
L 451.546154 398.610337 
L 453.211046 375.052893 
L 454.875938 335.392452 
L 456.549155 280.378208 
L 458.214047 220.798578 
L 459.878939 194.372859 
L 461.543832 202.597427 
L 463.217048 222.795198 
L 464.881941 234.668592 
L 466.546833 224.786712 
L 468.211725 177.670226 
L 469.884942 143.228119 
L 471.549834 149.792999 
L 473.214726 171.318537 
L 474.846321 173.441131 
L 476.511213 164.918245 
L 479.849322 177.670226 
L 481.514214 162.773856 
L 483.179106 138.823578 
L 484.843998 132.174895 
L 486.517215 154.141959 
L 488.182107 167.05707 
L 489.847 162.773856 
L 491.520216 143.228119 
L 493.185109 102.772803 
L 494.850001 98.16296 
L 498.18811 164.918245 
L 499.853002 173.441131 
L 501.517894 175.558389 
L 503.149489 181.877751 
L 508.144165 212.760758 
L 509.817382 226.773254 
L 511.482274 238.585966 
L 513.147166 238.585966 
L 514.820383 232.702202 
L 516.485275 234.668592 
L 518.150168 244.424685 
L 519.81506 269.213334 
L 521.488276 302.197459 
L 523.153169 303.985536 
L 524.818061 280.378208 
L 526.482953 259.776895 
L 528.15617 248.292319 
L 529.821062 240.53722 
L 531.485954 238.585966 
L 533.117549 242.483369 
L 534.782441 248.292319 
L 536.447333 246.360985 
L 538.12055 248.292319 
L 541.450334 285.896409 
L 543.115227 280.378208 
L 544.788443 271.086073 
L 546.453336 269.213334 
L 548.118228 252.140117 
L 549.78312 216.789882 
L 551.456337 186.064082 
L 553.121229 183.97363 
L 554.786121 190.229072 
L 556.459338 188.14929 
L 558.12423 194.372859 
L 559.789122 216.789882 
L 561.420717 246.360985 
L 563.085609 269.213334 
L 564.750501 284.061734 
L 568.08861 316.373268 
L 571.418395 343.860171 
L 573.091611 347.216565 
L 574.756503 345.540512 
L 576.421396 348.888335 
L 578.086288 343.860171 
L 579.759505 335.392452 
L 581.424397 331.97451 
L 583.089289 323.351911 
L 584.754181 311.091612 
L 586.427398 302.197459 
L 588.09229 298.60758 
L 589.757182 300.404779 
L 591.388777 298.60758 
L 593.053669 300.404779 
L 594.718561 312.856707 
L 596.391778 337.09477 
L 601.386455 431.52767 
L 603.059671 444.453175 
L 604.724564 432.979083 
L 606.389456 403.211881 
L 609.727565 328.538922 
L 611.392457 296.805692 
L 613.057349 267.335713 
L 614.730566 265.453258 
L 616.395458 272.954075 
L 618.06035 284.061734 
L 619.725243 293.187956 
L 621.356837 303.985536 
L 623.021729 312.856707 
L 624.686622 318.124733 
L 626.359838 319.871594 
L 628.02473 312.856707 
L 629.689623 307.547739 
L 631.354515 307.547739 
L 633.027732 298.60758 
L 634.692624 287.726341 
L 636.357516 287.726341 
L 638.030733 293.187956 
L 639.695625 294.999147 
L 641.360517 294.999147 
L 643.025409 302.197459 
L 644.698626 316.373268 
L 646.363518 333.685716 
L 648.028411 355.531816 
L 649.660005 375.052893 
L 651.324897 383.008139 
L 652.989789 379.838498 
L 654.663006 375.052893 
L 657.992791 368.613437 
L 659.657683 363.739746 
L 661.3309 360.469388 
L 662.995792 360.469388 
L 664.660684 352.218692 
L 666.325576 345.540512 
L 667.998793 340.486222 
L 671.328577 347.216565 
L 673.001794 357.181928 
L 674.666686 371.841529 
L 676.331579 387.731785 
L 677.996471 390.860259 
L 679.628065 390.860259 
L 681.292957 386.161278 
L 682.95785 371.841529 
L 684.631066 337.09477 
L 686.295959 285.896409 
L 687.960851 250.218632 
L 689.625743 220.798578 
L 691.29896 183.97363 
L 692.963852 158.468803 
L 694.628744 158.468803 
L 696.301961 154.141959 
L 697.966853 138.823578 
L 699.631745 111.922872 
L 701.296638 60.434631 
L 702.969854 36.070231 
L 704.634747 58.025753 
L 706.299639 74.76158 
L 707.931233 95.849469 
L 709.596125 109.644027 
L 711.261018 132.174895 
L 712.92591 149.792999 
L 714.599127 162.773856 
L 717.928911 171.318537 
L 719.602128 192.30361 
L 721.26702 222.795198 
L 722.931912 240.53722 
L 724.596804 248.292319 
L 726.270021 254.056673 
L 729.599806 246.360985 
L 731.264698 263.565971 
L 734.602807 337.09477 
L 736.267699 366.9931 
L 737.899293 358.827799 
L 739.564186 318.124733 
L 741.229078 284.061734 
L 742.902295 234.668592 
L 744.567187 200.549103 
L 746.232079 206.678299 
L 747.896971 222.795198 
L 749.570188 224.786712 
L 754.573189 212.760758 
L 756.238081 212.760758 
L 757.902974 218.796853 
L 759.567866 234.668592 
L 761.241082 255.968261 
L 762.905975 271.086073 
L 764.570867 278.529311 
L 766.202461 265.453258 
L 767.867354 244.424685 
L 769.532246 232.702202 
L 771.197138 238.585966 
L 774.535247 261.673893 
L 776.200139 280.378208 
L 777.873356 302.197459 
L 779.538248 321.614124 
L 782.868033 371.841529 
L 784.541249 390.860259 
L 786.206141 407.777411 
L 787.871034 421.259975 
L 789.535926 390.860259 
L 791.209143 335.392452 
L 792.874035 305.768918 
L 794.538927 300.404779 
L 796.170522 298.60758 
L 797.835414 291.37216 
L 799.500306 287.726341 
L 801.173523 291.37216 
L 802.838415 287.726341 
L 804.503307 278.529311 
L 806.168199 278.529311 
L 807.841416 291.37216 
L 809.506308 307.547739 
L 812.836093 325.085415 
L 814.509309 335.392452 
L 816.174202 343.860171 
L 817.839094 345.540512 
L 821.177203 342.175365 
L 822.842095 338.79271 
L 824.473689 345.540512 
L 826.138582 368.613437 
L 827.803474 401.682049 
L 829.468366 428.613395 
L 831.141583 443.032149 
L 832.806475 448.693692 
L 834.471367 450.099654 
L 836.144584 445.870467 
L 837.809476 431.52767 
L 839.474368 413.809079 
L 841.139261 387.731785 
L 842.812477 340.486222 
L 844.47737 305.768918 
L 846.142262 311.091612 
L 847.807154 325.085415 
L 849.480371 326.814401 
L 851.145263 311.091612 
L 852.810155 300.404779 
L 854.44175 305.768918 
L 857.771534 312.856707 
L 859.444751 312.856707 
L 864.439428 302.197459 
L 866.112644 300.404779 
L 867.777536 296.805692 
L 869.442429 294.999147 
L 871.107321 289.551531 
L 872.780538 285.896409 
L 874.44543 285.896409 
L 876.110322 289.551531 
L 877.783539 291.37216 
L 879.448431 287.726341 
L 881.113323 285.896409 
L 882.778215 285.896409 
L 886.074702 296.805692 
L 887.739594 300.404779 
L 889.412811 302.197459 
L 891.077703 311.091612 
L 892.742595 323.351911 
L 894.407488 338.79271 
L 896.080704 350.555634 
L 897.745597 352.218692 
L 902.748598 326.814401 
L 904.41349 323.351911 
L 906.078382 325.085415 
L 907.751599 328.538922 
L 909.416491 328.538922 
L 912.712978 321.614124 
L 916.042762 303.985536 
L 919.380871 293.187956 
L 921.045763 285.896409 
L 922.710656 276.675675 
L 924.383872 271.086073 
L 926.048765 269.213334 
L 927.713657 272.954075 
L 929.378549 271.086073 
L 932.716658 252.140117 
L 934.38155 246.360985 
L 936.054767 244.424685 
L 937.719659 240.53722 
L 941.049444 228.754599 
L 942.681038 228.754599 
L 944.34593 232.702202 
L 946.010822 242.483369 
L 949.348931 265.453258 
L 951.013824 278.529311 
L 952.678716 287.726341 
L 954.351933 291.37216 
L 956.016825 278.529311 
L 957.681717 259.776895 
L 959.354934 236.629743 
L 962.684718 196.436865 
L 964.34961 167.05707 
L 966.022827 134.396791 
L 967.687719 138.823578 
L 969.352612 151.970214 
L 972.649098 98.16296 
L 974.31399 93.529867 
L 975.978883 100.470891 
L 977.652099 123.230955 
L 979.316992 123.230955 
L 979.316992 123.230955 
" clip-path="url(#pf1e85334a2)" style="fill: none; stroke: #000000; stroke-width: 1.2; stroke-linecap: square"/>
   </g>
   <g id="patch_3">
    <path d="M 85.286512 492.198498 
L 85.286512 14.118498 
" style="fill: none; stroke: #000000; stroke-width: 0.8; stroke-linejoin: miter; stroke-linecap: square"/>
   </g>
   <g id="patch_4">
    <path d="M 978.086512 492.198498 
L 978.086512 14.118498 
" style="fill: none; stroke: #000000; stroke-width: 0.8; stroke-linejoin: miter; stroke-linecap: square"/>
   </g>
   <g id="patch_5">
    <path d="M 85.286512 492.198498 
L 978.086512 492.198498 
" style="fill: none; stroke: #000000; stroke-width: 0.8; stroke-linejoin: miter; stroke-linecap: square"/>
   </g>
   <g id="patch_6">
    <path d="M 85.286512 14.118498 
L 978.086512 14.118498 
" style="fill: none; stroke: #000000; stroke-width: 0.8; stroke-linejoin: miter; stroke-linecap: square"/>
   </g>
  </g>
 </g>
 <defs>
  <clipPath id="pf1e85334a2">
   <rect x="85.286512" y="14.118498" width="892.8" height="478.08"/>
  </clipPath>
 </defs>
</svg>
