<?xml version="1.0" encoding="utf-8" standalone="no"?>
<!DOCTYPE svg PUBLIC "-//W3C//DTD SVG 1.1//EN"
  "http://www.w3.org/Graphics/SVG/1.1/DTD/svg11.dtd">
<svg xmlns:xlink="http://www.w3.org/1999/xlink" width="1092.721903pt" height="564.10621pt" viewBox="0 0 1092.721903 564.10621" xmlns="http://www.w3.org/2000/svg" version="1.1">
 <metadata>
  <rdf:RDF xmlns:dc="http://purl.org/dc/elements/1.1/" xmlns:cc="http://creativecommons.org/ns#" xmlns:rdf="http://www.w3.org/1999/02/22-rdf-syntax-ns#">
   <cc:Work>
    <dc:type rdf:resource="http://purl.org/dc/dcmitype/StillImage"/>
    <dc:date>2024-11-23T10:47:17.116425</dc:date>
    <dc:format>image/svg+xml</dc:format>
    <dc:creator>
     <cc:Agent>
      <dc:title>Matplotlib v3.9.2, https://matplotlib.org/</dc:title>
     </cc:Agent>
    </dc:creator>
   </cc:Work>
  </rdf:RDF>
 </metadata>
 <defs>
  <style type="text/css">*{stroke-linejoin: round; stroke-linecap: butt}</style>
 </defs>
 <g id="figure_1">
  <g id="patch_1">
   <path d="M 0 564.10621 
L 1092.721903 564.10621 
L 1092.721903 0 
L 0 0 
z
" style="fill: #ffffff"/>
  </g>
  <g id="axes_1">
   <g id="patch_2">
    <path d="M 97.924772 485.28 
L 990.724772 485.28 
L 990.724772 7.2 
L 97.924772 7.2 
z
" style="fill: #ffffff"/>
   </g>
   <g id="matplotlib.axis_1">
    <g id="xtick_1">
     <g id="line2d_1">
      <path d="M 185.34729 485.28 
L 185.34729 7.2 
" clip-path="url(#pd2b7f2c4c6)" style="fill: none; stroke: #b0b0b0; stroke-width: 0.8; stroke-linecap: square"/>
     </g>
     <g id="line2d_2">
      <defs>
       <path id="m9543b6776f" d="M 0 0 
L 0 3.5 
" style="stroke: #000000; stroke-width: 0.8"/>
      </defs>
      <g>
       <use xlink:href="#m9543b6776f" x="185.34729" y="485.28" style="stroke: #000000; stroke-width: 0.8"/>
      </g>
     </g>
     <g id="text_1">
      <!-- $\mathdefault{10^{-1}}$ -->
      <g transform="translate(167.370871 507.616997) scale(0.2 -0.2)">
       <defs>
        <path id="CMR17-31" d="M 1702 4058 
C 1702 4192 1696 4192 1606 4192 
C 1357 3916 979 3827 621 3827 
C 602 3827 570 3827 563 3808 
C 557 3795 557 3782 557 3648 
C 755 3648 1088 3686 1344 3839 
L 1344 461 
C 1344 236 1331 160 781 160 
L 589 160 
L 589 0 
C 896 0 1216 0 1523 0 
C 1830 0 2150 0 2458 0 
L 2458 160 
L 2266 160 
C 1715 160 1702 230 1702 458 
L 1702 4058 
z
" transform="scale(0.015625)"/>
        <path id="CMR17-30" d="M 2688 2025 
C 2688 2416 2682 3080 2413 3591 
C 2176 4039 1798 4198 1466 4198 
C 1158 4198 768 4058 525 3597 
C 269 3118 243 2524 243 2025 
C 243 1661 250 1106 448 619 
C 723 -39 1216 -128 1466 -128 
C 1760 -128 2208 -7 2470 600 
C 2662 1042 2688 1559 2688 2025 
z
M 1466 -26 
C 1056 -26 813 325 723 812 
C 653 1188 653 1738 653 2096 
C 653 2588 653 2997 736 3387 
C 858 3929 1216 4096 1466 4096 
C 1728 4096 2067 3923 2189 3400 
C 2272 3036 2278 2607 2278 2096 
C 2278 1680 2278 1169 2202 792 
C 2067 95 1690 -26 1466 -26 
z
" transform="scale(0.015625)"/>
        <path id="CMSY10-0" d="M 4218 1472 
C 4326 1472 4442 1472 4442 1600 
C 4442 1728 4326 1728 4218 1728 
L 755 1728 
C 646 1728 531 1728 531 1600 
C 531 1472 646 1472 755 1472 
L 4218 1472 
z
" transform="scale(0.015625)"/>
       </defs>
       <use xlink:href="#CMR17-31" transform="scale(0.996264)"/>
       <use xlink:href="#CMR17-30" transform="translate(45.690477 0) scale(0.996264)"/>
       <use xlink:href="#CMSY10-0" transform="translate(91.380954 36.153639) scale(0.697382)"/>
       <use xlink:href="#CMR17-31" transform="translate(145.621947 36.153639) scale(0.697382)"/>
      </g>
     </g>
    </g>
    <g id="xtick_2">
     <g id="line2d_3">
      <path d="M 335.70768 485.28 
L 335.70768 7.2 
" clip-path="url(#pd2b7f2c4c6)" style="fill: none; stroke: #b0b0b0; stroke-width: 0.8; stroke-linecap: square"/>
     </g>
     <g id="line2d_4">
      <g>
       <use xlink:href="#m9543b6776f" x="335.70768" y="485.28" style="stroke: #000000; stroke-width: 0.8"/>
      </g>
     </g>
     <g id="text_2">
      <!-- $\mathdefault{10^{0}}$ -->
      <g transform="translate(323.155355 507.616997) scale(0.2 -0.2)">
       <use xlink:href="#CMR17-31" transform="scale(0.996264)"/>
       <use xlink:href="#CMR17-30" transform="translate(45.690477 0) scale(0.996264)"/>
       <use xlink:href="#CMR17-30" transform="translate(91.380954 36.153639) scale(0.697382)"/>
      </g>
     </g>
    </g>
    <g id="xtick_3">
     <g id="line2d_5">
      <path d="M 486.068069 485.28 
L 486.068069 7.2 
" clip-path="url(#pd2b7f2c4c6)" style="fill: none; stroke: #b0b0b0; stroke-width: 0.8; stroke-linecap: square"/>
     </g>
     <g id="line2d_6">
      <g>
       <use xlink:href="#m9543b6776f" x="486.068069" y="485.28" style="stroke: #000000; stroke-width: 0.8"/>
      </g>
     </g>
     <g id="text_3">
      <!-- $\mathdefault{10^{1}}$ -->
      <g transform="translate(473.515745 507.616997) scale(0.2 -0.2)">
       <use xlink:href="#CMR17-31" transform="scale(0.996264)"/>
       <use xlink:href="#CMR17-30" transform="translate(45.690477 0) scale(0.996264)"/>
       <use xlink:href="#CMR17-31" transform="translate(91.380954 36.153639) scale(0.697382)"/>
      </g>
     </g>
    </g>
    <g id="xtick_4">
     <g id="line2d_7">
      <path d="M 636.428459 485.28 
L 636.428459 7.2 
" clip-path="url(#pd2b7f2c4c6)" style="fill: none; stroke: #b0b0b0; stroke-width: 0.8; stroke-linecap: square"/>
     </g>
     <g id="line2d_8">
      <g>
       <use xlink:href="#m9543b6776f" x="636.428459" y="485.28" style="stroke: #000000; stroke-width: 0.8"/>
      </g>
     </g>
     <g id="text_4">
      <!-- $\mathdefault{10^{2}}$ -->
      <g transform="translate(623.876135 507.616997) scale(0.2 -0.2)">
       <defs>
        <path id="CMR17-32" d="M 2669 989 
L 2554 989 
C 2490 536 2438 459 2413 420 
C 2381 369 1920 369 1830 369 
L 602 369 
C 832 619 1280 1072 1824 1597 
C 2214 1967 2669 2402 2669 3035 
C 2669 3790 2067 4224 1395 4224 
C 691 4224 262 3604 262 3030 
C 262 2780 448 2748 525 2748 
C 589 2748 781 2787 781 3010 
C 781 3207 614 3264 525 3264 
C 486 3264 448 3258 422 3245 
C 544 3790 915 4058 1306 4058 
C 1862 4058 2227 3617 2227 3035 
C 2227 2479 1901 2000 1536 1584 
L 262 146 
L 262 0 
L 2515 0 
L 2669 989 
z
" transform="scale(0.015625)"/>
       </defs>
       <use xlink:href="#CMR17-31" transform="scale(0.996264)"/>
       <use xlink:href="#CMR17-30" transform="translate(45.690477 0) scale(0.996264)"/>
       <use xlink:href="#CMR17-32" transform="translate(91.380954 36.153639) scale(0.697382)"/>
      </g>
     </g>
    </g>
    <g id="xtick_5">
     <g id="line2d_9">
      <path d="M 786.788849 485.28 
L 786.788849 7.2 
" clip-path="url(#pd2b7f2c4c6)" style="fill: none; stroke: #b0b0b0; stroke-width: 0.8; stroke-linecap: square"/>
     </g>
     <g id="line2d_10">
      <g>
       <use xlink:href="#m9543b6776f" x="786.788849" y="485.28" style="stroke: #000000; stroke-width: 0.8"/>
      </g>
     </g>
     <g id="text_5">
      <!-- $\mathdefault{10^{3}}$ -->
      <g transform="translate(774.236524 507.616997) scale(0.2 -0.2)">
       <defs>
        <path id="CMR17-33" d="M 1414 2157 
C 1984 2157 2234 1662 2234 1090 
C 2234 320 1824 25 1453 25 
C 1114 25 563 194 390 693 
C 422 680 454 680 486 680 
C 640 680 755 782 755 948 
C 755 1133 614 1216 486 1216 
C 378 1216 211 1165 211 926 
C 211 335 787 -128 1466 -128 
C 2176 -128 2720 430 2720 1085 
C 2720 1707 2208 2157 1600 2227 
C 2086 2328 2554 2756 2554 3329 
C 2554 3820 2048 4179 1472 4179 
C 890 4179 378 3829 378 3329 
C 378 3110 544 3072 627 3072 
C 762 3072 877 3155 877 3321 
C 877 3486 762 3569 627 3569 
C 602 3569 570 3569 544 3557 
C 730 3959 1235 4032 1459 4032 
C 1683 4032 2106 3925 2106 3320 
C 2106 3143 2080 2828 1862 2550 
C 1670 2304 1453 2304 1242 2284 
C 1210 2284 1062 2269 1037 2269 
C 992 2263 966 2257 966 2208 
C 966 2163 973 2157 1101 2157 
L 1414 2157 
z
" transform="scale(0.015625)"/>
       </defs>
       <use xlink:href="#CMR17-31" transform="scale(0.996264)"/>
       <use xlink:href="#CMR17-30" transform="translate(45.690477 0) scale(0.996264)"/>
       <use xlink:href="#CMR17-33" transform="translate(91.380954 36.153639) scale(0.697382)"/>
      </g>
     </g>
    </g>
    <g id="xtick_6">
     <g id="line2d_11">
      <path d="M 937.149239 485.28 
L 937.149239 7.2 
" clip-path="url(#pd2b7f2c4c6)" style="fill: none; stroke: #b0b0b0; stroke-width: 0.8; stroke-linecap: square"/>
     </g>
     <g id="line2d_12">
      <g>
       <use xlink:href="#m9543b6776f" x="937.149239" y="485.28" style="stroke: #000000; stroke-width: 0.8"/>
      </g>
     </g>
     <g id="text_6">
      <!-- $\mathdefault{10^{4}}$ -->
      <g transform="translate(924.596914 507.616997) scale(0.2 -0.2)">
       <defs>
        <path id="CMR17-34" d="M 2150 4122 
C 2150 4256 2144 4256 2029 4256 
L 128 1254 
L 128 1088 
L 1779 1088 
L 1779 457 
C 1779 224 1766 160 1318 160 
L 1197 160 
L 1197 0 
C 1402 0 1747 0 1965 0 
C 2182 0 2528 0 2733 0 
L 2733 160 
L 2611 160 
C 2163 160 2150 224 2150 457 
L 2150 1088 
L 2803 1088 
L 2803 1254 
L 2150 1254 
L 2150 4122 
z
M 1798 3703 
L 1798 1254 
L 256 1254 
L 1798 3703 
z
" transform="scale(0.015625)"/>
       </defs>
       <use xlink:href="#CMR17-31" transform="scale(0.996264)"/>
       <use xlink:href="#CMR17-30" transform="translate(45.690477 0) scale(0.996264)"/>
       <use xlink:href="#CMR17-34" transform="translate(91.380954 36.153639) scale(0.697382)"/>
      </g>
     </g>
    </g>
    <g id="xtick_7">
     <g id="line2d_13">
      <defs>
       <path id="m1dd95308a0" d="M 0 0 
L 0 2 
" style="stroke: #000000; stroke-width: 0.6"/>
      </defs>
      <g>
       <use xlink:href="#m1dd95308a0" x="106.727038" y="485.28" style="stroke: #000000; stroke-width: 0.6"/>
      </g>
     </g>
    </g>
    <g id="xtick_8">
     <g id="line2d_14">
      <g>
       <use xlink:href="#m1dd95308a0" x="125.512875" y="485.28" style="stroke: #000000; stroke-width: 0.6"/>
      </g>
     </g>
    </g>
    <g id="xtick_9">
     <g id="line2d_15">
      <g>
       <use xlink:href="#m1dd95308a0" x="140.084302" y="485.28" style="stroke: #000000; stroke-width: 0.6"/>
      </g>
     </g>
    </g>
    <g id="xtick_10">
     <g id="line2d_16">
      <g>
       <use xlink:href="#m1dd95308a0" x="151.990025" y="485.28" style="stroke: #000000; stroke-width: 0.6"/>
      </g>
     </g>
    </g>
    <g id="xtick_11">
     <g id="line2d_17">
      <g>
       <use xlink:href="#m1dd95308a0" x="162.056171" y="485.28" style="stroke: #000000; stroke-width: 0.6"/>
      </g>
     </g>
    </g>
    <g id="xtick_12">
     <g id="line2d_18">
      <g>
       <use xlink:href="#m1dd95308a0" x="170.775863" y="485.28" style="stroke: #000000; stroke-width: 0.6"/>
      </g>
     </g>
    </g>
    <g id="xtick_13">
     <g id="line2d_19">
      <g>
       <use xlink:href="#m1dd95308a0" x="178.467176" y="485.28" style="stroke: #000000; stroke-width: 0.6"/>
      </g>
     </g>
    </g>
    <g id="xtick_14">
     <g id="line2d_20">
      <g>
       <use xlink:href="#m1dd95308a0" x="230.610277" y="485.28" style="stroke: #000000; stroke-width: 0.6"/>
      </g>
     </g>
    </g>
    <g id="xtick_15">
     <g id="line2d_21">
      <g>
       <use xlink:href="#m1dd95308a0" x="257.087428" y="485.28" style="stroke: #000000; stroke-width: 0.6"/>
      </g>
     </g>
    </g>
    <g id="xtick_16">
     <g id="line2d_22">
      <g>
       <use xlink:href="#m1dd95308a0" x="275.873265" y="485.28" style="stroke: #000000; stroke-width: 0.6"/>
      </g>
     </g>
    </g>
    <g id="xtick_17">
     <g id="line2d_23">
      <g>
       <use xlink:href="#m1dd95308a0" x="290.444692" y="485.28" style="stroke: #000000; stroke-width: 0.6"/>
      </g>
     </g>
    </g>
    <g id="xtick_18">
     <g id="line2d_24">
      <g>
       <use xlink:href="#m1dd95308a0" x="302.350415" y="485.28" style="stroke: #000000; stroke-width: 0.6"/>
      </g>
     </g>
    </g>
    <g id="xtick_19">
     <g id="line2d_25">
      <g>
       <use xlink:href="#m1dd95308a0" x="312.416561" y="485.28" style="stroke: #000000; stroke-width: 0.6"/>
      </g>
     </g>
    </g>
    <g id="xtick_20">
     <g id="line2d_26">
      <g>
       <use xlink:href="#m1dd95308a0" x="321.136252" y="485.28" style="stroke: #000000; stroke-width: 0.6"/>
      </g>
     </g>
    </g>
    <g id="xtick_21">
     <g id="line2d_27">
      <g>
       <use xlink:href="#m1dd95308a0" x="328.827566" y="485.28" style="stroke: #000000; stroke-width: 0.6"/>
      </g>
     </g>
    </g>
    <g id="xtick_22">
     <g id="line2d_28">
      <g>
       <use xlink:href="#m1dd95308a0" x="380.970667" y="485.28" style="stroke: #000000; stroke-width: 0.6"/>
      </g>
     </g>
    </g>
    <g id="xtick_23">
     <g id="line2d_29">
      <g>
       <use xlink:href="#m1dd95308a0" x="407.447817" y="485.28" style="stroke: #000000; stroke-width: 0.6"/>
      </g>
     </g>
    </g>
    <g id="xtick_24">
     <g id="line2d_30">
      <g>
       <use xlink:href="#m1dd95308a0" x="426.233655" y="485.28" style="stroke: #000000; stroke-width: 0.6"/>
      </g>
     </g>
    </g>
    <g id="xtick_25">
     <g id="line2d_31">
      <g>
       <use xlink:href="#m1dd95308a0" x="440.805082" y="485.28" style="stroke: #000000; stroke-width: 0.6"/>
      </g>
     </g>
    </g>
    <g id="xtick_26">
     <g id="line2d_32">
      <g>
       <use xlink:href="#m1dd95308a0" x="452.710805" y="485.28" style="stroke: #000000; stroke-width: 0.6"/>
      </g>
     </g>
    </g>
    <g id="xtick_27">
     <g id="line2d_33">
      <g>
       <use xlink:href="#m1dd95308a0" x="462.77695" y="485.28" style="stroke: #000000; stroke-width: 0.6"/>
      </g>
     </g>
    </g>
    <g id="xtick_28">
     <g id="line2d_34">
      <g>
       <use xlink:href="#m1dd95308a0" x="471.496642" y="485.28" style="stroke: #000000; stroke-width: 0.6"/>
      </g>
     </g>
    </g>
    <g id="xtick_29">
     <g id="line2d_35">
      <g>
       <use xlink:href="#m1dd95308a0" x="479.187955" y="485.28" style="stroke: #000000; stroke-width: 0.6"/>
      </g>
     </g>
    </g>
    <g id="xtick_30">
     <g id="line2d_36">
      <g>
       <use xlink:href="#m1dd95308a0" x="531.331057" y="485.28" style="stroke: #000000; stroke-width: 0.6"/>
      </g>
     </g>
    </g>
    <g id="xtick_31">
     <g id="line2d_37">
      <g>
       <use xlink:href="#m1dd95308a0" x="557.808207" y="485.28" style="stroke: #000000; stroke-width: 0.6"/>
      </g>
     </g>
    </g>
    <g id="xtick_32">
     <g id="line2d_38">
      <g>
       <use xlink:href="#m1dd95308a0" x="576.594044" y="485.28" style="stroke: #000000; stroke-width: 0.6"/>
      </g>
     </g>
    </g>
    <g id="xtick_33">
     <g id="line2d_39">
      <g>
       <use xlink:href="#m1dd95308a0" x="591.165472" y="485.28" style="stroke: #000000; stroke-width: 0.6"/>
      </g>
     </g>
    </g>
    <g id="xtick_34">
     <g id="line2d_40">
      <g>
       <use xlink:href="#m1dd95308a0" x="603.071195" y="485.28" style="stroke: #000000; stroke-width: 0.6"/>
      </g>
     </g>
    </g>
    <g id="xtick_35">
     <g id="line2d_41">
      <g>
       <use xlink:href="#m1dd95308a0" x="613.13734" y="485.28" style="stroke: #000000; stroke-width: 0.6"/>
      </g>
     </g>
    </g>
    <g id="xtick_36">
     <g id="line2d_42">
      <g>
       <use xlink:href="#m1dd95308a0" x="621.857032" y="485.28" style="stroke: #000000; stroke-width: 0.6"/>
      </g>
     </g>
    </g>
    <g id="xtick_37">
     <g id="line2d_43">
      <g>
       <use xlink:href="#m1dd95308a0" x="629.548345" y="485.28" style="stroke: #000000; stroke-width: 0.6"/>
      </g>
     </g>
    </g>
    <g id="xtick_38">
     <g id="line2d_44">
      <g>
       <use xlink:href="#m1dd95308a0" x="681.691447" y="485.28" style="stroke: #000000; stroke-width: 0.6"/>
      </g>
     </g>
    </g>
    <g id="xtick_39">
     <g id="line2d_45">
      <g>
       <use xlink:href="#m1dd95308a0" x="708.168597" y="485.28" style="stroke: #000000; stroke-width: 0.6"/>
      </g>
     </g>
    </g>
    <g id="xtick_40">
     <g id="line2d_46">
      <g>
       <use xlink:href="#m1dd95308a0" x="726.954434" y="485.28" style="stroke: #000000; stroke-width: 0.6"/>
      </g>
     </g>
    </g>
    <g id="xtick_41">
     <g id="line2d_47">
      <g>
       <use xlink:href="#m1dd95308a0" x="741.525861" y="485.28" style="stroke: #000000; stroke-width: 0.6"/>
      </g>
     </g>
    </g>
    <g id="xtick_42">
     <g id="line2d_48">
      <g>
       <use xlink:href="#m1dd95308a0" x="753.431584" y="485.28" style="stroke: #000000; stroke-width: 0.6"/>
      </g>
     </g>
    </g>
    <g id="xtick_43">
     <g id="line2d_49">
      <g>
       <use xlink:href="#m1dd95308a0" x="763.49773" y="485.28" style="stroke: #000000; stroke-width: 0.6"/>
      </g>
     </g>
    </g>
    <g id="xtick_44">
     <g id="line2d_50">
      <g>
       <use xlink:href="#m1dd95308a0" x="772.217422" y="485.28" style="stroke: #000000; stroke-width: 0.6"/>
      </g>
     </g>
    </g>
    <g id="xtick_45">
     <g id="line2d_51">
      <g>
       <use xlink:href="#m1dd95308a0" x="779.908735" y="485.28" style="stroke: #000000; stroke-width: 0.6"/>
      </g>
     </g>
    </g>
    <g id="xtick_46">
     <g id="line2d_52">
      <g>
       <use xlink:href="#m1dd95308a0" x="832.051836" y="485.28" style="stroke: #000000; stroke-width: 0.6"/>
      </g>
     </g>
    </g>
    <g id="xtick_47">
     <g id="line2d_53">
      <g>
       <use xlink:href="#m1dd95308a0" x="858.528987" y="485.28" style="stroke: #000000; stroke-width: 0.6"/>
      </g>
     </g>
    </g>
    <g id="xtick_48">
     <g id="line2d_54">
      <g>
       <use xlink:href="#m1dd95308a0" x="877.314824" y="485.28" style="stroke: #000000; stroke-width: 0.6"/>
      </g>
     </g>
    </g>
    <g id="xtick_49">
     <g id="line2d_55">
      <g>
       <use xlink:href="#m1dd95308a0" x="891.886251" y="485.28" style="stroke: #000000; stroke-width: 0.6"/>
      </g>
     </g>
    </g>
    <g id="xtick_50">
     <g id="line2d_56">
      <g>
       <use xlink:href="#m1dd95308a0" x="903.791974" y="485.28" style="stroke: #000000; stroke-width: 0.6"/>
      </g>
     </g>
    </g>
    <g id="xtick_51">
     <g id="line2d_57">
      <g>
       <use xlink:href="#m1dd95308a0" x="913.85812" y="485.28" style="stroke: #000000; stroke-width: 0.6"/>
      </g>
     </g>
    </g>
    <g id="xtick_52">
     <g id="line2d_58">
      <g>
       <use xlink:href="#m1dd95308a0" x="922.577811" y="485.28" style="stroke: #000000; stroke-width: 0.6"/>
      </g>
     </g>
    </g>
    <g id="xtick_53">
     <g id="line2d_59">
      <g>
       <use xlink:href="#m1dd95308a0" x="930.269125" y="485.28" style="stroke: #000000; stroke-width: 0.6"/>
      </g>
     </g>
    </g>
    <g id="xtick_54">
     <g id="line2d_60">
      <g>
       <use xlink:href="#m1dd95308a0" x="982.412226" y="485.28" style="stroke: #000000; stroke-width: 0.6"/>
      </g>
     </g>
    </g>
    <g id="text_7">
     <!-- $k\:\left[\unit{\m^-1}\right]$ -->
     <g transform="translate(504.148741 550.701192) scale(0.25 -0.25)">
      <defs>
       <path id="CMMI12-6b" d="M 1798 4257 
C 1805 4283 1818 4321 1818 4352 
C 1818 4416 1754 4416 1741 4416 
C 1734 4416 1504 4393 1389 4377 
C 1280 4377 1184 4358 1069 4358 
C 915 4345 870 4339 870 4224 
C 870 4160 934 4160 998 4160 
C 1325 4160 1325 4103 1325 4040 
C 1325 4015 1325 4002 1293 3888 
L 378 248 
C 352 152 352 140 352 101 
C 352 -38 461 -64 525 -64 
C 704 -64 742 77 794 275 
L 1094 1469 
C 1555 1418 1830 1226 1830 920 
C 1830 881 1830 856 1811 760 
C 1786 664 1786 588 1786 556 
C 1786 185 2029 -64 2355 -64 
C 2650 -64 2803 204 2854 294 
C 2989 530 3072 888 3072 913 
C 3072 945 3046 971 3008 971 
C 2950 971 2944 945 2918 843 
C 2829 511 2694 64 2368 64 
C 2240 64 2157 128 2157 370 
C 2157 492 2182 632 2208 728 
C 2234 843 2234 849 2234 926 
C 2234 1303 1894 1514 1306 1590 
C 1536 1731 1766 1980 1856 2076 
C 2221 2484 2470 2689 2765 2689 
C 2912 2689 2950 2650 2995 2612 
C 2758 2586 2669 2420 2669 2293 
C 2669 2139 2790 2088 2880 2088 
C 3053 2088 3206 2235 3206 2440 
C 3206 2625 3059 2816 2771 2816 
C 2419 2816 2131 2567 1677 2056 
C 1613 1980 1376 1737 1139 1648 
L 1798 4257 
z
" transform="scale(0.015625)"/>
       <path id="CMR17-5b" d="M 1504 -1600 
L 1504 -1377 
L 902 -1377 
L 902 4544 
L 1504 4544 
L 1504 4767 
L 678 4767 
L 678 -1600 
L 1504 -1600 
z
" transform="scale(0.015625)"/>
       <path id="CMR17-6d" d="M 4326 1933 
C 4326 2252 4269 2790 3507 2790 
C 3072 2790 2771 2496 2656 2151 
L 2650 2151 
C 2573 2676 2195 2790 1837 2790 
C 1331 2790 1069 2400 973 2144 
L 966 2144 
L 966 2790 
L 211 2720 
L 211 2554 
C 589 2554 646 2515 646 2208 
L 646 428 
C 646 184 621 153 211 153 
L 211 -13 
C 365 0 646 0 813 0 
C 979 0 1267 0 1421 -13 
L 1421 153 
C 1011 153 986 178 986 428 
L 986 1658 
C 986 2247 1344 2688 1792 2688 
C 2266 2688 2317 2266 2317 1958 
L 2317 428 
C 2317 184 2291 153 1882 153 
L 1882 -13 
C 2035 0 2317 0 2483 0 
C 2650 0 2938 0 3091 -13 
L 3091 153 
C 2682 153 2656 178 2656 428 
L 2656 1658 
C 2656 2247 3014 2688 3462 2688 
C 3936 2688 3987 2266 3987 1958 
L 3987 428 
C 3987 184 3962 153 3552 153 
L 3552 -13 
C 3706 0 3987 0 4154 0 
C 4320 0 4608 0 4762 -13 
L 4762 153 
C 4352 153 4326 178 4326 428 
L 4326 1933 
z
" transform="scale(0.015625)"/>
       <path id="CMR17-5d" d="M 915 4767 
L 90 4767 
L 90 4544 
L 691 4544 
L 691 -1377 
L 90 -1377 
L 90 -1600 
L 915 -1600 
L 915 4767 
z
" transform="scale(0.015625)"/>
      </defs>
      <use xlink:href="#CMMI12-6b" transform="scale(0.996264)"/>
      <use xlink:href="#CMR17-5b" transform="translate(92.822813 0.003177) scale(0.996264)"/>
      <use xlink:href="#CMR17-6d" transform="translate(117.693871 0) scale(0.996264)"/>
      <use xlink:href="#CMSY10-0" transform="translate(194.613461 36.153639) scale(0.697382)"/>
      <use xlink:href="#CMR17-31" transform="translate(249.352586 0) scale(0.996264)"/>
      <use xlink:href="#CMR17-5d" transform="translate(295.043064 0.003177) scale(0.996264)"/>
     </g>
    </g>
   </g>
   <g id="matplotlib.axis_2">
    <g id="ytick_1">
     <g id="line2d_61">
      <path d="M 97.924772 463.549091 
L 990.724772 463.549091 
" clip-path="url(#pd2b7f2c4c6)" style="fill: none; stroke: #b0b0b0; stroke-width: 0.8; stroke-linecap: square"/>
     </g>
     <g id="line2d_62">
      <defs>
       <path id="m551be1af22" d="M 0 0 
L -3.5 0 
" style="stroke: #000000; stroke-width: 0.8"/>
      </defs>
      <g>
       <use xlink:href="#m551be1af22" x="97.924772" y="463.549091" style="stroke: #000000; stroke-width: 0.8"/>
      </g>
     </g>
     <g id="text_8">
      <!-- $\mathdefault{0.00}$ -->
      <g transform="translate(56.59105 470.467589) scale(0.2 -0.2)">
       <defs>
        <path id="CMMI12-3a" d="M 1178 307 
C 1178 492 1024 619 870 619 
C 685 619 557 466 557 313 
C 557 128 710 0 864 0 
C 1050 0 1178 153 1178 307 
z
" transform="scale(0.015625)"/>
       </defs>
       <use xlink:href="#CMR17-30" transform="scale(0.996264)"/>
       <use xlink:href="#CMMI12-3a" transform="translate(45.690477 0) scale(0.996264)"/>
       <use xlink:href="#CMR17-30" transform="translate(72.787654 0) scale(0.996264)"/>
       <use xlink:href="#CMR17-30" transform="translate(118.478131 0) scale(0.996264)"/>
      </g>
     </g>
    </g>
    <g id="ytick_2">
     <g id="line2d_63">
      <path d="M 97.924772 370.215088 
L 990.724772 370.215088 
" clip-path="url(#pd2b7f2c4c6)" style="fill: none; stroke: #b0b0b0; stroke-width: 0.8; stroke-linecap: square"/>
     </g>
     <g id="line2d_64">
      <g>
       <use xlink:href="#m551be1af22" x="97.924772" y="370.215088" style="stroke: #000000; stroke-width: 0.8"/>
      </g>
     </g>
     <g id="text_9">
      <!-- $\mathdefault{0.02}$ -->
      <g transform="translate(56.59105 377.133587) scale(0.2 -0.2)">
       <use xlink:href="#CMR17-30" transform="scale(0.996264)"/>
       <use xlink:href="#CMMI12-3a" transform="translate(45.690477 0) scale(0.996264)"/>
       <use xlink:href="#CMR17-30" transform="translate(72.787654 0) scale(0.996264)"/>
       <use xlink:href="#CMR17-32" transform="translate(118.478131 0) scale(0.996264)"/>
      </g>
     </g>
    </g>
    <g id="ytick_3">
     <g id="line2d_65">
      <path d="M 97.924772 276.881086 
L 990.724772 276.881086 
" clip-path="url(#pd2b7f2c4c6)" style="fill: none; stroke: #b0b0b0; stroke-width: 0.8; stroke-linecap: square"/>
     </g>
     <g id="line2d_66">
      <g>
       <use xlink:href="#m551be1af22" x="97.924772" y="276.881086" style="stroke: #000000; stroke-width: 0.8"/>
      </g>
     </g>
     <g id="text_10">
      <!-- $\mathdefault{0.04}$ -->
      <g transform="translate(56.59105 283.799584) scale(0.2 -0.2)">
       <use xlink:href="#CMR17-30" transform="scale(0.996264)"/>
       <use xlink:href="#CMMI12-3a" transform="translate(45.690477 0) scale(0.996264)"/>
       <use xlink:href="#CMR17-30" transform="translate(72.787654 0) scale(0.996264)"/>
       <use xlink:href="#CMR17-34" transform="translate(118.478131 0) scale(0.996264)"/>
      </g>
     </g>
    </g>
    <g id="ytick_4">
     <g id="line2d_67">
      <path d="M 97.924772 183.547083 
L 990.724772 183.547083 
" clip-path="url(#pd2b7f2c4c6)" style="fill: none; stroke: #b0b0b0; stroke-width: 0.8; stroke-linecap: square"/>
     </g>
     <g id="line2d_68">
      <g>
       <use xlink:href="#m551be1af22" x="97.924772" y="183.547083" style="stroke: #000000; stroke-width: 0.8"/>
      </g>
     </g>
     <g id="text_11">
      <!-- $\mathdefault{0.06}$ -->
      <g transform="translate(56.59105 190.465582) scale(0.2 -0.2)">
       <defs>
        <path id="CMR17-36" d="M 678 2176 
C 678 3690 1395 4032 1811 4032 
C 1946 4032 2272 4009 2400 3776 
C 2298 3776 2106 3776 2106 3553 
C 2106 3381 2246 3323 2336 3323 
C 2394 3323 2566 3348 2566 3560 
C 2566 3954 2246 4179 1805 4179 
C 1043 4179 243 3390 243 1984 
C 243 253 966 -128 1478 -128 
C 2099 -128 2688 427 2688 1283 
C 2688 2081 2170 2662 1517 2662 
C 1126 2662 838 2407 678 1960 
L 678 2176 
z
M 1478 25 
C 691 25 691 1200 691 1436 
C 691 1896 909 2560 1504 2560 
C 1613 2560 1926 2560 2138 2120 
C 2253 1870 2253 1609 2253 1289 
C 2253 944 2253 690 2118 434 
C 1978 171 1773 25 1478 25 
z
" transform="scale(0.015625)"/>
       </defs>
       <use xlink:href="#CMR17-30" transform="scale(0.996264)"/>
       <use xlink:href="#CMMI12-3a" transform="translate(45.690477 0) scale(0.996264)"/>
       <use xlink:href="#CMR17-30" transform="translate(72.787654 0) scale(0.996264)"/>
       <use xlink:href="#CMR17-36" transform="translate(118.478131 0) scale(0.996264)"/>
      </g>
     </g>
    </g>
    <g id="ytick_5">
     <g id="line2d_69">
      <path d="M 97.924772 90.213081 
L 990.724772 90.213081 
" clip-path="url(#pd2b7f2c4c6)" style="fill: none; stroke: #b0b0b0; stroke-width: 0.8; stroke-linecap: square"/>
     </g>
     <g id="line2d_70">
      <g>
       <use xlink:href="#m551be1af22" x="97.924772" y="90.213081" style="stroke: #000000; stroke-width: 0.8"/>
      </g>
     </g>
     <g id="text_12">
      <!-- $\mathdefault{0.08}$ -->
      <g transform="translate(56.59105 97.131579) scale(0.2 -0.2)">
       <defs>
        <path id="CMR17-38" d="M 1741 2264 
C 2144 2467 2554 2773 2554 3263 
C 2554 3841 1990 4179 1472 4179 
C 890 4179 378 3759 378 3180 
C 378 3021 416 2747 666 2505 
C 730 2442 998 2251 1171 2130 
C 883 1983 211 1634 211 934 
C 211 279 838 -128 1459 -128 
C 2144 -128 2720 362 2720 1010 
C 2720 1590 2330 1857 2074 2029 
L 1741 2264 
z
M 902 2822 
C 851 2854 595 3051 595 3351 
C 595 3739 998 4032 1459 4032 
C 1965 4032 2336 3676 2336 3262 
C 2336 2669 1670 2331 1638 2331 
C 1632 2331 1626 2331 1574 2370 
L 902 2822 
z
M 2080 1519 
C 2176 1449 2483 1240 2483 851 
C 2483 381 2010 25 1472 25 
C 890 25 448 438 448 940 
C 448 1443 838 1862 1280 2060 
L 2080 1519 
z
" transform="scale(0.015625)"/>
       </defs>
       <use xlink:href="#CMR17-30" transform="scale(0.996264)"/>
       <use xlink:href="#CMMI12-3a" transform="translate(45.690477 0) scale(0.996264)"/>
       <use xlink:href="#CMR17-30" transform="translate(72.787654 0) scale(0.996264)"/>
       <use xlink:href="#CMR17-38" transform="translate(118.478131 0) scale(0.996264)"/>
      </g>
     </g>
    </g>
    <g id="text_13">
     <!-- $E\:\unit{[\m^3/\s^2]}$ -->
     <g transform="translate(30.3644 293.662492) rotate(-90) scale(0.25 -0.25)">
      <defs>
       <path id="CMMI12-45" d="M 4448 1489 
C 4454 1508 4474 1554 4474 1579 
C 4474 1611 4448 1643 4410 1643 
C 4384 1643 4371 1637 4352 1617 
C 4339 1611 4339 1598 4282 1469 
C 3904 570 3629 185 2605 185 
L 1670 185 
C 1581 185 1568 185 1530 192 
C 1459 198 1453 211 1453 262 
C 1453 307 1466 345 1478 403 
L 1920 2176 
L 2554 2176 
C 3053 2176 3091 2066 3091 1874 
C 3091 1810 3091 1752 3046 1560 
C 3034 1534 3027 1508 3027 1489 
C 3027 1444 3059 1425 3098 1425 
C 3155 1425 3162 1469 3187 1559 
L 3552 3042 
C 3552 3073 3526 3105 3488 3105 
C 3430 3105 3424 3080 3398 2990 
C 3270 2501 3142 2361 2573 2361 
L 1965 2361 
L 2362 3930 
C 2419 4154 2432 4154 2694 4154 
L 3610 4154 
C 4397 4154 4557 3943 4557 3458 
C 4557 3451 4557 3273 4531 3062 
C 4525 3036 4518 2998 4518 2985 
C 4518 2934 4550 2915 4589 2915 
C 4634 2915 4659 2941 4672 3055 
L 4806 4174 
C 4806 4195 4819 4263 4819 4277 
C 4819 4352 4762 4352 4646 4352 
L 1523 4352 
C 1402 4352 1338 4352 1338 4229 
C 1338 4154 1382 4154 1491 4154 
C 1888 4154 1888 4114 1888 4052 
C 1888 4020 1882 3994 1862 3924 
L 998 473 
C 941 249 928 185 480 185 
C 358 185 294 185 294 70 
C 294 0 333 0 461 0 
L 3674 0 
C 3814 0 3821 6 3866 110 
L 4448 1489 
z
" transform="scale(0.015625)"/>
       <path id="CMMI12-3d" d="M 2746 4562 
C 2746 4569 2784 4666 2784 4678 
C 2784 4755 2720 4800 2669 4800 
C 2637 4800 2579 4800 2528 4659 
L 384 -1363 
C 384 -1370 346 -1465 346 -1478 
C 346 -1555 410 -1600 461 -1600 
C 499 -1600 557 -1593 602 -1459 
L 2746 4562 
z
" transform="scale(0.015625)"/>
       <path id="CMR17-73" d="M 1978 2697 
C 1978 2813 1971 2819 1933 2819 
C 1907 2819 1901 2813 1824 2717 
C 1805 2691 1747 2626 1728 2601 
C 1523 2819 1235 2819 1126 2819 
C 416 2819 160 2447 160 2076 
C 160 1498 813 1365 998 1325 
C 1402 1243 1542 1217 1677 1101 
C 1760 1025 1901 884 1901 654 
C 1901 384 1747 38 1158 38 
C 602 38 403 460 288 1021 
C 269 1110 269 1117 218 1117 
C 166 1117 160 1110 160 983 
L 160 63 
C 160 -51 166 -58 205 -58 
C 237 -58 243 -51 275 0 
C 314 57 410 211 448 276 
C 576 103 800 -64 1158 -64 
C 1792 -64 2131 283 2131 784 
C 2131 1112 1958 1285 1875 1362 
C 1683 1561 1459 1606 1190 1657 
C 838 1735 390 1825 390 2217 
C 390 2383 480 2737 1126 2737 
C 1811 2737 1850 2094 1862 1888 
C 1869 1856 1901 1849 1920 1849 
C 1978 1849 1978 1869 1978 1978 
L 1978 2697 
z
" transform="scale(0.015625)"/>
      </defs>
      <use xlink:href="#CMMI12-45" transform="scale(0.996264)"/>
      <use xlink:href="#CMR17-5b" transform="translate(100.190843 0) scale(0.996264)"/>
      <use xlink:href="#CMR17-6d" transform="translate(125.061902 0) scale(0.996264)"/>
      <use xlink:href="#CMR17-33" transform="translate(201.981492 47.703619) scale(0.697382)"/>
      <use xlink:href="#CMMI12-3d" transform="translate(234.462805 0) scale(0.996264)"/>
      <use xlink:href="#CMR17-73" transform="translate(283.237724 0) scale(0.996264)"/>
      <use xlink:href="#CMR17-32" transform="translate(319.039062 36.153639) scale(0.697382)"/>
      <use xlink:href="#CMR17-5d" transform="translate(351.520376 0) scale(0.996264)"/>
     </g>
    </g>
   </g>
   <g id="patch_3">
    <path d="M 97.924772 485.28 
L 97.924772 7.2 
" style="fill: none; stroke: #000000; stroke-width: 0.8; stroke-linejoin: miter; stroke-linecap: square"/>
   </g>
   <g id="patch_4">
    <path d="M 990.724772 485.28 
L 990.724772 7.2 
" style="fill: none; stroke: #000000; stroke-width: 0.8; stroke-linejoin: miter; stroke-linecap: square"/>
   </g>
   <g id="patch_5">
    <path d="M 97.924772 485.28 
L 990.724772 485.28 
" style="fill: none; stroke: #000000; stroke-width: 0.8; stroke-linejoin: miter; stroke-linecap: square"/>
   </g>
   <g id="patch_6">
    <path d="M 97.924772 7.2 
L 990.724772 7.2 
" style="fill: none; stroke: #000000; stroke-width: 0.8; stroke-linejoin: miter; stroke-linecap: square"/>
   </g>
   <g id="line2d_71">
    <path d="M -1 463.548554 
L 387.084268 463.445831 
L 406.94948 463.205835 
L 418.676541 462.85531 
L 427.05992 462.405937 
L 433.782493 461.847793 
L 439.877133 461.116019 
L 444.854832 460.297664 
L 449.479822 459.301392 
L 453.27429 458.26901 
L 456.860327 457.074018 
L 460.259643 455.704883 
L 463.490725 454.15074 
L 466.569442 452.40151 
L 469.50952 450.448001 
L 472.322907 448.281995 
L 475.020074 445.896328 
L 477.610243 443.284945 
L 480.101579 440.442952 
L 482.50135 437.366651 
L 484.816047 434.053555 
L 487.051496 430.502401 
L 489.515966 426.152433 
L 491.890798 421.493355 
L 494.182285 416.528997 
L 496.667601 410.586417 
L 499.061784 404.275706 
L 501.622924 396.848694 
L 504.087393 389.006309 
L 506.695027 379.930537 
L 509.202516 370.4212 
L 511.83243 359.601734 
L 514.566835 347.420923 
L 517.388909 333.854228 
L 520.47152 317.902717 
L 523.773944 299.563925 
L 527.257473 278.939788 
L 531.206324 254.209679 
L 536.273313 220.959274 
L 548.742928 138.420054 
L 552.421141 115.949276 
L 555.464174 98.675451 
L 558.160705 84.596928 
L 560.648651 72.78433 
L 562.848882 63.375989 
L 564.882129 55.611387 
L 566.761416 49.269985 
L 568.497995 44.149636 
L 570.10164 40.068044 
L 571.580866 36.862838 
L 573.027325 34.253112 
L 574.360038 32.309645 
L 575.585228 30.913078 
L 576.708363 29.960031 
L 577.734256 29.361374 
L 578.744281 29.023539 
L 579.738921 28.932387 
L 580.718638 29.074182 
L 581.683873 29.435614 
L 582.707645 30.05573 
L 583.78702 30.968689 
L 584.989124 32.291714 
L 586.306973 34.103134 
L 587.733254 36.47531 
L 589.260437 39.471356 
L 590.944873 43.297327 
L 592.77379 48.035983 
L 594.734183 53.745336 
L 596.92987 60.850414 
L 599.335957 69.41202 
L 602.0354 79.86244 
L 605.144289 92.828845 
L 608.796677 109.065815 
L 613.399205 130.602724 
L 621.331926 168.995968 
L 629.370371 207.497895 
L 634.65455 231.7268 
L 639.268903 251.864458 
L 643.521445 269.446636 
L 647.540791 285.135745 
L 651.403083 299.329159 
L 655.145421 312.246152 
L 658.798094 324.064111 
L 662.385858 334.925591 
L 665.908594 344.889392 
L 669.385798 354.066422 
L 672.833336 362.545474 
L 676.263988 370.397963 
L 679.67146 377.648078 
L 683.066131 384.355329 
L 686.470988 390.594721 
L 689.875992 396.374495 
L 693.299243 401.750304 
L 696.742046 406.745289 
L 700.204699 411.380613 
L 703.709423 415.702995 
L 707.251423 419.720903 
L 710.856291 423.475142 
L 714.523605 426.97416 
L 718.260373 430.233464 
L 722.087352 433.277492 
L 726.018403 436.120803 
L 730.068931 438.776404 
L 734.261497 441.258863 
L 738.608905 443.574196 
L 743.140399 445.734991 
L 747.882797 447.749025 
L 752.868985 449.62367 
L 758.13703 451.365001 
L 763.727844 452.976975 
L 769.702481 454.465851 
L 776.117228 455.832823 
L 783.06036 457.082355 
L 790.637595 458.216918 
L 798.975707 459.237269 
L 808.2792 460.147438 
L 818.777029 460.946205 
L 830.83067 461.635051 
L 845.079499 462.218352 
L 862.340665 462.692401 
L 884.287619 463.059767 
L 913.926062 463.319425 
L 950.142954 463.491098 
L 950.142954 463.491098 
" clip-path="url(#pd2b7f2c4c6)" style="fill: none; stroke: #000000; stroke-width: 1.2; stroke-linecap: square"/>
   </g>
  </g>
  <g id="axes_2">
   <g id="matplotlib.axis_3">
    <g id="ytick_6">
     <g id="line2d_72">
      <defs>
       <path id="m63d91ba8c8" d="M 0 0 
L 3.5 0 
" style="stroke: #000000; stroke-width: 0.8"/>
      </defs>
      <g>
       <use xlink:href="#m63d91ba8c8" x="990.724772" y="463.549091" style="stroke: #000000; stroke-width: 0.8"/>
      </g>
     </g>
     <g id="text_14">
      <!-- $\mathdefault{0}$ -->
      <g transform="translate(999.224772 470.467589) scale(0.2 -0.2)">
       <use xlink:href="#CMR17-30" transform="scale(0.996264)"/>
      </g>
     </g>
    </g>
    <g id="ytick_7">
     <g id="line2d_73">
      <g>
       <use xlink:href="#m63d91ba8c8" x="990.724772" y="388.802655" style="stroke: #000000; stroke-width: 0.8"/>
      </g>
     </g>
     <g id="text_15">
      <!-- $\mathdefault{500}$ -->
      <g transform="translate(999.224772 395.721154) scale(0.2 -0.2)">
       <defs>
        <path id="CMR17-35" d="M 730 3692 
C 794 3666 1056 3584 1325 3584 
C 1920 3584 2246 3911 2432 4100 
C 2432 4157 2432 4192 2394 4192 
C 2387 4192 2374 4192 2323 4163 
C 2099 4058 1837 3973 1517 3973 
C 1325 3973 1037 3999 723 4139 
C 653 4171 640 4171 634 4171 
C 602 4171 595 4164 595 4037 
L 595 2203 
C 595 2089 595 2057 659 2057 
C 691 2057 704 2070 736 2114 
C 941 2401 1222 2522 1542 2522 
C 1766 2522 2246 2382 2246 1289 
C 2246 1085 2246 715 2054 421 
C 1894 159 1645 25 1370 25 
C 947 25 518 320 403 814 
C 429 807 480 795 506 795 
C 589 795 749 840 749 1038 
C 749 1210 627 1280 506 1280 
C 358 1280 262 1190 262 1011 
C 262 454 704 -128 1382 -128 
C 2042 -128 2669 440 2669 1264 
C 2669 2030 2170 2624 1549 2624 
C 1222 2624 947 2503 730 2274 
L 730 3692 
z
" transform="scale(0.015625)"/>
       </defs>
       <use xlink:href="#CMR17-35" transform="scale(0.996264)"/>
       <use xlink:href="#CMR17-30" transform="translate(45.690477 0) scale(0.996264)"/>
       <use xlink:href="#CMR17-30" transform="translate(91.380954 0) scale(0.996264)"/>
      </g>
     </g>
    </g>
    <g id="ytick_8">
     <g id="line2d_74">
      <g>
       <use xlink:href="#m63d91ba8c8" x="990.724772" y="314.05622" style="stroke: #000000; stroke-width: 0.8"/>
      </g>
     </g>
     <g id="text_16">
      <!-- $\mathdefault{1000}$ -->
      <g transform="translate(999.224772 320.974718) scale(0.2 -0.2)">
       <use xlink:href="#CMR17-31" transform="scale(0.996264)"/>
       <use xlink:href="#CMR17-30" transform="translate(45.690477 0) scale(0.996264)"/>
       <use xlink:href="#CMR17-30" transform="translate(91.380954 0) scale(0.996264)"/>
       <use xlink:href="#CMR17-30" transform="translate(137.071431 0) scale(0.996264)"/>
      </g>
     </g>
    </g>
    <g id="ytick_9">
     <g id="line2d_75">
      <g>
       <use xlink:href="#m63d91ba8c8" x="990.724772" y="239.309784" style="stroke: #000000; stroke-width: 0.8"/>
      </g>
     </g>
     <g id="text_17">
      <!-- $\mathdefault{1500}$ -->
      <g transform="translate(999.224772 246.228282) scale(0.2 -0.2)">
       <use xlink:href="#CMR17-31" transform="scale(0.996264)"/>
       <use xlink:href="#CMR17-35" transform="translate(45.690477 0) scale(0.996264)"/>
       <use xlink:href="#CMR17-30" transform="translate(91.380954 0) scale(0.996264)"/>
       <use xlink:href="#CMR17-30" transform="translate(137.071431 0) scale(0.996264)"/>
      </g>
     </g>
    </g>
    <g id="ytick_10">
     <g id="line2d_76">
      <g>
       <use xlink:href="#m63d91ba8c8" x="990.724772" y="164.563348" style="stroke: #000000; stroke-width: 0.8"/>
      </g>
     </g>
     <g id="text_18">
      <!-- $\mathdefault{2000}$ -->
      <g transform="translate(999.224772 171.481847) scale(0.2 -0.2)">
       <use xlink:href="#CMR17-32" transform="scale(0.996264)"/>
       <use xlink:href="#CMR17-30" transform="translate(45.690477 0) scale(0.996264)"/>
       <use xlink:href="#CMR17-30" transform="translate(91.380954 0) scale(0.996264)"/>
       <use xlink:href="#CMR17-30" transform="translate(137.071431 0) scale(0.996264)"/>
      </g>
     </g>
    </g>
    <g id="ytick_11">
     <g id="line2d_77">
      <g>
       <use xlink:href="#m63d91ba8c8" x="990.724772" y="89.816913" style="stroke: #000000; stroke-width: 0.8"/>
      </g>
     </g>
     <g id="text_19">
      <!-- $\mathdefault{2500}$ -->
      <g transform="translate(999.224772 96.735411) scale(0.2 -0.2)">
       <use xlink:href="#CMR17-32" transform="scale(0.996264)"/>
       <use xlink:href="#CMR17-35" transform="translate(45.690477 0) scale(0.996264)"/>
       <use xlink:href="#CMR17-30" transform="translate(91.380954 0) scale(0.996264)"/>
       <use xlink:href="#CMR17-30" transform="translate(137.071431 0) scale(0.996264)"/>
      </g>
     </g>
    </g>
    <g id="ytick_12">
     <g id="line2d_78">
      <g>
       <use xlink:href="#m63d91ba8c8" x="990.724772" y="15.070477" style="stroke: #000000; stroke-width: 0.8"/>
      </g>
     </g>
     <g id="text_20">
      <!-- $\mathdefault{3000}$ -->
      <g transform="translate(999.224772 21.988975) scale(0.2 -0.2)">
       <use xlink:href="#CMR17-33" transform="scale(0.996264)"/>
       <use xlink:href="#CMR17-30" transform="translate(45.690477 0) scale(0.996264)"/>
       <use xlink:href="#CMR17-30" transform="translate(91.380954 0) scale(0.996264)"/>
       <use xlink:href="#CMR17-30" transform="translate(137.071431 0) scale(0.996264)"/>
      </g>
     </g>
    </g>
    <g id="text_21">
     <!-- $k^2\cdot E\:\left[\unit{\m/\s^2}\right]$ -->
     <g transform="translate(1076.876178 315.602199) rotate(-90) scale(0.25 -0.25)">
      <defs>
       <path id="CMSY10-1" d="M 1229 1619 
C 1229 1805 1075 1958 890 1958 
C 704 1958 550 1805 550 1619 
C 550 1433 704 1280 890 1280 
C 1075 1280 1229 1433 1229 1619 
z
" transform="scale(0.015625)"/>
       <path id="CMEX10-32" d="M 2086 -11264 
L 2528 -11264 
L 2528 -192 
L 4218 -192 
L 4218 250 
L 2086 250 
L 2086 -11264 
z
" transform="scale(0.015625)"/>
       <path id="CMEX10-36" d="M 2086 -3846 
L 2528 -3846 
L 2528 6 
L 2086 6 
L 2086 -3846 
z
" transform="scale(0.015625)"/>
       <path id="CMEX10-34" d="M 2086 -11258 
L 4218 -11258 
L 4218 -10816 
L 2528 -10816 
L 2528 256 
L 2086 256 
L 2086 -11258 
z
" transform="scale(0.015625)"/>
       <path id="CMEX10-33" d="M 1734 -11264 
L 2176 -11264 
L 2176 250 
L 45 250 
L 45 -192 
L 1734 -192 
L 1734 -11264 
z
" transform="scale(0.015625)"/>
       <path id="CMEX10-37" d="M 1734 -3846 
L 2176 -3846 
L 2176 6 
L 1734 6 
L 1734 -3846 
z
" transform="scale(0.015625)"/>
       <path id="CMEX10-35" d="M 1734 -10816 
L 45 -10816 
L 45 -11258 
L 2176 -11258 
L 2176 256 
L 1734 256 
L 1734 -10816 
z
" transform="scale(0.015625)"/>
      </defs>
      <use xlink:href="#CMMI12-6b" transform="scale(0.996264)"/>
      <use xlink:href="#CMR17-32" transform="translate(54.079201 36.153639) scale(0.697382)"/>
      <use xlink:href="#CMSY10-1" transform="translate(108.699722 0) scale(0.996264)"/>
      <use xlink:href="#CMMI12-45" transform="translate(158.513013 0) scale(0.996264)"/>
      <use xlink:href="#CMEX10-32" transform="translate(275.308262 83.404655) scale(0.247871)"/>
      <use xlink:href="#CMEX10-36" transform="translate(275.308262 39.778975) scale(0.247871)"/>
      <use xlink:href="#CMEX10-36" transform="translate(275.308262 24.9066) scale(0.247871)"/>
      <use xlink:href="#CMEX10-34" transform="translate(275.308262 9.04278) scale(0.247871)"/>
      <use xlink:href="#CMR17-6d" transform="translate(291.83301 0) scale(0.996264)"/>
      <use xlink:href="#CMMI12-3d" transform="translate(368.7526 0) scale(0.996264)"/>
      <use xlink:href="#CMR17-73" transform="translate(417.527518 0) scale(0.996264)"/>
      <use xlink:href="#CMR17-32" transform="translate(453.328856 36.153639) scale(0.697382)"/>
      <use xlink:href="#CMEX10-33" transform="translate(485.81017 83.404655) scale(0.247871)"/>
      <use xlink:href="#CMEX10-37" transform="translate(485.81017 39.778975) scale(0.247871)"/>
      <use xlink:href="#CMEX10-37" transform="translate(485.81017 24.9066) scale(0.247871)"/>
      <use xlink:href="#CMEX10-35" transform="translate(485.81017 9.04278) scale(0.247871)"/>
     </g>
    </g>
   </g>
   <g id="line2d_79">
    <path d="M -1 463.549091 
L 487.051496 463.439992 
L 501.873599 463.198393 
L 511.617271 462.827301 
L 519.140747 462.326331 
L 525.538935 461.67894 
L 531.04647 460.903 
L 536.125407 459.963636 
L 540.837664 458.864766 
L 545.232641 457.615698 
L 549.471196 456.185806 
L 553.678061 454.532978 
L 557.842939 452.658034 
L 562.057349 450.515627 
L 566.38986 448.059279 
L 570.888932 445.247309 
L 575.666095 441.992028 
L 580.868067 438.168365 
L 586.717671 433.581649 
L 593.761343 427.76171 
L 604.159187 418.846863 
L 621.692372 403.821472 
L 631.329189 395.882188 
L 640.47821 388.632619 
L 649.942501 381.420163 
L 660.385148 373.748157 
L 673.288015 364.559601 
L 716.132524 334.270383 
L 727.425696 325.878341 
L 737.641967 318.011885 
L 747.196823 310.376171 
L 756.333028 302.790923 
L 765.092721 295.231393 
L 773.572599 287.623751 
L 781.889138 279.866337 
L 789.924613 272.074934 
L 797.930746 264.006035 
L 805.901819 255.653058 
L 813.941033 246.889631 
L 821.149002 238.729285 
L 828.562489 230.024133 
L 835.972655 220.993283 
L 844.905658 209.648926 
L 853.108454 198.771369 
L 861.935553 186.550087 
L 866.196961 180.451402 
L 870.237203 174.546055 
L 873.239544 170.078716 
L 884.163619 153.236088 
L 892.276143 140.108408 
L 905.313167 117.842159 
L 906.733546 115.325619 
L 907.248436 114.409111 
L 907.83823 113.355894 
L 909.559777 110.264034 
L 912.603312 104.730817 
L 913.0114 103.982695 
L 913.482927 103.115772 
L 916.365545 97.771757 
L 916.959158 96.661167 
L 917.284418 96.051692 
L 918.551278 93.666879 
L 920.554538 89.86427 
L 920.948654 89.11171 
L 922.169067 86.770946 
L 922.520101 86.095445 
L 924.936261 81.410236 
L 925.086716 81.116957 
L 925.468203 80.37087 
L 928.538502 74.317223 
L 929.734023 71.934273 
L 930.615634 70.167839 
L 930.871217 69.653943 
L 931.63618 68.112814 
L 934.291577 62.715384 
L 934.666087 61.94786 
L 934.666418 61.94817 
L 934.717051 61.8435 
L 934.906327 61.455551 
L 935.168358 60.916665 
L 935.292751 60.661165 
L 935.523513 60.186304 
L 936.012446 59.17778 
L 936.012771 59.178047 
L 936.421411 58.332852 
L 937.692604 55.694603 
L 937.69292 55.694903 
L 937.743156 55.589951 
L 938.001934 55.050201 
L 938.002248 55.050639 
L 938.056647 54.936153 
L 938.423359 54.170382 
L 938.985711 52.993235 
L 939.062823 52.832143 
L 939.260607 52.416859 
L 942.802666 44.914884 
L 943.078286 44.325647 
L 944.549989 41.16353 
L 944.550274 41.163886 
L 944.602327 41.051122 
L 944.785748 40.654984 
L 944.786032 40.655108 
L 945.720924 38.63143 
L 946.778892 36.330496 
L 946.992776 35.863052 
L 947.03881 35.763527 
L 947.039084 35.762137 
L 947.266314 35.265761 
L 948.637397 32.257296 
L 948.978907 31.505004 
L 949.185981 31.047413 
L 949.863391 29.549686 
L 950.142431 28.930909 
L 950.142954 186.968872 
L 950.142954 186.968872 
" clip-path="url(#pd2b7f2c4c6)" style="fill: none; stroke: #000000; stroke-width: 1.2; stroke-linecap: square"/>
   </g>
   <g id="patch_7">
    <path d="M 97.924772 485.28 
L 97.924772 7.2 
" style="fill: none; stroke: #000000; stroke-width: 0.8; stroke-linejoin: miter; stroke-linecap: square"/>
   </g>
   <g id="patch_8">
    <path d="M 990.724772 485.28 
L 990.724772 7.2 
" style="fill: none; stroke: #000000; stroke-width: 0.8; stroke-linejoin: miter; stroke-linecap: square"/>
   </g>
   <g id="patch_9">
    <path d="M 97.924772 485.28 
L 990.724772 485.28 
" style="fill: none; stroke: #000000; stroke-width: 0.8; stroke-linejoin: miter; stroke-linecap: square"/>
   </g>
   <g id="patch_10">
    <path d="M 97.924772 7.2 
L 990.724772 7.2 
" style="fill: none; stroke: #000000; stroke-width: 0.8; stroke-linejoin: miter; stroke-linecap: square"/>
   </g>
  </g>
 </g>
 <defs>
  <clipPath id="pd2b7f2c4c6">
   <rect x="97.924772" y="7.2" width="892.8" height="478.08"/>
  </clipPath>
 </defs>
</svg>
